<?xml version="1.0" standalone="no"?>
<!DOCTYPE svg PUBLIC "-//W3C//DTD SVG 1.1//EN" "http://www.w3.org/Graphics/SVG/1.1/DTD/svg11.dtd" >
<svg xmlns="http://www.w3.org/2000/svg" xmlns:xlink="http://www.w3.org/1999/xlink" version="1.1">
<metadata>
Created by FontForge 20200427 at Sun Mar 13 22:40:54 2016
 By www
Copyright (c) 2012-2016 The Monotype Corporation. All rights reserved.
</metadata>
<defs>
<font id="ClassicGrotesqueW04-BoldIt" horiz-adv-x="564" >
  <font-face 
    font-family="ClassicGrotesqueW04-BoldIt"
    font-weight="700"
    font-style="italic"
    font-stretch="normal"
    units-per-em="1000"
    panose-1="2 11 8 4 4 5 4 9 2 3"
    ascent="800"
    descent="-200"
    x-height="494"
    cap-height="688"
    bbox="-442 -343 1300 983"
    underline-thickness="50"
    underline-position="-125"
    slope="-10"
    unicode-range="U+000D-FEFF"
  />
<missing-glyph horiz-adv-x="500" 
d="M12 665h475v-665h-475v665zM88 618l162 -243l161 243h-323zM60 91q25 37 80.5 120.5t80.5 121.5l-161 242v-484zM278 333l162 -243v485zM88 48h323l-161 242z" />
    <glyph glyph-name="IJ" unicode="IJ" horiz-adv-x="830" 
d="M147 688h169l-121 -688h-169zM849 688l-83 -472q-16 -89 -50 -139.5t-85.5 -71.5t-124.5 -21q-102 0 -151 43t-49 127q0 26 6 49.5t12 38t8 18.5l144 38q-2 -4 -8 -19t-12 -38.5t-6 -48.5q0 -42 13.5 -60t46.5 -18q35 0 56 21.5t30 74.5l84 478h169z" />
    <glyph glyph-name="ij" unicode="ij" horiz-adv-x="570" 
d="M144 693h167l-24 -133h-167zM109 494h167l-87 -494h-167zM429 693h167l-24 -133h-167zM221 -66q5 -3 14 -5t17 -2q22 0 34 11q13 13 19 50l89 506h167l-92 -524q-6 -36 -21 -65.5t-37 -50.5q-22 -20 -54 -30t-68 -10q-32 0 -62 7.5t-46 16.5l38 96h2z" />
    <glyph glyph-name="uniFB00" unicode="ff" horiz-adv-x="685" 
d="M436 381h-168l-84 -481h-167l84 481h-73l20 113h73l11 62q14 78 57.5 114.5t126.5 36.5q42 0 74.5 -9t51.5 -20l-40 -102h-2q-2 1 -9 5t-19 7.5t-24 3.5q-22 0 -34.5 -11.5t-17.5 -40.5l-8 -46h168l11 62q14 78 57.5 114.5t126.5 36.5q42 0 74.5 -9t51.5 -20l-40 -102h-2
q-2 1 -9 5t-19 7.5t-24 3.5q-22 0 -34.5 -11.5t-17.5 -40.5l-8 -46h100l-20 -113h-100l-84 -481h-167z" />
    <glyph glyph-name="uniFB01" unicode="fi" horiz-adv-x="635" 
d="M101 381h-73l20 113h73l11 62q14 78 57.5 114.5t126.5 36.5q42 0 74.5 -9t51.5 -20l-40 -102h-2q-2 1 -9 5t-19 7.5t-24 3.5q-22 0 -34.5 -11.5t-17.5 -40.5l-8 -46h100l-20 -113h-100l-84 -481h-167zM494 693h167l-24 -133h-167zM459 494h167l-87 -494h-167z" />
    <glyph glyph-name="uniFB02" unicode="fl" horiz-adv-x="664" 
d="M101 381h-73l20 113h73l11 62q14 78 57.5 114.5t126.5 36.5q42 0 74.5 -9t51.5 -20l-40 -102h-2q-2 1 -9 5t-19 7.5t-24 3.5q-22 0 -34.5 -11.5t-17.5 -40.5l-8 -46h100l-20 -113h-100l-84 -481h-167zM630.5 2.5q-17.5 -5.5 -48 -11t-66.5 -5.5q-61 0 -91.5 29.5
t-30.5 84.5q0 17 3.5 42.5t6.5 39.5l90 511h167l-89 -505q-2 -10 -4 -22.5t-2 -21.5q0 -19 7 -27.5t25 -8.5q15 0 27 3.5t15 4.5h2l10 -106q-4 -2 -21.5 -7.5z" />
    <glyph glyph-name="uniFB03" unicode="ffi" horiz-adv-x="970" 
d="M436 381h-168l-84 -481h-167l84 481h-73l20 113h73l11 62q14 78 57.5 114.5t126.5 36.5q42 0 74.5 -9t51.5 -20l-40 -102h-2q-2 1 -9 5t-19 7.5t-24 3.5q-22 0 -34.5 -11.5t-17.5 -40.5l-8 -46h168l11 62q14 78 57.5 114.5t126.5 36.5q42 0 74.5 -9t51.5 -20l-40 -102h-2
q-2 1 -9 5t-19 7.5t-24 3.5q-22 0 -34.5 -11.5t-17.5 -40.5l-8 -46h100l-20 -113h-100l-84 -481h-167zM829 693h167l-24 -133h-167zM794 494h167l-87 -494h-167z" />
    <glyph glyph-name="uniFB04" unicode="ffl" horiz-adv-x="999" 
d="M436 381h-168l-84 -481h-167l84 481h-73l20 113h73l11 62q14 78 57.5 114.5t126.5 36.5q42 0 74.5 -9t51.5 -20l-40 -102h-2q-2 1 -9 5t-19 7.5t-24 3.5q-22 0 -34.5 -11.5t-17.5 -40.5l-8 -46h168l11 62q14 78 57.5 114.5t126.5 36.5q42 0 74.5 -9t51.5 -20l-40 -102h-2
q-2 1 -9 5t-19 7.5t-24 3.5q-22 0 -34.5 -11.5t-17.5 -40.5l-8 -46h100l-20 -113h-100l-84 -481h-167zM965.5 2.5q-17.5 -5.5 -48 -11t-66.5 -5.5q-61 0 -91.5 29.5t-30.5 84.5q0 17 3.5 42.5t6.5 39.5l90 511h167l-89 -505q-2 -10 -4 -22.5t-2 -21.5q0 -19 7.5 -27.5
t24.5 -8.5q15 0 27 3.5t15 4.5h2l10 -106q-4 -2 -21.5 -7.5z" />
    <glyph glyph-name="f_j.liga" unicode="fj" horiz-adv-x="635" 
d="M101 381h-73l20 113h73l11 62q14 78 57.5 114.5t126.5 36.5q42 0 74.5 -9t51.5 -20l-40 -102h-2q-2 1 -9 5t-19 7.5t-24 3.5q-22 0 -34.5 -11.5t-17.5 -40.5l-8 -46h100l-20 -113h-100l-84 -481h-167zM494 693h167l-24 -133h-167zM286 -66q5 -3 14 -5t17 -2q22 0 34 11
q13 13 19 50l89 506h167l-92 -524q-6 -36 -21 -65.5t-37 -50.5q-22 -20 -54 -30t-68 -10q-32 0 -62 7.5t-46 16.5l38 96h2z" />
    <glyph glyph-name=".notdef" horiz-adv-x="500" 
d="M12 665h475v-665h-475v665zM88 618l162 -243l161 243h-323zM60 91q25 37 80.5 120.5t80.5 121.5l-161 242v-484zM278 333l162 -243v485zM88 48h323l-161 242z" />
    <glyph glyph-name="glyph1" horiz-adv-x="0" 
 />
    <glyph glyph-name="uni000D" unicode="&#xd;" horiz-adv-x="242" 
 />
    <glyph glyph-name="space" unicode=" " horiz-adv-x="242" 
 />
    <glyph glyph-name="exclam" unicode="!" horiz-adv-x="300" 
d="M146 688h172l-112 -462h-110zM62 164h158l-30 -164h-158z" />
    <glyph glyph-name="quotedbl" unicode="&#x22;" horiz-adv-x="494" 
d="M148 688h150l-72 -274h-108zM360 688h150l-72 -274h-108z" />
    <glyph glyph-name="numbersign" unicode="#" horiz-adv-x="685" 
d="M387 -8h-83l66 174h-148l-66 -174h-83l65 174h-104l19 102h124l56 150h-110l19 102h130l65 174h83l-65 -174h148l65 174h83l-65 -174h103l-19 -102h-123l-56 -150h109l-19 -102h-129zM316 418l-56 -150h148l56 150h-148z" />
    <glyph glyph-name="dollar" unicode="$" 
d="M203 42q-74 15 -120 59.5t-63 98.5l136 50q9 -27 27.5 -48t40.5 -32l20 124l-24 10q-132 56 -132 168q0 54 25.5 94t74 63t115.5 26l11 67h96l-12 -74q45 -11 78.5 -33t52 -44.5t25.5 -38.5l-114 -66q-9 20 -25 35.5t-37 24.5l-18 -108l24 -10q36 -15 66 -32.5t55 -52
t25 -85.5q0 -60 -29 -104.5t-81.5 -69.5t-122.5 -29l-13 -83h-96zM258.5 522.5q-10.5 -13.5 -10.5 -30.5q0 -14 7 -23.5t19 -14.5l14 82q-19 0 -29.5 -13.5zM359 179q13 16 13 37q0 17 -11 31.5t-27 20.5l-18 -108q30 3 43 19z" />
    <glyph glyph-name="percent" unicode="%" horiz-adv-x="903" 
d="M101.5 304.5q-37.5 47.5 -37.5 125.5q0 77 26 138.5t76.5 97.5t119.5 36q48 0 81 -22t49.5 -61t16.5 -90q0 -77 -26 -138.5t-76.5 -97.5t-119.5 -36q-72 0 -109.5 47.5zM667 688h108l-499 -688h-108zM267.5 373q17.5 27 26.5 70t9 91q0 41 -7.5 60t-25.5 19
q-23 0 -40.5 -27t-27 -71t-9.5 -91q0 -40 8 -59t26 -19q23 0 40.5 27zM547.5 33.5q-37.5 47.5 -37.5 125.5q0 77 26 138.5t76.5 97.5t119.5 36q48 0 81 -22t49.5 -61t16.5 -90q0 -77 -26 -138.5t-76.5 -97.5t-119.5 -36q-72 0 -109.5 47.5zM713.5 102q17.5 27 26.5 70t9 91
q0 41 -7.5 60t-25.5 19q-23 0 -40.5 -27t-27 -71t-9.5 -91q0 -40 8 -59t26 -19q23 0 40.5 27z" />
    <glyph glyph-name="ampersand" unicode="&#x26;" horiz-adv-x="716" 
d="M656 11.5q-20 -9.5 -52.5 -17.5t-75.5 -8q-33 0 -57 5.5t-39 12.5q-10 5 -21.5 15.5t-11.5 12.5q-19 -11 -38.5 -20.5t-53.5 -18.5t-75 -9q-51 0 -98 18t-78.5 61.5t-31.5 116.5q0 105 62.5 156.5t138.5 75.5l19 6q-2 4 -7 18.5t-10 36t-5 41.5q0 52 23.5 94.5t71.5 68
t117 25.5q63 0 102 -20t56 -51.5t17 -68.5q0 -52 -37.5 -95.5t-111.5 -72.5l-35 -14l51 -139q21 20 49 62t41 75l108 -54q-20 -51 -58 -102.5t-85 -88.5q4 -9 17.5 -17t31.5 -8q15 0 30 4.5t33 13.5h2l31 -104q0 -1 -20 -10.5zM484 562q0 21 -11.5 34.5t-34.5 13.5
q-25 0 -42 -20t-17 -50q0 -28 12 -60l4 -12q89 36 89 94zM217 282.5q-23 -27.5 -23 -72.5q0 -49 22.5 -74t57.5 -25q20 0 36 5.5t26 11.5t12 8l-74 192q-34 -18 -57 -45.5z" />
    <glyph glyph-name="quotesingle" unicode="'" horiz-adv-x="282" 
d="M148 688h150l-72 -274h-108z" />
    <glyph glyph-name="parenleft" unicode="(" horiz-adv-x="365" 
d="M98 -39q-44 104 -44 238q0 200 90 336.5t217 232.5l64 -60q-90 -93 -157.5 -217.5t-67.5 -294.5q0 -124 23 -207t59 -147l-80 -56q-60 71 -104 175z" />
    <glyph glyph-name="parenright" unicode=")" horiz-adv-x="365" 
d="M110 64q67 124 67 294q0 124 -23 207t-59 147l80 56q60 -73 104 -176.5t44 -236.5q0 -200 -90 -336.5t-217 -232.5l-63 60q90 94 157 218z" />
    <glyph glyph-name="asterisk" unicode="*" horiz-adv-x="475" 
d="M274 457l-68 -123l-76 50l96 106l-130 -16l19 94l123 -16l-66 112l87 44l38 -122l68 122l76 -50l-96 -106l130 16l-19 -94l-123 16l66 -112l-87 -44z" />
    <glyph glyph-name="plus" unicode="+" 
d="M304 51h-113l37 205h-185l18 108h185l36 205h113l-37 -205h185l-18 -108h-185z" />
    <glyph glyph-name="comma" unicode="," horiz-adv-x="282" 
d="M53.5 -78q19.5 26 26.5 61l3 17h-59l30 164h158l-30 -169q-11 -63 -44 -106.5t-86 -66.5l-48 60q30 14 49.5 40z" />
    <glyph glyph-name="hyphen" unicode="-" horiz-adv-x="326" 
d="M50 308h268l-38 -112h-268z" />
    <glyph glyph-name="period" unicode="." horiz-adv-x="282" 
d="M54 164h158l-30 -164h-158z" />
    <glyph glyph-name="slash" unicode="/" horiz-adv-x="420" 
d="M330 700h110l-312 -700h-110z" />
    <glyph glyph-name="zero" unicode="0" 
d="M92 57q-48 72 -48 191q0 136 38 239t107.5 159t162.5 56q112 0 160 -72t48 -191q0 -136 -38 -239t-107.5 -159t-162.5 -56q-112 0 -160 72zM335.5 162.5q28.5 52.5 42.5 133t14 163.5q0 57 -11.5 87.5t-42.5 30.5q-41 0 -69.5 -52.5t-42.5 -133t-14 -163.5
q0 -57 11.5 -87.5t42.5 -30.5q41 0 69.5 52.5z" />
    <glyph glyph-name="one" unicode="1" 
d="M106 123h110l66 377h-2q-9 -10 -39.5 -27t-60.5 -25l-38 118q67 19 118 51.5t78 72.5h146l-100 -567h118l-22 -123h-396z" />
    <glyph glyph-name="two" unicode="2" 
d="M36 92q15 40 35 73q25 42 61.5 78t105.5 93l63 51q44 35 66.5 64.5t22.5 67.5q0 63 -60 63q-35 0 -57 -29.5t-22 -88.5q0 -14 1 -24.5t1 -13.5l-155 20q0 3 -1 13.5t-1 24.5q0 70 34.5 119.5t92.5 74t129 24.5q67 0 114.5 -22t71.5 -60.5t24 -89.5q0 -67 -38 -120
t-100 -102l-55 -43q-28 -21 -52 -41t-41 -40t-33 -47v-2h261l-23 -135h-467q7 52 22 92z" />
    <glyph glyph-name="three" unicode="3" 
d="M484.5 328q30.5 -32 30.5 -102q0 -74 -34 -128.5t-95.5 -83.5t-142.5 -29q-73 0 -119.5 23t-68 60t-21.5 80q0 20 4 37t8.5 27t5.5 12l156 20q-1 -2 -5.5 -12t-8.5 -27t-4 -37q0 -69 63 -69q25 0 46 15t33.5 44.5t12.5 71.5q0 82 -75 82h-40l21 111h41q47 0 71.5 28.5
t24.5 75.5q0 29 -14.5 47.5t-43.5 18.5q-37 0 -56.5 -25.5t-19.5 -72.5q0 -7 1 -11.5t1 -6.5l-149 18q0 2 -1 6.5t-1 11.5q0 57 28.5 100t83 66t129.5 23q69 0 116 -20t70.5 -55.5t23.5 -82.5q0 -57 -25 -94.5t-55.5 -56t-50.5 -22.5v-2q29 -9 59.5 -41z" />
    <glyph glyph-name="four" unicode="4" 
d="M292 132h-280l24 138l341 418h181l-75 -425h74l-22 -131h-75l-23 -132h-168zM360.5 506q4.5 20 6.5 27h-2q-3 -6 -15 -25t-26 -37l-120 -153q-15 -18 -29 -34t-19 -22v-2q5 0 20.5 1t37.5 1h102l35 199q5 25 9.5 45z" />
    <glyph glyph-name="five" unicode="5" 
d="M258 424h2q-2 0 13.5 9.5t40 17.5t56.5 8q40 0 76.5 -17.5t60 -58t23.5 -105.5q0 -91 -38 -157t-104 -101t-148 -35q-70 0 -113.5 22t-63 57.5t-19.5 76.5q0 15 2.5 27t4.5 18t3 8l158 24q-1 -2 -3 -8t-4.5 -18t-2.5 -27q0 -63 50 -63q28 0 52.5 18.5t39 55t14.5 88.5
q0 26 -8 45.5t-21.5 30t-30.5 10.5q-29 0 -49 -16t-29 -46l-140 28l106 372h390l-48 -129h-230z" />
    <glyph glyph-name="six" unicode="6" 
d="M420.5 518.5q1.5 7.5 1.5 15.5q0 56 -52 56q-33 0 -52 -15t-36 -43q-13 -22 -22 -50t-18 -76h2q18 23 55.5 40t84.5 17q39 0 75 -17t60.5 -57t24.5 -106q0 -79 -31 -147t-94 -109t-153 -41q-109 0 -160.5 70.5t-51.5 196.5q0 136 40.5 237.5t116 156.5t179.5 55
q110 0 148 -47t38 -101q0 -8 -1.5 -15.5t-2.5 -10.5l-154 -20q1 3 2.5 10.5zM331.5 129.5q21.5 25.5 31 62.5t9.5 73q0 38 -15 62t-47 24q-34 0 -55.5 -25.5t-31 -62.5t-9.5 -73q0 -38 15 -62t47 -24q34 0 55.5 25.5z" />
    <glyph glyph-name="seven" unicode="7" 
d="M215 306q74 143 163 250v2h-298l24 130h472l-22 -126q-36 -35 -84 -106t-80 -132q-33 -62 -66.5 -147.5t-57.5 -176.5h-172q47 163 121 306z" />
    <glyph glyph-name="eight" unicode="8" 
d="M474 350.5q20 -14.5 38 -48t18 -84.5q0 -76 -36.5 -128.5t-100 -78.5t-145.5 -26q-66 0 -115.5 20.5t-76 60.5t-26.5 98q0 72 30 117.5t63.5 65t56.5 24.5v2q0 -3 -21 13.5t-38 45.5t-17 72q0 67 33.5 111.5t91 65.5t133.5 21q66 0 113 -19.5t71 -55t24 -83.5
q0 -75 -40 -114.5t-88 -58.5v-2q12 -4 32 -18.5zM366.5 437.5q18.5 14.5 28 39.5t9.5 55t-14 47.5t-40 17.5q-24 0 -42.5 -14.5t-28 -39.5t-9.5 -55t14 -47.5t40 -17.5q24 0 42.5 14.5zM319 115q22 22 31.5 55t9.5 66q0 37 -15.5 59.5t-46.5 22.5q-34 0 -55.5 -22.5
t-31 -55.5t-9.5 -66q0 -37 15 -59t46 -22q34 0 56 22z" />
    <glyph glyph-name="nine" unicode="9" 
d="M308.5 248q-37.5 -17 -84.5 -17q-39 0 -75 16.5t-60.5 56t-24.5 105.5q0 79 31 146t94 107t153 40q109 0 160.5 -70.5t51.5 -196.5q0 -136 -40 -237.5t-115 -156.5t-179 -55q-77 0 -118.5 25.5t-55.5 59t-14 65.5q0 8 1.5 15.5t2.5 10.5l154 20q-1 -3 -2.5 -10.5
t-1.5 -15.5q0 -58 52 -58q32 0 51.5 16t36.5 44q13 22 22 51t18 79h-2q-18 -23 -55.5 -40zM353.5 367q21.5 24 31 59.5t9.5 71.5q0 38 -15 62t-47 24q-34 0 -55.5 -24.5t-31 -60.5t-9.5 -72q0 -38 15 -61t47 -23q34 0 55.5 24z" />
    <glyph glyph-name="colon" unicode=":" horiz-adv-x="282" 
d="M111 494h158l-29 -164h-158zM52 164h158l-29 -164h-158z" />
    <glyph glyph-name="semicolon" unicode=";" horiz-adv-x="282" 
d="M111 494h159l-30 -164h-158zM51.5 -78q19.5 26 26.5 61l3 17h-58l29 164h158l-30 -169q-11 -63 -44 -106.5t-86 -66.5l-48 60q30 14 49.5 40z" />
    <glyph glyph-name="less" unicode="&#x3c;" 
d="M44 363l520 211l-19 -112l-378 -155v-2l323 -155l-19 -104l-445 211z" />
    <glyph glyph-name="equal" unicode="=" 
d="M82 480h483l-19 -106h-482zM40 246h482l-18 -106h-482z" />
    <glyph glyph-name="greater" unicode="&#x3e;" 
d="M42 158l377 155v2l-323 155l19 104l445 -211l-18 -106l-520 -211z" />
    <glyph glyph-name="question" unicode="?" horiz-adv-x="550" 
d="M192 244q4 35 13 55.5t26 37.5t59 53l38 32q30 26 46 49t16 53q0 31 -17.5 46.5t-44.5 15.5q-32 0 -55 -22.5t-23 -79.5q0 -12 1 -21.5t1 -12.5l-150 20q0 3 -1 12.5t-1 21.5q0 55 27 100t80.5 71.5t130.5 26.5q76 0 124.5 -22t70 -59t21.5 -83q0 -40 -15.5 -72
t-37 -54.5t-49.5 -45.5l-52 -42q-36 -29 -51.5 -48t-18.5 -38l-2 -12h-138zM170 164h158l-30 -164h-158z" />
    <glyph glyph-name="at" unicode="@" horiz-adv-x="954" 
d="M731 -126q-42 -21 -110.5 -39t-155.5 -18q-108 0 -199.5 47.5t-146.5 140t-55 221.5q0 149 65 257t172.5 163.5t232.5 55.5q119 0 206.5 -47t134.5 -130t47 -189q0 -102 -40 -178.5t-104 -117t-136 -40.5q-51 0 -81 15t-41 35t-12 36h-2q-8 -18 -25 -36t-42 -30t-55 -12
q-34 0 -62 18t-45 56t-17 96q0 57 16 109t39.5 91.5t46.5 61.5q31 30 65 44t75 14q38 0 62.5 -18t30.5 -43h2l23 47h128l-92 -278q-5 -15 -10.5 -35t-5.5 -33q0 -17 10.5 -28.5t33.5 -11.5q31 0 64 27t55.5 80.5t22.5 130.5q0 83 -33.5 146.5t-98.5 99.5t-158 36
q-110 0 -194.5 -50.5t-131 -140t-46.5 -201.5q0 -108 42.5 -182t114 -110t158.5 -36q74 0 131 16t91 34t34 21l38 -71q0 -3 -42 -24zM555 334q0 26 -11.5 41t-29.5 15t-34 -8.5t-32 -27.5q-21 -24 -38.5 -68.5t-17.5 -93.5q0 -70 48 -70q23 0 43.5 19.5t30.5 52.5l41 127v13
z" />
    <glyph glyph-name="A" unicode="A" horiz-adv-x="622" 
d="M399 148h-209l-64 -148h-176l328 688h226l90 -688h-182zM366.5 531q-0.5 20 -0.5 27h-2q-3 -7 -10.5 -27t-15.5 -41l-89 -205h138l-19 205q-1 21 -1.5 41z" />
    <glyph glyph-name="B" unicode="B" horiz-adv-x="638" 
d="M145 688h274q95 0 151 -35t56 -111q0 -82 -44 -120t-98 -51v-2q26 -3 54 -19t48 -48.5t20 -81.5q0 -65 -31 -114.5t-93 -77.5t-152 -28h-306zM421 445.5q25 16.5 25 60.5q0 31 -18.5 43.5t-55.5 12.5h-81l-24 -133h81q48 0 73 16.5zM399.5 151.5q34.5 22.5 34.5 80.5
q0 40 -25.5 55.5t-72.5 15.5h-91l-31 -174h90q61 0 95.5 22.5z" />
    <glyph glyph-name="C" unicode="C" horiz-adv-x="648" 
d="M593 104.5q-35 -48.5 -101 -84.5t-162 -36q-100 0 -163.5 41.5t-92 109t-28.5 149.5q0 126 44.5 220.5t128 146t197.5 51.5q96 0 151 -36t75 -76.5t25 -68.5q3 -16 4 -26.5t1 -13.5l-155 -39q0 4 -1 16.5t-4 23.5q-7 30 -29.5 57.5t-80.5 27.5q-55 0 -95 -34.5t-61.5 -97
t-21.5 -143.5q0 -84 28.5 -127t91.5 -43q40 0 71 19t50.5 47t28.5 56l150 -44q-16 -47 -51 -95.5z" />
    <glyph glyph-name="D" unicode="D" horiz-adv-x="684" 
d="M145 688h247q148 0 217 -75t69 -203q0 -119 -45 -212t-131.5 -145.5t-207.5 -52.5h-270zM413.5 174.5q46.5 37.5 67.5 99.5t21 138q0 74 -33 106.5t-103 32.5h-76l-73 -414h77q73 0 119.5 37.5z" />
    <glyph glyph-name="E" unicode="E" horiz-adv-x="550" 
d="M145 688h459l-49 -135h-265l-20 -116h244l-24 -136h-244l-29 -164h273l2 -137h-468z" />
    <glyph glyph-name="F" unicode="F" horiz-adv-x="518" 
d="M145 688h439l-45 -135h-249l-23 -131h229l-24 -136h-229l-50 -286h-169z" />
    <glyph glyph-name="G" unicode="G" horiz-adv-x="684" 
d="M344 278l24 135h296l-56 -313q-11 -15 -41 -40.5t-91 -50t-148 -24.5q-99 0 -162 41.5t-91.5 109.5t-28.5 152q0 126 45.5 220t128 144t192.5 50q98 0 154.5 -34.5t78 -72.5t21.5 -49l-147 -63q0 6 -9.5 27t-35 40t-70.5 19q-52 0 -93 -31.5t-65 -93.5t-24 -149
q0 -91 32.5 -133t91.5 -42q33 0 56.5 8.5t36.5 18.5t13 12l21 119h-129z" />
    <glyph glyph-name="H" unicode="H" horiz-adv-x="682" 
d="M460 299h-215l-52 -299h-169l121 688h169l-44 -248h215l44 248h169l-121 -688h-169z" />
    <glyph glyph-name="I" unicode="I" horiz-adv-x="300" 
d="M147 688h169l-121 -688h-169z" />
    <glyph glyph-name="J" unicode="J" horiz-adv-x="530" 
d="M549 688l-83 -472q-16 -89 -50 -139.5t-85.5 -71.5t-124.5 -21q-102 0 -151 43t-49 127q0 26 6 49.5t12 38t8 18.5l144 38q-2 -4 -8 -19t-12 -38.5t-6 -48.5q0 -42 13.5 -60t46.5 -18q35 0 56 21.5t30 74.5l84 478h169z" />
    <glyph glyph-name="K" unicode="K" horiz-adv-x="636" 
d="M307 298l-74 -72l-40 -226h-169l121 688h169l-44 -252h2l240 252h198l-281 -272l159 -416h-176z" />
    <glyph glyph-name="L" unicode="L" horiz-adv-x="500" 
d="M145 688h169l-97 -551h243l2 -137h-438z" />
    <glyph glyph-name="M" unicode="M" horiz-adv-x="872" 
d="M684 490l12 64h-2l-24 -64l-186 -490h-184l-16 490l-2 64h-2q-1 -6 -3.5 -24t-6.5 -40l-84 -490h-160l121 688h274l7 -416q0 -23 -1 -49.5t-1 -36.5h2q3 10 10.5 36.5t15.5 49.5l160 416h274l-121 -688h-169z" />
    <glyph glyph-name="N" unicode="N" horiz-adv-x="680" 
d="M276 390q-6 21 -9.5 43.5t-4.5 28.5h-2q-1 -8 -4 -37t-8 -59l-64 -366h-160l121 688h193l112 -368q6 -21 9.5 -43.5t4.5 -28.5h2q1 8 4 37t8 59l60 344h160l-121 -688h-181z" />
    <glyph glyph-name="O" unicode="O" horiz-adv-x="706" 
d="M160.5 29q-63.5 44 -89 111t-25.5 144q0 127 45.5 221.5t129 145.5t195.5 51q106 0 169.5 -44t89 -111t25.5 -144q0 -127 -45.5 -221.5t-129 -145.5t-195.5 -51q-106 0 -169.5 44zM434.5 151.5q40.5 31.5 64 93.5t23.5 150q0 77 -26.5 124.5t-93.5 47.5
q-50 0 -90.5 -31.5t-64 -93.5t-23.5 -150q0 -77 26.5 -124.5t93.5 -47.5q50 0 90.5 31.5z" />
    <glyph glyph-name="P" unicode="P" horiz-adv-x="620" 
d="M145 688h289q51 0 96 -15.5t75.5 -55t30.5 -105.5q0 -72 -30 -126t-91 -84t-151 -30h-123l-48 -272h-169zM431 423q27 21 27 71q0 34 -19.5 49t-56.5 15h-93l-27 -156h92q50 0 77 21z" />
    <glyph glyph-name="Q" unicode="Q" horiz-adv-x="706" 
d="M447 -66.5q-19 29.5 -31 60.5q-13 -4 -41 -6.5t-45 -2.5q-106 0 -169.5 44t-89 111t-25.5 144q0 127 45.5 221.5t129 145.5t195.5 51q106 0 169.5 -44t89 -111t25.5 -144q0 -138 -46 -224t-106 -128q4 -16 25 -44t37 -41l-128 -74q-16 12 -35 41.5zM453.5 245.5
q18.5 -26.5 24.5 -43.5q0 -4 12 22t22 69t10 102q0 77 -26.5 124.5t-93.5 47.5q-50 0 -90.5 -31.5t-64 -93.5t-23.5 -150q0 -77 26.5 -124.5t93.5 -47.5q8 0 15 1t9 1q-7 23 -28.5 52t-37.5 42l118 68q15 -12 33.5 -38.5z" />
    <glyph glyph-name="R" unicode="R" horiz-adv-x="640" 
d="M310 288h-67l-50 -288h-169l121 688h291q90 0 147 -39.5t57 -130.5q0 -61 -25 -107t-64 -72.5t-81 -32.5l118 -306h-176zM436.5 436.5q23.5 19.5 23.5 63.5q0 31 -17 45t-51 14h-102l-25 -142h103q45 0 68.5 19.5z" />
    <glyph glyph-name="S" unicode="S" horiz-adv-x="598" 
d="M87 494q0 62 30.5 109t89.5 73t141 26q76 0 130.5 -27t84.5 -60t39 -56l-120 -75q-13 28 -36 48t-49.5 30.5t-52.5 10.5q-39 0 -62 -16t-23 -45q0 -28 18 -43.5t57 -28.5l52 -18q41 -15 78 -33t74 -61t37 -108q0 -71 -34.5 -124.5t-98 -82t-146.5 -28.5q-79 0 -138.5 28
t-96 70.5t-53.5 88.5l137 62q14 -39 39.5 -65t56 -38.5t61.5 -12.5q44 0 71 20t27 55q0 32 -19.5 49.5t-54.5 29.5l-52 18q-187 66 -187 204z" />
    <glyph glyph-name="T" unicode="T" horiz-adv-x="536" 
d="M240 553h-182l24 135h548l-51 -135h-170l-97 -553h-169z" />
    <glyph glyph-name="U" unicode="U" horiz-adv-x="670" 
d="M688 688l-76 -432q-25 -142 -105 -206.5t-213 -64.5q-122 0 -179 55t-57 148q0 16 2.5 35.5t5.5 36.5l75 428h169l-74 -418q-4 -21 -4 -51q0 -46 20 -68.5t68 -22.5q51 0 81 32.5t43 105.5l75 422h169z" />
    <glyph glyph-name="V" unicode="V" horiz-adv-x="618" 
d="M76 688h182l32 -416q3 -30 4.5 -74t1.5 -58h2q5 14 21.5 58t28.5 74l176 416h176l-318 -688h-226z" />
    <glyph glyph-name="W" unicode="W" horiz-adv-x="900" 
d="M489 440v44h-2q-1 -4 -5 -16.5t-9 -27.5l-161 -440h-186l-46 688h168l16 -408q1 -19 1 -35.5v-22.5h2q1 6 6 24.5t11 33.5l154 408h186l16 -408q1 -19 1 -35.5v-22.5h2q1 6 6 24.5t11 33.5l154 408h156l-282 -688h-186z" />
    <glyph glyph-name="X" unicode="X" horiz-adv-x="638" 
d="M348 188q-6 19 -11.5 43t-6.5 31h-2q-4 -7 -16.5 -31t-25.5 -43l-124 -188h-198l262 360l-128 328h186l62 -188q6 -19 8.5 -33.5t2.5 -18.5h2q1 4 6.5 18.5t18.5 33.5l124 188h198l-244 -328l134 -360h-186z" />
    <glyph glyph-name="Y" unicode="Y" horiz-adv-x="590" 
d="M219 285l-149 403h176l62 -196q5 -16 10.5 -39.5t6.5 -30.5h2q4 7 17 30.5t24 39.5l132 196h180l-292 -403l-50 -285h-169z" />
    <glyph glyph-name="Z" unicode="Z" horiz-adv-x="578" 
d="M11 132l342 374q16 17 28.5 29t16.5 16v2q-5 0 -20 -1t-38 -1h-243l24 137h505l-23 -132l-342 -374q-16 -17 -28.5 -29t-16.5 -16v-2q5 0 20 1t38 1h267l-24 -137h-529z" />
    <glyph glyph-name="bracketleft" unicode="[" horiz-adv-x="365" 
d="M175 748h270l-36 -97h-114l-131 -746h116v-97h-271z" />
    <glyph glyph-name="backslash" unicode="\" horiz-adv-x="420" 
d="M124 700h112l94 -700h-112z" />
    <glyph glyph-name="bracketright" unicode="]" horiz-adv-x="365" 
d="M-31 -95h114l131 746h-116v97h271l-166 -940h-270z" />
    <glyph glyph-name="asciicircum" unicode="^" 
d="M350 590h-2l-160 -248h-138l262 376h108l124 -376h-124z" />
    <glyph glyph-name="underscore" unicode="_" 
d="M-60 -86h578l-16 -82h-578z" />
    <glyph glyph-name="grave" unicode="`" 
d="M244 692h158l38 -140h-124z" />
    <glyph glyph-name="a" unicode="a" horiz-adv-x="579" 
d="M328 56h-2q0 -3 -17 -21t-47 -33.5t-72 -15.5q-48 0 -83 23t-54 69t-19 113q0 94 32 166t87.5 111.5t122.5 39.5q45 0 71 -16.5t36 -34.5t10 -23h2l11 60h164l-87 -494h-165zM367.5 280.5q2.5 15.5 2.5 33.5q0 27 -10.5 50t-43.5 23q-36 0 -60.5 -27.5t-36.5 -70
t-12 -89.5q0 -46 14 -70.5t47 -24.5q39 0 59.5 32.5t29.5 83.5l7 40q1 4 3.5 19.5z" />
    <glyph glyph-name="b" unicode="b" horiz-adv-x="585" 
d="M144 693h167l-45 -255h2q0 3 17 21t48 33.5t73 15.5q73 0 114.5 -52t41.5 -153q0 -94 -32 -166t-87 -111.5t-122 -39.5q-45 0 -72 16.5t-38 34.5t-11 23h-2l-11 -60h-165zM224.5 213.5q-2.5 -15.5 -2.5 -33.5q0 -73 57 -73q36 0 61 27.5t37 70t12 89.5q0 46 -14 70.5
t-48 24.5q-40 0 -61.5 -33t-30.5 -83l-7 -40q-1 -4 -3.5 -19.5z" />
    <glyph glyph-name="c" unicode="c" horiz-adv-x="534" 
d="M377.5 311q0.5 5 0.5 12q0 11 -4.5 26.5t-19 29t-42.5 13.5q-31 0 -56.5 -22t-40 -64.5t-14.5 -99.5q0 -51 18 -76.5t51 -25.5q35 0 57.5 20.5t35.5 63.5l144 -21q-13 -49 -43.5 -89.5t-82.5 -66t-127 -25.5q-74 0 -123.5 27t-74 74.5t-24.5 110.5q0 95 35 165
t99.5 107.5t151.5 37.5q79 0 125 -29.5t63.5 -67.5t17.5 -69q0 -7 -0.5 -12t-0.5 -6l-146 -19q0 1 0.5 6z" />
    <glyph glyph-name="d" unicode="d" horiz-adv-x="585" 
d="M332 56h-2q0 -3 -18 -21t-49 -33.5t-73 -15.5q-73 0 -114.5 52t-41.5 153q0 94 32 166t87 111.5t122 39.5q45 0 71.5 -16.5t37.5 -34.5t11 -23h2l45 259h167l-122 -693h-165zM371.5 280.5q2.5 15.5 2.5 33.5q0 73 -57 73q-36 0 -61 -27.5t-37 -70t-12 -89.5
q0 -46 14 -70.5t48 -24.5q40 0 61.5 33t30.5 83l7 40q1 4 3.5 19.5z" />
    <glyph glyph-name="e" unicode="e" horiz-adv-x="526" 
d="M391 17.5q-62 -31.5 -143 -31.5q-58 0 -106.5 22.5t-79 71.5t-30.5 124q0 95 38 163.5t102.5 104.5t141.5 36q73 0 119 -20.5t66.5 -54.5t20.5 -77q0 -53 -34 -85.5t-78 -48.5q-32 -12 -76 -18t-90 -6q-17 0 -29.5 1t-16.5 2q0 -2 -1 -8t-1 -15q0 -33 15 -54.5t51 -21.5
q67 0 96 50l132 -44q-35 -59 -97 -90.5zM306 410q-23 0 -44 -13t-36 -38.5t-20 -61.5l28 -1q53 0 89.5 16t36.5 50q0 48 -54 48z" />
    <glyph glyph-name="f" unicode="f" horiz-adv-x="350" 
d="M101 381h-73l20 113h73l11 62q14 78 57.5 114.5t126.5 36.5q42 0 74.5 -9t51.5 -20l-40 -102h-2q-2 1 -9 5t-19 7.5t-24 3.5q-22 0 -34.5 -11.5t-17.5 -40.5l-8 -46h100l-20 -113h-100l-84 -481h-167z" />
    <glyph glyph-name="g" unicode="g" horiz-adv-x="584" 
d="M334 84q-14 -21 -48.5 -46.5t-95.5 -25.5q-73 0 -114.5 51t-41.5 146q0 90 33.5 158t88.5 104.5t118 36.5q46 0 73.5 -16.5t38.5 -34.5t11 -23h2l11 60h165l-83 -472q-13 -74 -46 -120t-89.5 -67.5t-142.5 -21.5q-79 0 -125.5 22t-64.5 54t-18 67l154 24
q0 -27 14.5 -44.5t47.5 -17.5q32 0 47.5 6t25.5 16q9 9 15.5 22t10.5 38l15 84h-2zM372.5 281q2.5 16 2.5 33q0 29 -13 52t-46 23q-37 0 -61.5 -26.5t-36 -64.5t-11.5 -73q0 -48 15 -71t49 -23q36 0 60.5 27t34.5 86l3 17q1 4 3.5 20z" />
    <glyph glyph-name="h" unicode="h" horiz-adv-x="590" 
d="M374 284q5 30 5 42q0 21 -11.5 38t-43.5 17q-34 0 -56 -27t-29 -70l-50 -284h-167l122 693h167l-46 -261h2q17 25 53.5 50.5t95.5 25.5q67 0 102.5 -36.5t35.5 -97.5q0 -18 -8 -62l-55 -312h-167z" />
    <glyph glyph-name="i" unicode="i" horiz-adv-x="285" 
d="M144 693h167l-24 -133h-167zM109 494h167l-87 -494h-167z" />
    <glyph glyph-name="j" unicode="j" horiz-adv-x="285" 
d="M144 693h167l-24 -133h-167zM-64 -66q5 -3 14 -5t17 -2q22 0 34 11q13 13 19 50l89 506h167l-92 -524q-6 -36 -21 -65.5t-37 -50.5q-22 -20 -54 -30t-68 -10q-32 0 -62 7.5t-46 16.5l38 96h2z" />
    <glyph glyph-name="k" unicode="k" horiz-adv-x="542" 
d="M283 216l-67 -60l-27 -156h-167l122 693h167l-49 -275q-6 -33 -12 -58t-8 -33h2q4 5 19.5 23.5t34.5 37.5l108 106h190l-188 -167l108 -327h-172z" />
    <glyph glyph-name="l" unicode="l" horiz-adv-x="314" 
d="M280.5 2.5q-17.5 -5.5 -48 -11t-66.5 -5.5q-61 0 -91.5 29.5t-30.5 84.5q0 17 3.5 42.5t6.5 39.5l90 511h167l-89 -505q-2 -10 -4 -22.5t-2 -21.5q0 -19 7 -27.5t25 -8.5q15 0 27 3.5t15 4.5h2l10 -106q-4 -2 -21.5 -7.5z" />
    <glyph glyph-name="m" unicode="m" horiz-adv-x="874" 
d="M658 284q5 30 5 42q0 23 -11 39t-37 16q-30 0 -52 -23.5t-31 -73.5l-50 -284h-167l50 284q5 30 5 42q0 23 -11 39t-37 16q-30 0 -52 -23.5t-31 -73.5l-50 -284h-167l87 494h165l-11 -62h2q19 27 55 51.5t94 24.5q60 0 86.5 -25.5t35.5 -52.5h2q24 30 65.5 54t102.5 24
q66 0 99 -37.5t33 -96.5q0 -18 -8 -62l-55 -312h-167z" />
    <glyph glyph-name="n" unicode="n" horiz-adv-x="590" 
d="M374 284q5 30 5 42q0 21 -11.5 38t-43.5 17q-34 0 -56 -27t-29 -70l-50 -284h-167l87 494h165l-11 -62h2q17 25 54.5 50.5t96.5 25.5q67 0 102.5 -36.5t35.5 -97.5q0 -18 -8 -62l-55 -312h-167z" />
    <glyph glyph-name="o" unicode="o" horiz-adv-x="568" 
d="M129.5 15q-50.5 29 -74 77.5t-23.5 107.5q0 88 33 157.5t99 110t160 40.5q76 0 126.5 -29t74 -77.5t23.5 -107.5q0 -88 -33 -157.5t-99 -110t-160 -40.5q-76 0 -126.5 29zM331 132.5q24 28.5 34.5 70t10.5 81.5q0 51 -15 78.5t-51 27.5q-37 0 -61 -28t-34.5 -69
t-10.5 -81q0 -52 15 -80t51 -28q37 0 61 28.5z" />
    <glyph glyph-name="p" unicode="p" horiz-adv-x="585" 
d="M109 494h165l-10 -56h2q0 3 18 21t49 33.5t73 15.5q73 0 114.5 -52t41.5 -153q0 -94 -32 -166t-87 -111.5t-122 -39.5q-45 0 -71.5 16.5t-37 34.5t-10.5 23h-2l-42 -236h-167zM224.5 213.5q-2.5 -15.5 -2.5 -33.5q0 -73 57 -73q36 0 61 27.5t37 70t12 89.5q0 46 -14 70.5
t-48 24.5q-40 0 -61.5 -33t-30.5 -83l-7 -40q-1 -4 -3.5 -19.5z" />
    <glyph glyph-name="q" unicode="q" horiz-adv-x="585" 
d="M330 56h-2q0 -3 -17 -21t-48 -33.5t-73 -15.5q-73 0 -114.5 52t-41.5 153q0 94 32 166t87 111.5t122 39.5q45 0 72 -16.5t38.5 -35t11.5 -22.5h2l10 60h165l-118 -670h-167zM371.5 280.5q2.5 15.5 2.5 33.5q0 73 -57 73q-36 0 -61 -27.5t-37 -70t-12 -89.5
q0 -46 14 -70.5t48 -24.5q40 0 61.5 33t30.5 83l7 40q1 4 3.5 19.5z" />
    <glyph glyph-name="r" unicode="r" horiz-adv-x="400" 
d="M109 494h165l-14 -78h2q20 45 49.5 67t72.5 22q18 0 31.5 -4t20 -8.5t8.5 -6.5l-48 -143h-2q-2 1 -9 5t-19.5 8t-27.5 4q-35 0 -64.5 -24.5t-41.5 -93.5l-43 -242h-167z" />
    <glyph glyph-name="s" unicode="s" horiz-adv-x="482" 
d="M341 374.5q-15 13.5 -34.5 21.5t-38.5 8q-29 0 -42.5 -8t-13.5 -24t14.5 -26.5t47.5 -21.5l42 -14q136 -45 136 -152q0 -51 -29 -90.5t-82 -61t-121 -21.5q-65 0 -111.5 21.5t-73.5 54.5t-37 69l136 36q10 -33 36 -52.5t58 -19.5q31 0 49.5 12t18.5 30q0 12 -6 20
t-19.5 15t-38.5 15l-42 14q-134 45 -134 150q0 50 26 86t74 55t114 19q60 0 103.5 -19.5t67.5 -44.5t31 -42l-110 -57q-6 14 -21 27.5z" />
    <glyph glyph-name="t" unicode="t" horiz-adv-x="380" 
d="M311 4q-17 -6 -47.5 -12t-69.5 -6q-64 0 -95 30t-31 84q0 12 3 37t7 45l35 200h-75l20 112h75l20 114l173 44h2l-28 -158h108l-20 -112h-108l-36 -206q-2 -8 -3 -17t-1 -15q0 -18 8 -27t26 -9q15 0 28.5 5t17.5 7h2l10 -108q-4 -2 -21 -8z" />
    <glyph glyph-name="u" unicode="u" horiz-adv-x="571" 
d="M321 62h-2q-18 -26 -52.5 -51t-92.5 -25q-66 0 -100 36t-34 98q0 9 2.5 29t4.5 33l55 312h167l-50 -284q-5 -30 -5 -44q0 -20 8.5 -36t39.5 -16q36 0 55.5 25t27.5 71l50 284h167l-87 -494h-165z" />
    <glyph glyph-name="v" unicode="v" horiz-adv-x="484" 
d="M36 494h168l22 -232q3 -35 4.5 -64.5t1.5 -37.5h2q3 9 12 32t22 52l114 250h162l-246 -494h-190z" />
    <glyph glyph-name="w" unicode="w" horiz-adv-x="746" 
d="M394 293q-1 13 -0.5 22.5t0.5 12.5h-2l-13 -36l-109 -292h-178l-44 494h162l8 -203q2 -58 2 -75v-43h2q4 12 16 47t26 72l77 202h165l8 -203q2 -58 2 -75v-43h2q4 12 16 47t26 72l77 202h157l-212 -494h-178z" />
    <glyph glyph-name="x" unicode="x" horiz-adv-x="517" 
d="M266 122q-5 20 -9 36.5t-5 22.5h-2q-3 -6 -12 -22.5t-22 -37.5l-79 -121h-182l188 259l-92 235h177l33 -105q5 -18 9 -34t5 -22h1q3 5 12 20.5t21 35.5l69 105h181l-174 -235l98 -259h-178z" />
    <glyph glyph-name="y" unicode="y" horiz-adv-x="490" 
d="M42 494h168l22 -232q4 -35 5 -64.5t1 -37.5h2q3 8 13 34t21 50l114 250h162l-270 -542q-20 -41 -45 -70.5t-67 -48.5t-104 -19q-36 0 -64 7.5t-44 16.5t-16 10l54 104h2q4 -4 18.5 -9t31.5 -5q21 0 35.5 9.5t24.5 32.5l8 20z" />
    <glyph glyph-name="z" unicode="z" horiz-adv-x="460" 
d="M0 90l228 248q11 13 25.5 25.5t18.5 16.5v2q-5 0 -21.5 -0.5t-41.5 -0.5h-147l20 113h394l-18 -102l-215 -235q-11 -12 -25.5 -25t-18.5 -17v-2q5 0 21.5 1t39.5 1h162l-19 -115h-419z" />
    <glyph glyph-name="braceleft" unicode="{" horiz-adv-x="365" 
d="M66.5 -159.5q-29.5 31.5 -29.5 78.5q0 29 9 54.5t24 60.5l26 61q12 29 18 49t6 35q0 28 -18 42.5t-52 14.5h-20l15 84h20q46 0 71.5 24t25.5 74q0 30 -5 72q-6 58 -6 98q0 51 20 86.5t70.5 57t139.5 26.5l37 2l5 -74l-41 -6q-35 -5 -53 -16t-24 -25.5t-6 -36.5
q0 -35 6 -95q1 -11 3 -36.5t2 -44.5q0 -54 -35.5 -93.5t-103.5 -53.5v-2q96 -14 96 -99q0 -19 -9.5 -46t-21.5 -56l-21 -48q-15 -35 -23 -58t-8 -45q0 -13 3.5 -22t15.5 -16.5t35 -10.5l42 -6l-18 -73l-81 6q-85 6 -114.5 37.5z" />
    <glyph glyph-name="bar" unicode="|" horiz-adv-x="332" 
d="M195 747h128l-167 -940h-128z" />
    <glyph glyph-name="braceright" unicode="}" horiz-adv-x="365" 
d="M-40 -130l41 6q35 5 53 16t24 25.5t6 36.5q0 35 -6 95q-1 11 -3 36.5t-2 44.5q0 54 35.5 93.5t103.5 53.5v2q-96 14 -96 99q0 19 9.5 46t21.5 56l21 48q15 35 23 58t8 45q0 13 -3.5 22t-15.5 16.5t-35 10.5l-42 6l18 73l81 -6q85 -6 114.5 -37.5t29.5 -78.5
q0 -29 -9 -54.5t-24 -60.5l-26 -61q-12 -29 -18 -49t-6 -35q0 -28 18 -42.5t52 -14.5h20l-15 -84h-20q-46 0 -71.5 -24t-25.5 -74q0 -30 5 -72q6 -58 6 -98q0 -51 -20 -86.5t-70.5 -57t-139.5 -26.5l-37 -2z" />
    <glyph glyph-name="asciitilde" unicode="~" 
d="M470 253q-42 -31 -106 -31q-35 0 -58.5 11.5t-47.5 31.5q-16 14 -29 21.5t-29 7.5q-24 0 -43.5 -14.5t-32 -32t-12.5 -19.5l-70 60q30 48 72 79t106 31q35 0 58.5 -11.5t47.5 -31.5q16 -14 29 -21.5t29 -7.5q24 0 43.5 14.5t32 32t12.5 19.5l70 -60q-30 -48 -72 -79z" />
    <glyph glyph-name="uni00A0" unicode="&#xa0;" horiz-adv-x="242" 
 />
    <glyph glyph-name="exclamdown" unicode="&#xa1;" horiz-adv-x="300" 
d="M120 494h158l-30 -164h-158zM104 268h110l-50 -462h-172z" />
    <glyph glyph-name="cent" unicode="&#xa2;" 
d="M214 90q-71 19 -106.5 74t-35.5 136q0 89 29 155t83.5 104.5t128.5 45.5l13 67h104l-14 -71q52 -13 81 -40.5t39 -54t10 -44.5q0 -13 -1 -19t-1 -7q-19 -5 -62 -13t-62 -12q0 1 1 5t1 10q0 43 -28 59l-56 -289q26 10 43 31.5t25 50.5l124 -28q-10 -37 -35.5 -73
t-70.5 -62.5t-108 -32.5l-16 -84h-104zM256 460q-17 -25 -27.5 -65.5t-10.5 -90.5q0 -64 22 -86l52 272q-19 -5 -36 -30z" />
    <glyph glyph-name="sterling" unicode="&#xa3;" 
d="M543 186.5q2 -12.5 2 -26.5q0 -51 -20.5 -91t-60.5 -62t-96 -22q-37 0 -69 13t-51.5 28t-22.5 20q-22 -27 -55.5 -42.5t-73.5 -15.5q-44 0 -73 27t-29 81q0 37 17 63.5t45.5 40.5t63.5 14q37 0 52 -8.5t16 -8.5q6 11 9 29t3 34q0 14 -2 33t-7 32h-120l18 100h84
q-1 6 -2.5 26t-1.5 35q0 70 30 118.5t83 73t120 24.5q59 0 98 -19.5t57.5 -50t18.5 -64.5q0 -20 -4 -36t-6 -20l-133 -21q2 5 5.5 20.5t3.5 30.5q0 24 -11.5 37.5t-34.5 13.5q-33 0 -49.5 -26.5t-16.5 -72.5q0 -17 2 -39.5t3 -29.5h145l-19 -100h-119q1 -5 2 -20.5t1 -35.5
q0 -30 -9 -62t-28 -60l16 -11q11 -8 25.5 -14t30.5 -6q24 0 37.5 17t13.5 52q0 14 -1 24t-2 13l112 -19q1 -4 3 -16.5zM135.5 129q-12.5 7 -26.5 7q-15 0 -27 -9t-12 -25q0 -15 8.5 -22.5t21.5 -7.5q15 0 30.5 9t23.5 31q-6 10 -18.5 17z" />
    <glyph glyph-name="currency" unicode="&#xa4;" 
d="M364.5 163.5q-10.5 -5.5 -27.5 -9.5t-39 -4t-39 4t-27.5 9.5t-13.5 8.5l-62 -62l-70 70l62 62q-3 3 -8.5 13.5t-9.5 27.5t-4 39t4 39t9.5 27.5t8.5 13.5l-62 62l70 70l62 -62q3 3 13.5 8.5t27.5 9.5t39 4t39 -4t27.5 -9.5t13.5 -8.5l62 62l70 -70l-62 -62q3 -3 8.5 -13.5
t9.5 -27.5t4 -39t-4 -39t-9.5 -27.5t-8.5 -13.5l62 -62l-70 -70l-62 62q-3 -3 -13.5 -8.5zM367.5 362.5q-10.5 18.5 -29 29t-40.5 10.5t-40.5 -10.5t-29 -29t-10.5 -40.5t10.5 -40.5t29 -29t40.5 -10.5t40.5 10.5t29 29t10.5 40.5t-10.5 40.5z" />
    <glyph glyph-name="yen" unicode="&#xa5;" 
d="M325 0h-170l26 154h-151l19 100h150l2 40l-7 28h-134l19 100h89l-68 266h172l38 -206q3 -12 4.5 -30t1.5 -24h2q1 4 6 16.5t10 21.5l118 222h172l-163 -266h89l-18 -100h-133l-17 -28l-12 -40h150l-18 -100h-151z" />
    <glyph glyph-name="brokenbar" unicode="&#xa6;" horiz-adv-x="332" 
d="M195 747h128l-66 -371h-128zM94 178h128l-66 -371h-128z" />
    <glyph glyph-name="section" unicode="&#xa7;" 
d="M101.5 140q-39.5 41 -39.5 100q0 68 38 108t79 60q-5 3 -15.5 17t-20 39t-9.5 58q0 49 24.5 90t74 65.5t119.5 24.5q65 0 107.5 -24t60.5 -49.5t24 -40.5l-106 -60q-12 30 -37.5 49.5t-56.5 19.5q-21 0 -36 -7.5t-23 -19.5t-8 -25q0 -21 13 -35.5t41 -29.5
q8 -4 59.5 -29.5t87.5 -69t36 -95.5q0 -61 -34 -102.5t-82 -65.5q0 2 13.5 -14.5t24.5 -42.5t11 -58q0 -48 -25 -94t-76.5 -75.5t-125.5 -29.5q-71 0 -116.5 30t-67 65.5t-24.5 54.5l114 48q12 -42 41 -65.5t64 -23.5q18 0 35 9t27.5 23.5t10.5 30.5q0 24 -13.5 39.5
t-43.5 30.5l-46 23q-60 30 -99.5 71zM344 176.5q14 10.5 25 28t11 39.5t-8.5 37.5t-20 24.5t-29.5 18l-68 38q-8 -2 -22 -12.5t-25 -28t-11 -39.5t8.5 -37.5t20 -24.5t29.5 -18l68 -38q8 2 22 12.5z" />
    <glyph glyph-name="dieresis" unicode="&#xa8;" 
d="M217 692h114l-25 -140h-114zM383 692h114l-25 -140h-114z" />
    <glyph glyph-name="copyright" unicode="&#xa9;" horiz-adv-x="820" 
d="M750.5 167q-49.5 -84 -133.5 -133.5t-183 -49.5t-183 49.5t-133.5 133.5t-49.5 183t49.5 183t133.5 133.5t183 49.5t183 -49.5t133.5 -133.5t49.5 -183t-49.5 -183zM583 90.5q68 40.5 107.5 109t39.5 150.5t-39.5 150.5t-107.5 109t-149 40.5t-149 -40.5t-107.5 -109
t-39.5 -150.5t39.5 -150.5t107.5 -109t149 -40.5t149 40.5zM600 209q-20 -32 -60 -55.5t-100 -23.5q-65 0 -112.5 26.5t-73.5 76.5t-26 117t26.5 117t74.5 76.5t111 26.5q58 0 99 -23t62 -56.5t23 -62.5l-106 -24q-1 16 -9 33t-25 29t-42 12q-41 0 -63.5 -33.5t-22.5 -94.5
q0 -62 22 -95t64 -33q37 0 53.5 21t24.5 55l108 -26q-8 -31 -28 -63z" />
    <glyph glyph-name="ordfeminine" unicode="&#xaa;" horiz-adv-x="438" 
d="M415 340q-22 -8 -55 -8q-83 0 -87 50h-2q-34 -50 -107 -50q-102 0 -102 98q0 55 29 80.5t67 37.5q18 6 44 11t33 6l29 5l41 8l1 6q2 12 2 18q0 10 -8.5 17t-29.5 7q-26 0 -38.5 -10t-17.5 -30l-110 16q16 50 58 76t126 26q83 0 117.5 -27t34.5 -75q0 -10 -4 -30l-18 -98
q-6 -30 -6 -42q0 -7 3.5 -10.5t8.5 -3.5q4 0 8.5 1.5t5.5 2.5h2l6 -67q-9 -7 -31 -15zM293 516l-29 -6q-19 -4 -32 -9t-22.5 -16.5t-9.5 -30.5q0 -38 34 -38q18 0 32.5 10.5t17.5 27.5l11 62h-2zM41 280h378l-13 -71h-378z" />
    <glyph glyph-name="guillemotleft" unicode="&#xab;" horiz-adv-x="494" 
d="M80 145.5q-15 61.5 -40 101.5q37 39 71.5 99.5t57.5 116.5l102 -35q-18 -48 -47 -98t-60 -82v-2q18 -33 28.5 -87t10.5 -101l-107 -26q-1 52 -16 113.5zM292 145.5q-15 61.5 -40 101.5q37 39 71.5 99.5t57.5 116.5l102 -35q-18 -48 -47 -98t-60 -82v-2q18 -33 28.5 -87
t10.5 -101l-107 -26q-1 52 -16 113.5z" />
    <glyph glyph-name="logicalnot" unicode="&#xac;" 
d="M410 257h-370l18 106h482l-54 -312h-112z" />
    <glyph glyph-name="uni00AD" unicode="&#xad;" horiz-adv-x="326" 
d="M50 308h268l-38 -112h-268z" />
    <glyph glyph-name="registered" unicode="&#xae;" horiz-adv-x="744" 
d="M704 344.5q-44 -74.5 -118.5 -118.5t-163.5 -44t-163.5 44t-118.5 118.5t-44 163.5t44 163.5t118.5 118.5t163.5 44t163.5 -44t118.5 -118.5t44 -163.5t-44 -163.5zM554 279.5q60 35.5 95 96t35 132.5t-35 132.5t-95 96t-132 35.5t-132 -35.5t-95 -96t-35 -132.5
t35 -132.5t95 -96t132 -35.5t132 35.5zM408 472h-29l-25 -144h-96l63 360h161q51 0 79.5 -23t28.5 -73q0 -37 -14.5 -61.5t-34.5 -36.5t-39 -16l60 -150h-100zM479.5 552.5q14.5 10.5 14.5 34.5q0 31 -39 31h-52l-13 -76h50q25 0 39.5 10.5z" />
    <glyph glyph-name="macron" unicode="&#xaf;" 
d="M188 670h322l-16 -94h-322z" />
    <glyph glyph-name="degree" unicode="&#xb0;" horiz-adv-x="394" 
d="M401.5 452q-22.5 -38 -60.5 -60.5t-84 -22.5t-84 22.5t-60.5 60.5t-22.5 84t22.5 84t60.5 60.5t84 22.5t84 -22.5t60.5 -60.5t22.5 -84t-22.5 -84zM319.5 572.5q-9.5 16.5 -26 26t-36.5 9.5t-36.5 -9.5t-26 -26t-9.5 -36.5q0 -31 20.5 -51.5t51.5 -20.5q20 0 36.5 9.5
t26 26t9.5 36.5t-9.5 36.5z" />
    <glyph glyph-name="plusminus" unicode="&#xb1;" 
d="M328 143h-113l30 165h-185l18 108h185l29 166h113l-30 -166h185l-18 -108h-185zM23 106h482l-18 -106h-482z" />
    <glyph glyph-name="uni00B2" unicode="&#xb2;" horiz-adv-x="457" 
d="M127.5 604.5q44.5 50.5 108.5 89.5l23 14q29 18 44 30.5t21 24.5t6 28q0 19 -10 30.5t-30 11.5q-27 0 -41 -18.5t-14 -46.5q0 -11 1 -19.5t2 -10.5l-115 10q-1 2 -2 8.5t-1 16.5q0 46 25.5 77t67.5 46t93 15q72 0 111.5 -29.5t39.5 -80.5q0 -35 -17 -62.5t-39 -44.5
t-57 -39l-22 -14q-26 -17 -47 -33t-28 -31v-2h178l-16 -95h-336q10 74 54.5 124.5z" />
    <glyph glyph-name="uni00B3" unicode="&#xb3;" horiz-adv-x="457" 
d="M384.5 692.5q15.5 -8.5 28 -28t12.5 -50.5q0 -42 -23 -75.5t-66.5 -53t-102.5 -19.5q-70 0 -106 27t-36 73q0 16 3.5 29t5.5 16l112 18q-2 -4 -6 -16.5t-4 -25.5q0 -43 38 -43q26 0 42 19t16 56q0 24 -11.5 36t-33.5 12h-27l13 71h27q27 0 46.5 14t19.5 43q0 18 -10 29.5
t-30 11.5q-24 0 -38 -15.5t-14 -42.5v-13l-101 11q0 2 -1 7t-1 13q0 32 18.5 58t56.5 41.5t93 15.5q70 0 106 -27.5t36 -72.5q0 -37 -18 -60t-38.5 -33.5t-32.5 -12.5v-2q11 -2 26.5 -10.5z" />
    <glyph glyph-name="acute" unicode="&#xb4;" 
d="M301 692h161l-114 -140h-128z" />
    <glyph glyph-name="uni00B5" unicode="&#xb5;" horiz-adv-x="580" 
d="M326 64h-2q-17 -23 -52 -43.5t-89 -20.5l-32 -182h-166l117 676h167l-50 -287q-1 -3 -3 -17t-2 -25q0 -18 9.5 -32t37.5 -14q37 0 58.5 25t29.5 69l50 281h167l-87 -494h-165z" />
    <glyph glyph-name="paragraph" unicode="&#xb6;" 
d="M253 264q-50 0 -90.5 21.5t-63.5 63t-23 99.5q0 120 66 180t186 60h94l-156 -878h-94zM484 688h94l-156 -878h-94z" />
    <glyph glyph-name="periodcentered" unicode="&#xb7;" horiz-adv-x="282" 
d="M80 338h158l-30 -164h-158z" />
    <glyph glyph-name="cedilla" unicode="&#xb8;" 
d="M218 0h128l-70 -142h-160z" />
    <glyph glyph-name="uni00B9" unicode="&#xb9;" horiz-adv-x="350" 
d="M194 769h-2q-13 -11 -33.5 -22t-33.5 -15l-27 81q32 8 72 33.5t58 51.5h116l-74 -419h-127z" />
    <glyph glyph-name="ordmasculine" unicode="&#xba;" horiz-adv-x="438" 
d="M430.5 429q-27.5 -49 -77 -74.5t-112.5 -25.5q-79 0 -122 42t-43 117q0 67 28 115.5t78 74t113 25.5q78 0 120.5 -41.5t42.5 -116.5q0 -67 -27.5 -116zM291.5 433q17.5 14 27.5 41t10 66q0 37 -12 55.5t-34 18.5t-39.5 -14t-27.5 -41t-10 -66q0 -38 12 -56t34 -18
t39.5 14zM43 280h366l-13 -71h-366z" />
    <glyph glyph-name="guillemotright" unicode="&#xbb;" horiz-adv-x="494" 
d="M66.5 165q28.5 50 59.5 81v2q-18 34 -29 88.5t-11 100.5l108 26q0 -51 15 -113t41 -103q-38 -38 -73 -99.5t-56 -115.5l-102 35q19 48 47.5 98zM278.5 165q28.5 50 59.5 81v2q-18 34 -29 88.5t-11 100.5l108 26q0 -51 15 -113t41 -103q-38 -38 -73 -99.5t-56 -115.5
l-102 35q19 48 47.5 98z" />
    <glyph glyph-name="onequarter" unicode="&#xbc;" horiz-adv-x="903" 
d="M631 688h108l-499 -688h-108zM194 560h-2q-13 -11 -33.5 -22t-33.5 -15l-27 81q32 8 72 33.5t58 51.5h116l-74 -419h-127zM652 68h-206l18 97l227 253h149l-44 -257h55l-16 -93h-56l-11 -68h-128zM697 312q2 7 3 9h-2q-1 -3 -7.5 -13.5t-16.5 -21.5l-66 -74l-49 -53v-2h4
q6 0 22.5 1t36.5 1h46l25 135q2 11 4 18z" />
    <glyph glyph-name="onehalf" unicode="&#xbd;" horiz-adv-x="903" 
d="M631 688h108l-499 -688h-108zM194 560h-2q-13 -11 -33.5 -22t-33.5 -15l-27 81q32 8 72 33.5t58 51.5h116l-74 -419h-127zM543.5 124.5q44.5 50.5 108.5 89.5l23 14q29 18 44 30.5t21 24.5t6 28q0 19 -10 30.5t-30 11.5q-27 0 -41 -18.5t-14 -46.5q0 -11 1 -19.5t2 -10.5
l-115 10q-1 2 -2 8.5t-1 16.5q0 46 25.5 77t67.5 46t93 15q72 0 111.5 -29.5t39.5 -80.5q0 -35 -17 -62.5t-39 -44.5t-57 -39l-22 -14q-26 -17 -47 -33t-28 -31v-2h178l-16 -95h-336q10 74 54.5 124.5z" />
    <glyph glyph-name="threequarters" unicode="&#xbe;" horiz-adv-x="903" 
d="M669 688h108l-499 -688h-108zM343.5 483.5q15.5 -8.5 28 -28t12.5 -50.5q0 -42 -23 -75.5t-66.5 -53t-102.5 -19.5q-70 0 -106 27t-36 73q0 16 3.5 29t5.5 16l112 18q-2 -4 -6 -16.5t-4 -25.5q0 -43 38 -43q26 0 42 19t16 56q0 24 -11.5 36t-33.5 12h-27l13 71h27
q27 0 46.5 14t19.5 43q0 18 -10 29.5t-30 11.5q-24 0 -38 -15.5t-14 -42.5v-13l-101 11q0 2 -1 7t-1 13q0 32 18.5 58t56.5 41.5t93 15.5q70 0 106 -27.5t36 -72.5q0 -37 -18 -60t-38.5 -33.5t-32.5 -12.5v-2q11 -2 26.5 -10.5zM667 68h-206l18 97l227 253h149l-44 -257h55
l-16 -93h-56l-11 -68h-128zM712 312q2 7 3 9h-2q-1 -3 -7.5 -13.5t-16.5 -21.5l-66 -74l-49 -53v-2h4q6 0 22.5 1t36.5 1h46l25 135q2 11 4 18z" />
    <glyph glyph-name="questiondown" unicode="&#xbf;" horiz-adv-x="550" 
d="M264 494h158l-30 -164h-158zM461 11.5q1 -9.5 1 -21.5q0 -55 -27 -100t-80.5 -71.5t-130.5 -26.5q-76 0 -124.5 22t-70 59t-21.5 83q0 40 15.5 72t37 54.5t49.5 45.5l52 42q36 29 51.5 48t18.5 38l2 12h138l-2 -18q-4 -35 -13 -55.5t-26 -37.5t-59 -53l-38 -32
q-30 -26 -46 -49t-16 -53q0 -31 17.5 -46.5t44.5 -15.5q32 0 55 22.5t23 79.5q0 12 -1 21.5t-1 12.5l150 -20q0 -3 1 -12.5z" />
    <glyph glyph-name="Agrave" unicode="&#xc0;" horiz-adv-x="622" 
d="M399 148h-209l-64 -148h-176l328 688h226l90 -688h-182zM366.5 531q-0.5 20 -0.5 27h-2q-3 -7 -10.5 -27t-15.5 -41l-89 -205h138l-19 205q-1 21 -1.5 41zM275 887h158l38 -140h-124z" />
    <glyph glyph-name="Aacute" unicode="&#xc1;" horiz-adv-x="622" 
d="M399 148h-209l-64 -148h-176l328 688h226l90 -688h-182zM366.5 531q-0.5 20 -0.5 27h-2q-3 -7 -10.5 -27t-15.5 -41l-89 -205h138l-19 205q-1 21 -1.5 41zM400 886h161l-114 -140h-128z" />
    <glyph glyph-name="Acircumflex" unicode="&#xc2;" horiz-adv-x="622" 
d="M399 148h-209l-64 -148h-176l328 688h226l90 -688h-182zM366.5 531q-0.5 20 -0.5 27h-2q-3 -7 -10.5 -27t-15.5 -41l-89 -205h138l-19 205q-1 21 -1.5 41zM404 810h-2l-51 -64h-99l82 140h162l36 -140h-99z" />
    <glyph glyph-name="Atilde" unicode="&#xc3;" horiz-adv-x="622" 
d="M399 148h-209l-64 -148h-176l328 688h226l90 -688h-182zM366.5 531q-0.5 20 -0.5 27h-2q-3 -7 -10.5 -27t-15.5 -41l-89 -205h138l-19 205q-1 21 -1.5 41zM530.5 765q-28.5 -22 -68.5 -22q-22 0 -38.5 5.5t-25.5 11.5t-13 10l-6 5q-1 1 -8 7t-16 10.5t-18 4.5
q-26 0 -34 -33l-3 -12l-76 17l8 27q15 50 43.5 72t68.5 22q22 0 38.5 -5.5t25.5 -11.5t13 -10l6 -5q1 -1 8 -7t16 -10.5t18 -4.5q26 0 34 33l3 12l76 -17l-8 -27q-15 -50 -43.5 -72z" />
    <glyph glyph-name="Adieresis" unicode="&#xc4;" horiz-adv-x="622" 
d="M399 148h-209l-64 -148h-176l328 688h226l90 -688h-182zM366.5 531q-0.5 20 -0.5 27h-2q-3 -7 -10.5 -27t-15.5 -41l-89 -205h138l-19 205q-1 21 -1.5 41zM275 886h114l-25 -140h-114zM441 886h114l-25 -140h-114z" />
    <glyph glyph-name="Aring" unicode="&#xc5;" horiz-adv-x="622" 
d="M399 148h-209l-64 -148h-176l328 688h226l90 -688h-182zM366.5 531q-0.5 20 -0.5 27h-2q-3 -7 -10.5 -27t-15.5 -41l-89 -205h138l-19 205q-1 21 -1.5 41zM308 742q-32 18 -32 58q0 36 19.5 60.5t51.5 36t70 11.5q48 0 80 -18t32 -58q0 -37 -19.5 -61t-52 -35.5
t-70.5 -11.5q-47 0 -79 18zM431.5 846.5q-8.5 8.5 -23.5 8.5q-19 0 -31.5 -13.5t-12.5 -33.5q0 -14 8.5 -22.5t23.5 -8.5q19 0 31.5 13.5t12.5 33.5q0 14 -8.5 22.5z" />
    <glyph glyph-name="AE" unicode="&#xc6;" horiz-adv-x="900" 
d="M432 149h-207l-99 -149h-186l482 688h532l-49 -135h-233l-20 -116h212l-24 -136h-212l-29 -164h241l2 -137h-436zM508 578h-2q-4 -7 -17 -28t-29 -46l-143 -215h140l37 211z" />
    <glyph glyph-name="Ccedilla" unicode="&#xc7;" horiz-adv-x="648" 
d="M242 -6q-68 17 -112 60t-64 102t-20 128q0 126 44.5 220.5t128 146t197.5 51.5q96 0 151 -36t75 -76.5t25 -68.5q3 -16 4 -26.5t1 -13.5l-155 -39q0 4 -1 16.5t-4 23.5q-7 30 -29.5 57.5t-80.5 27.5q-55 0 -95 -34.5t-61.5 -97t-21.5 -143.5q0 -84 28.5 -127t91.5 -43
q40 0 71 19t50.5 47t28.5 56l150 -44q-14 -42 -44 -86.5t-85 -81t-135 -45.5l-62 -139h-174z" />
    <glyph glyph-name="Egrave" unicode="&#xc8;" horiz-adv-x="550" 
d="M145 688h459l-49 -135h-265l-20 -116h244l-24 -136h-244l-29 -164h273l2 -137h-468zM263 886h158l38 -140h-124z" />
    <glyph glyph-name="Eacute" unicode="&#xc9;" horiz-adv-x="550" 
d="M145 688h459l-49 -135h-265l-20 -116h244l-24 -136h-244l-29 -164h273l2 -137h-468zM385 886h161l-114 -140h-128z" />
    <glyph glyph-name="Ecircumflex" unicode="&#xca;" horiz-adv-x="550" 
d="M145 688h459l-49 -135h-265l-20 -116h244l-24 -136h-244l-29 -164h273l2 -137h-468zM399 810h-2l-51 -64h-99l82 140h162l36 -140h-99z" />
    <glyph glyph-name="Edieresis" unicode="&#xcb;" horiz-adv-x="550" 
d="M145 688h459l-49 -135h-265l-20 -116h244l-24 -136h-244l-29 -164h273l2 -137h-468zM271 886h114l-25 -140h-114zM437 886h114l-25 -140h-114z" />
    <glyph glyph-name="Igrave" unicode="&#xcc;" horiz-adv-x="300" 
d="M147 688h169l-121 -688h-169zM120 886h158l38 -140h-124z" />
    <glyph glyph-name="Iacute" unicode="&#xcd;" horiz-adv-x="300" 
d="M147 688h169l-121 -688h-169zM239 886h161l-114 -140h-128z" />
    <glyph glyph-name="Icircumflex" unicode="&#xce;" horiz-adv-x="300" 
d="M147 688h169l-121 -688h-169zM253 810h-2l-51 -64h-99l82 140h162l36 -140h-99z" />
    <glyph glyph-name="Idieresis" unicode="&#xcf;" horiz-adv-x="300" 
d="M147 688h169l-121 -688h-169zM126 887h114l-25 -140h-114zM292 887h114l-25 -140h-114z" />
    <glyph glyph-name="Eth" unicode="&#xd0;" horiz-adv-x="684" 
d="M77 302h-49l24 136h49l44 250h247q148 0 217 -75t69 -203q0 -119 -45 -212t-131.5 -145.5t-207.5 -52.5h-270zM413.5 174.5q46.5 37.5 67.5 99.5t21 138q0 74 -33 106.5t-103 32.5h-76l-20 -114h106l-24 -135h-106l-29 -165h77q73 0 119.5 37.5z" />
    <glyph glyph-name="Ntilde" unicode="&#xd1;" horiz-adv-x="680" 
d="M276 390q-6 21 -9.5 43.5t-4.5 28.5h-2q-1 -8 -4 -37t-8 -59l-64 -366h-160l121 688h193l112 -368q6 -21 9.5 -43.5t4.5 -28.5h2q1 8 4 37t8 59l60 344h160l-121 -688h-181zM566.5 765q-28.5 -22 -68.5 -22q-22 0 -38.5 5.5t-25.5 11.5t-13 10l-6 5q-1 1 -8 7t-16 10.5
t-18 4.5q-26 0 -34 -33l-3 -12l-76 17l8 27q15 50 43.5 72t68.5 22q22 0 38.5 -5.5t25.5 -11.5t13 -10l6 -5q1 -1 8 -7t16 -10.5t18 -4.5q26 0 34 33l3 12l76 -17l-8 -27q-15 -50 -43.5 -72z" />
    <glyph glyph-name="Ograve" unicode="&#xd2;" horiz-adv-x="706" 
d="M160.5 29q-63.5 44 -89 111t-25.5 144q0 127 45.5 221.5t129 145.5t195.5 51q106 0 169.5 -44t89 -111t25.5 -144q0 -127 -45.5 -221.5t-129 -145.5t-195.5 -51q-106 0 -169.5 44zM434.5 151.5q40.5 31.5 64 93.5t23.5 150q0 77 -26.5 124.5t-93.5 47.5
q-50 0 -90.5 -31.5t-64 -93.5t-23.5 -150q0 -77 26.5 -124.5t93.5 -47.5q50 0 90.5 31.5zM302 886h158l38 -140h-124z" />
    <glyph glyph-name="Oacute" unicode="&#xd3;" horiz-adv-x="706" 
d="M160.5 29q-63.5 44 -89 111t-25.5 144q0 127 45.5 221.5t129 145.5t195.5 51q106 0 169.5 -44t89 -111t25.5 -144q0 -127 -45.5 -221.5t-129 -145.5t-195.5 -51q-106 0 -169.5 44zM434.5 151.5q40.5 31.5 64 93.5t23.5 150q0 77 -26.5 124.5t-93.5 47.5
q-50 0 -90.5 -31.5t-64 -93.5t-23.5 -150q0 -77 26.5 -124.5t93.5 -47.5q50 0 90.5 31.5zM448 886h161l-114 -140h-128z" />
    <glyph glyph-name="Ocircumflex" unicode="&#xd4;" horiz-adv-x="706" 
d="M160.5 29q-63.5 44 -89 111t-25.5 144q0 127 45.5 221.5t129 145.5t195.5 51q106 0 169.5 -44t89 -111t25.5 -144q0 -127 -45.5 -221.5t-129 -145.5t-195.5 -51q-106 0 -169.5 44zM434.5 151.5q40.5 31.5 64 93.5t23.5 150q0 77 -26.5 124.5t-93.5 47.5
q-50 0 -90.5 -31.5t-64 -93.5t-23.5 -150q0 -77 26.5 -124.5t93.5 -47.5q50 0 90.5 31.5zM444 810h-2l-51 -64h-99l82 140h162l36 -140h-99z" />
    <glyph glyph-name="Otilde" unicode="&#xd5;" horiz-adv-x="706" 
d="M160.5 29q-63.5 44 -89 111t-25.5 144q0 127 45.5 221.5t129 145.5t195.5 51q106 0 169.5 -44t89 -111t25.5 -144q0 -127 -45.5 -221.5t-129 -145.5t-195.5 -51q-106 0 -169.5 44zM434.5 151.5q40.5 31.5 64 93.5t23.5 150q0 77 -26.5 124.5t-93.5 47.5
q-50 0 -90.5 -31.5t-64 -93.5t-23.5 -150q0 -77 26.5 -124.5t93.5 -47.5q50 0 90.5 31.5zM572.5 765q-28.5 -22 -68.5 -22q-22 0 -38.5 5.5t-25.5 11.5t-13 10l-6 5q-1 1 -8 7t-16 10.5t-18 4.5q-26 0 -34 -33l-3 -12l-76 17l8 27q15 50 43.5 72t68.5 22q22 0 38.5 -5.5
t25.5 -11.5t13 -10l6 -5q1 -1 8 -7t16 -10.5t18 -4.5q26 0 34 33l3 12l76 -17l-8 -27q-15 -50 -43.5 -72z" />
    <glyph glyph-name="Odieresis" unicode="&#xd6;" horiz-adv-x="706" 
d="M160.5 29q-63.5 44 -89 111t-25.5 144q0 127 45.5 221.5t129 145.5t195.5 51q106 0 169.5 -44t89 -111t25.5 -144q0 -127 -45.5 -221.5t-129 -145.5t-195.5 -51q-106 0 -169.5 44zM434.5 151.5q40.5 31.5 64 93.5t23.5 150q0 77 -26.5 124.5t-93.5 47.5
q-50 0 -90.5 -31.5t-64 -93.5t-23.5 -150q0 -77 26.5 -124.5t93.5 -47.5q50 0 90.5 31.5zM316 886h114l-25 -140h-114zM482 886h114l-25 -140h-114z" />
    <glyph glyph-name="multiply" unicode="&#xd7;" 
d="M284 238l-171 -149l-61 74l173 150l-121 153l82 64l117 -149l170 149l62 -74l-174 -150l121 -153l-82 -64z" />
    <glyph glyph-name="Oslash" unicode="&#xd8;" horiz-adv-x="710" 
d="M695 481.5q7 -39.5 7 -78.5q0 -127 -45.5 -221.5t-129 -145.5t-195.5 -51q-114 0 -184 54l-58 -57l-80 84l67 65q-29 66 -29 153q0 127 45.5 221.5t129 145.5t195.5 51q114 0 185 -56l57 60l80 -84l-67 -68q15 -33 22 -72.5zM453 558q-21 9 -49 9q-50 0 -90.5 -31.5
t-64 -93.5t-23.5 -150v-16l261 257q-13 16 -34 25zM264 152q29 -32 82 -32q50 0 90.5 31.5t64 93.5t23.5 150v13z" />
    <glyph glyph-name="Ugrave" unicode="&#xd9;" horiz-adv-x="670" 
d="M688 688l-76 -432q-25 -142 -105 -206.5t-213 -64.5q-122 0 -179 55t-57 148q0 16 2.5 35.5t5.5 36.5l75 428h169l-74 -418q-4 -21 -4 -51q0 -46 20 -68.5t68 -22.5q51 0 81 32.5t43 105.5l75 422h169zM289 886h158l38 -140h-124z" />
    <glyph glyph-name="Uacute" unicode="&#xda;" horiz-adv-x="670" 
d="M688 688l-76 -432q-25 -142 -105 -206.5t-213 -64.5q-122 0 -179 55t-57 148q0 16 2.5 35.5t5.5 36.5l75 428h169l-74 -418q-4 -21 -4 -51q0 -46 20 -68.5t68 -22.5q51 0 81 32.5t43 105.5l75 422h169zM429 886h161l-114 -140h-128z" />
    <glyph glyph-name="Ucircumflex" unicode="&#xdb;" horiz-adv-x="670" 
d="M688 688l-76 -432q-25 -142 -105 -206.5t-213 -64.5q-122 0 -179 55t-57 148q0 16 2.5 35.5t5.5 36.5l75 428h169l-74 -418q-4 -21 -4 -51q0 -46 20 -68.5t68 -22.5q51 0 81 32.5t43 105.5l75 422h169zM430 810h-2l-51 -64h-99l82 140h162l36 -140h-99z" />
    <glyph glyph-name="Udieresis" unicode="&#xdc;" horiz-adv-x="670" 
d="M688 688l-76 -432q-25 -142 -105 -206.5t-213 -64.5q-122 0 -179 55t-57 148q0 16 2.5 35.5t5.5 36.5l75 428h169l-74 -418q-4 -21 -4 -51q0 -46 20 -68.5t68 -22.5q51 0 81 32.5t43 105.5l75 422h169zM301 886h114l-25 -140h-114zM467 886h114l-25 -140h-114z" />
    <glyph glyph-name="Yacute" unicode="&#xdd;" horiz-adv-x="590" 
d="M219 285l-149 403h176l62 -196q5 -16 10.5 -39.5t6.5 -30.5h2q4 7 17 30.5t24 39.5l132 196h180l-292 -403l-50 -285h-169zM399 886h161l-114 -140h-128z" />
    <glyph glyph-name="Thorn" unicode="&#xde;" horiz-adv-x="620" 
d="M145 688h169l-22 -122h118q51 0 96 -15.5t75.5 -55t30.5 -105.5q0 -72 -30 -126t-91 -84t-151 -30h-121l-26 -150h-169zM407 301q27 21 27 71q0 34 -19.5 49t-56.5 15h-91l-27 -156h90q50 0 77 21z" />
    <glyph glyph-name="germandbls" unicode="&#xdf;" horiz-adv-x="597" 
d="M97 490q16 103 73 150q21 17 45 31t64.5 24.5t96.5 10.5t98 -19t65.5 -53t23.5 -77q0 -49 -19.5 -81t-39.5 -46t-44 -25v-2q35 -9 68.5 -43.5t33.5 -113.5q0 -87 -34.5 -145.5t-87.5 -86.5t-108 -28q-40 0 -67.5 10t-41.5 21.5t-14 13.5l65 98q2 -4 11.5 -9.5t25.5 -5.5
q18 0 37 12.5t32 43t13 80.5q0 48 -23 70t-60 22h-21l18 114h23q30 0 52 19.5t22 60.5q0 29 -16 43t-37 14q-37 0 -57 -24t-28 -77l-78 -492h-169z" />
    <glyph glyph-name="agrave" unicode="&#xe0;" horiz-adv-x="579" 
d="M328 56h-2q0 -3 -17 -21t-47 -33.5t-72 -15.5q-48 0 -83 23t-54 69t-19 113q0 94 32 166t87.5 111.5t122.5 39.5q45 0 71 -16.5t36 -34.5t10 -23h2l11 60h164l-87 -494h-165zM367.5 280.5q2.5 15.5 2.5 33.5q0 27 -10.5 50t-43.5 23q-36 0 -60.5 -27.5t-36.5 -70
t-12 -89.5q0 -46 14 -70.5t47 -24.5q39 0 59.5 32.5t29.5 83.5l7 40q1 4 3.5 19.5zM208 692h158l38 -140h-124z" />
    <glyph glyph-name="aacute" unicode="&#xe1;" horiz-adv-x="579" 
d="M328 56h-2q0 -3 -17 -21t-47 -33.5t-72 -15.5q-48 0 -83 23t-54 69t-19 113q0 94 32 166t87.5 111.5t122.5 39.5q45 0 71 -16.5t36 -34.5t10 -23h2l11 60h164l-87 -494h-165zM367.5 280.5q2.5 15.5 2.5 33.5q0 27 -10.5 50t-43.5 23q-36 0 -60.5 -27.5t-36.5 -70
t-12 -89.5q0 -46 14 -70.5t47 -24.5q39 0 59.5 32.5t29.5 83.5l7 40q1 4 3.5 19.5zM348 692h161l-114 -140h-128z" />
    <glyph glyph-name="acircumflex" unicode="&#xe2;" horiz-adv-x="579" 
d="M328 56h-2q0 -3 -17 -21t-47 -33.5t-72 -15.5q-48 0 -83 23t-54 69t-19 113q0 94 32 166t87.5 111.5t122.5 39.5q45 0 71 -16.5t36 -34.5t10 -23h2l11 60h164l-87 -494h-165zM367.5 280.5q2.5 15.5 2.5 33.5q0 27 -10.5 50t-43.5 23q-36 0 -60.5 -27.5t-36.5 -70
t-12 -89.5q0 -46 14 -70.5t47 -24.5q39 0 59.5 32.5t29.5 83.5l7 40q1 4 3.5 19.5zM348 616h-2l-51 -64h-99l82 140h162l36 -140h-99z" />
    <glyph glyph-name="atilde" unicode="&#xe3;" horiz-adv-x="579" 
d="M328 56h-2q0 -3 -17 -21t-47 -33.5t-72 -15.5q-48 0 -83 23t-54 69t-19 113q0 94 32 166t87.5 111.5t122.5 39.5q45 0 71 -16.5t36 -34.5t10 -23h2l11 60h164l-87 -494h-165zM367.5 280.5q2.5 15.5 2.5 33.5q0 27 -10.5 50t-43.5 23q-36 0 -60.5 -27.5t-36.5 -70
t-12 -89.5q0 -46 14 -70.5t47 -24.5q39 0 59.5 32.5t29.5 83.5l7 40q1 4 3.5 19.5zM478.5 573q-28.5 -22 -68.5 -22q-22 0 -38.5 5.5t-25.5 11.5t-13 10l-6 5q-1 1 -8 7t-16 10.5t-18 4.5q-26 0 -34 -33l-3 -12l-76 17l8 27q15 50 43.5 72t68.5 22q22 0 38.5 -5.5
t25.5 -11.5t13 -10l6 -5q1 -1 8 -7t16 -10.5t18 -4.5q26 0 34 33l3 12l76 -17l-8 -27q-15 -50 -43.5 -72z" />
    <glyph glyph-name="adieresis" unicode="&#xe4;" horiz-adv-x="579" 
d="M328 56h-2q0 -3 -17 -21t-47 -33.5t-72 -15.5q-48 0 -83 23t-54 69t-19 113q0 94 32 166t87.5 111.5t122.5 39.5q45 0 71 -16.5t36 -34.5t10 -23h2l11 60h164l-87 -494h-165zM367.5 280.5q2.5 15.5 2.5 33.5q0 27 -10.5 50t-43.5 23q-36 0 -60.5 -27.5t-36.5 -70
t-12 -89.5q0 -46 14 -70.5t47 -24.5q39 0 59.5 32.5t29.5 83.5l7 40q1 4 3.5 19.5zM232 692h114l-25 -140h-114zM398 692h114l-25 -140h-114z" />
    <glyph glyph-name="aring" unicode="&#xe5;" horiz-adv-x="579" 
d="M328 56h-2q0 -3 -17 -21t-47 -33.5t-72 -15.5q-48 0 -83 23t-54 69t-19 113q0 94 32 166t87.5 111.5t122.5 39.5q45 0 71 -16.5t36 -34.5t10 -23h2l11 60h164l-87 -494h-165zM367.5 280.5q2.5 15.5 2.5 33.5q0 27 -10.5 50t-43.5 23q-36 0 -60.5 -27.5t-36.5 -70
t-12 -89.5q0 -46 14 -70.5t47 -24.5q39 0 59.5 32.5t29.5 83.5l7 40q1 4 3.5 19.5zM466 579q-21 -23 -53 -33t-69 -10q-48 0 -81 18t-33 56q0 36 20.5 59t53 33t68.5 10q49 0 82 -18t33 -56q0 -36 -21 -59zM388.5 652q-8.5 8 -24.5 8q-19 0 -32 -12t-13 -30q0 -14 8.5 -22
t24.5 -8q19 0 32 12t13 30q0 14 -8.5 22z" />
    <glyph glyph-name="ae" unicode="&#xe6;" horiz-adv-x="796" 
d="M663 17.5q-62 -31.5 -143 -31.5q-49 0 -85 14.5t-57 33.5t-30 36h-2q-32 -46 -79 -65t-106 -19q-64 0 -107.5 32t-43.5 112q0 54 21.5 88t48.5 50t58 26q50 17 134 30l59 10l1 6q0 2 2 11.5t2 16.5q0 20 -10 30.5t-40 10.5q-23 0 -36 -5.5t-22 -18.5t-16 -39l-144 24
q19 67 73.5 102t160.5 35q65 0 98 -12t46 -25h2q0 2 17 11.5t47.5 18t73.5 8.5q73 0 119 -20.5t66.5 -54.5t20.5 -77q0 -53 -34 -85.5t-78 -48.5q-32 -12 -76 -18t-90 -6q-17 0 -29.5 1t-16.5 2q0 -2 -1 -8t-1 -15q0 -33 15 -54.5t51 -21.5q67 0 96 50l132 -44
q-35 -59 -97 -90.5zM578 410q-23 0 -44 -13t-36 -38.5t-20 -61.5l28 -1q53 0 89.5 16t36.5 50q0 48 -54 48zM316 248l-46 -12q-3 -1 -22.5 -5.5t-33.5 -12.5q-17 -9 -26.5 -22.5t-9.5 -37.5q0 -32 15 -44t41 -12q24 0 44 18t26 52l14 76h-2z" />
    <glyph glyph-name="ccedilla" unicode="&#xe7;" horiz-adv-x="534" 
d="M183 -6q-75 17 -113 71t-38 133q0 95 35 165t99.5 107.5t151.5 37.5q79 0 125 -29.5t63.5 -67.5t17.5 -69q0 -7 -0.5 -12t-0.5 -6l-146 -19q0 1 0.5 6t0.5 12q0 11 -4.5 26.5t-19 29t-42.5 13.5q-31 0 -56.5 -22t-40 -64.5t-14.5 -99.5q0 -51 18 -76.5t51 -25.5
q35 0 57.5 20.5t35.5 63.5l144 -21q-18 -66 -66 -114.5t-130 -61.5l-64 -133h-159z" />
    <glyph glyph-name="egrave" unicode="&#xe8;" horiz-adv-x="526" 
d="M391 17.5q-62 -31.5 -143 -31.5q-58 0 -106.5 22.5t-79 71.5t-30.5 124q0 95 38 163.5t102.5 104.5t141.5 36q73 0 119 -20.5t66.5 -54.5t20.5 -77q0 -53 -34 -85.5t-78 -48.5q-32 -12 -76 -18t-90 -6q-17 0 -29.5 1t-16.5 2q0 -2 -1 -8t-1 -15q0 -33 15 -54.5t51 -21.5
q67 0 96 50l132 -44q-35 -59 -97 -90.5zM306 410q-23 0 -44 -13t-36 -38.5t-20 -61.5l28 -1q53 0 89.5 16t36.5 50q0 48 -54 48zM188 692h158l38 -140h-124z" />
    <glyph glyph-name="eacute" unicode="&#xe9;" horiz-adv-x="526" 
d="M391 17.5q-62 -31.5 -143 -31.5q-58 0 -106.5 22.5t-79 71.5t-30.5 124q0 95 38 163.5t102.5 104.5t141.5 36q73 0 119 -20.5t66.5 -54.5t20.5 -77q0 -53 -34 -85.5t-78 -48.5q-32 -12 -76 -18t-90 -6q-17 0 -29.5 1t-16.5 2q0 -2 -1 -8t-1 -15q0 -33 15 -54.5t51 -21.5
q67 0 96 50l132 -44q-35 -59 -97 -90.5zM306 410q-23 0 -44 -13t-36 -38.5t-20 -61.5l28 -1q53 0 89.5 16t36.5 50q0 48 -54 48zM333 692h161l-114 -140h-128z" />
    <glyph glyph-name="ecircumflex" unicode="&#xea;" horiz-adv-x="526" 
d="M391 17.5q-62 -31.5 -143 -31.5q-58 0 -106.5 22.5t-79 71.5t-30.5 124q0 95 38 163.5t102.5 104.5t141.5 36q73 0 119 -20.5t66.5 -54.5t20.5 -77q0 -53 -34 -85.5t-78 -48.5q-32 -12 -76 -18t-90 -6q-17 0 -29.5 1t-16.5 2q0 -2 -1 -8t-1 -15q0 -33 15 -54.5t51 -21.5
q67 0 96 50l132 -44q-35 -59 -97 -90.5zM306 410q-23 0 -44 -13t-36 -38.5t-20 -61.5l28 -1q53 0 89.5 16t36.5 50q0 48 -54 48zM332 616h-2l-51 -64h-99l82 140h162l36 -140h-99z" />
    <glyph glyph-name="edieresis" unicode="&#xeb;" horiz-adv-x="526" 
d="M391 17.5q-62 -31.5 -143 -31.5q-58 0 -106.5 22.5t-79 71.5t-30.5 124q0 95 38 163.5t102.5 104.5t141.5 36q73 0 119 -20.5t66.5 -54.5t20.5 -77q0 -53 -34 -85.5t-78 -48.5q-32 -12 -76 -18t-90 -6q-17 0 -29.5 1t-16.5 2q0 -2 -1 -8t-1 -15q0 -33 15 -54.5t51 -21.5
q67 0 96 50l132 -44q-35 -59 -97 -90.5zM306 410q-23 0 -44 -13t-36 -38.5t-20 -61.5l28 -1q53 0 89.5 16t36.5 50q0 48 -54 48zM205 692h114l-25 -140h-114zM371 692h114l-25 -140h-114z" />
    <glyph glyph-name="igrave" unicode="&#xec;" horiz-adv-x="285" 
d="M109 494h167l-87 -494h-167zM79 692h158l38 -140h-124z" />
    <glyph glyph-name="iacute" unicode="&#xed;" horiz-adv-x="285" 
d="M109 494h167l-87 -494h-167zM197 692h161l-114 -140h-128z" />
    <glyph glyph-name="icircumflex" unicode="&#xee;" horiz-adv-x="285" 
d="M109 494h167l-87 -494h-167zM207 616h-2l-51 -64h-99l82 140h162l36 -140h-99z" />
    <glyph glyph-name="idieresis" unicode="&#xef;" horiz-adv-x="285" 
d="M109 494h167l-87 -494h-167zM87 692h114l-25 -140h-114zM253 692h114l-25 -140h-114z" />
    <glyph glyph-name="eth" unicode="&#xf0;" horiz-adv-x="568" 
d="M467 564.5q9 -14.5 19 -30.5q21 -35 40.5 -93t19.5 -147q0 -84 -33.5 -154t-99.5 -112t-159 -42q-72 0 -122.5 26.5t-77 75.5t-26.5 114q0 86 35 145.5t91 88.5t118 29q23 0 41 -4t27.5 -8.5t11.5 -6.5h2q-7 39 -45 87l-112 -43l-29 79l80 31q-13 10 -34 21.5t-34 16.5v2
l128 60q17 -7 42 -22.5t36 -24.5l120 45l29 -79l-84 -32q7 -8 16 -22.5zM323 131.5q24 26.5 35.5 64.5t11.5 72q0 43 -14.5 68.5t-50.5 25.5q-34 0 -58 -26.5t-35.5 -64.5t-11.5 -71q0 -43 14.5 -69t50.5 -26q34 0 58 26.5z" />
    <glyph glyph-name="ntilde" unicode="&#xf1;" horiz-adv-x="590" 
d="M374 284q5 30 5 42q0 21 -11.5 38t-43.5 17q-34 0 -56 -27t-29 -70l-50 -284h-167l87 494h165l-11 -62h2q17 25 54.5 50.5t96.5 25.5q67 0 102.5 -36.5t35.5 -97.5q0 -18 -8 -62l-55 -312h-167zM483.5 573q-28.5 -22 -68.5 -22q-22 0 -38.5 5.5t-25.5 11.5t-13 10l-6 5
q-1 1 -8 7t-16 10.5t-18 4.5q-26 0 -34 -33l-3 -12l-76 17l8 27q15 50 43.5 72t68.5 22q22 0 38.5 -5.5t25.5 -11.5t13 -10l6 -5q1 -1 8 -7t16 -10.5t18 -4.5q26 0 34 33l3 12l76 -17l-8 -27q-15 -50 -43.5 -72z" />
    <glyph glyph-name="ograve" unicode="&#xf2;" horiz-adv-x="568" 
d="M129.5 15q-50.5 29 -74 77.5t-23.5 107.5q0 88 33 157.5t99 110t160 40.5q76 0 126.5 -29t74 -77.5t23.5 -107.5q0 -88 -33 -157.5t-99 -110t-160 -40.5q-76 0 -126.5 29zM331 132.5q24 28.5 34.5 70t10.5 81.5q0 51 -15 78.5t-51 27.5q-37 0 -61 -28t-34.5 -69
t-10.5 -81q0 -52 15 -80t51 -28q37 0 61 28.5zM202 692h158l38 -140h-124z" />
    <glyph glyph-name="oacute" unicode="&#xf3;" horiz-adv-x="568" 
d="M129.5 15q-50.5 29 -74 77.5t-23.5 107.5q0 88 33 157.5t99 110t160 40.5q76 0 126.5 -29t74 -77.5t23.5 -107.5q0 -88 -33 -157.5t-99 -110t-160 -40.5q-76 0 -126.5 29zM331 132.5q24 28.5 34.5 70t10.5 81.5q0 51 -15 78.5t-51 27.5q-37 0 -61 -28t-34.5 -69
t-10.5 -81q0 -52 15 -80t51 -28q37 0 61 28.5zM347 692h161l-114 -140h-128z" />
    <glyph glyph-name="ocircumflex" unicode="&#xf4;" horiz-adv-x="568" 
d="M129.5 15q-50.5 29 -74 77.5t-23.5 107.5q0 88 33 157.5t99 110t160 40.5q76 0 126.5 -29t74 -77.5t23.5 -107.5q0 -88 -33 -157.5t-99 -110t-160 -40.5q-76 0 -126.5 29zM331 132.5q24 28.5 34.5 70t10.5 81.5q0 51 -15 78.5t-51 27.5q-37 0 -61 -28t-34.5 -69
t-10.5 -81q0 -52 15 -80t51 -28q37 0 61 28.5zM344 616h-2l-51 -64h-99l82 140h162l36 -140h-99z" />
    <glyph glyph-name="otilde" unicode="&#xf5;" horiz-adv-x="568" 
d="M129.5 15q-50.5 29 -74 77.5t-23.5 107.5q0 88 33 157.5t99 110t160 40.5q76 0 126.5 -29t74 -77.5t23.5 -107.5q0 -88 -33 -157.5t-99 -110t-160 -40.5q-76 0 -126.5 29zM331 132.5q24 28.5 34.5 70t10.5 81.5q0 51 -15 78.5t-51 27.5q-37 0 -61 -28t-34.5 -69
t-10.5 -81q0 -52 15 -80t51 -28q37 0 61 28.5zM472.5 573q-28.5 -22 -68.5 -22q-22 0 -38.5 5.5t-25.5 11.5t-13 10l-6 5q-1 1 -8 7t-16 10.5t-18 4.5q-26 0 -34 -33l-3 -12l-76 17l8 27q15 50 43.5 72t68.5 22q22 0 38.5 -5.5t25.5 -11.5t13 -10l6 -5q1 -1 8 -7t16 -10.5
t18 -4.5q26 0 34 33l3 12l76 -17l-8 -27q-15 -50 -43.5 -72z" />
    <glyph glyph-name="odieresis" unicode="&#xf6;" horiz-adv-x="568" 
d="M129.5 15q-50.5 29 -74 77.5t-23.5 107.5q0 88 33 157.5t99 110t160 40.5q76 0 126.5 -29t74 -77.5t23.5 -107.5q0 -88 -33 -157.5t-99 -110t-160 -40.5q-76 0 -126.5 29zM331 132.5q24 28.5 34.5 70t10.5 81.5q0 51 -15 78.5t-51 27.5q-37 0 -61 -28t-34.5 -69
t-10.5 -81q0 -52 15 -80t51 -28q37 0 61 28.5zM216 692h114l-25 -140h-114zM382 692h114l-25 -140h-114z" />
    <glyph glyph-name="divide" unicode="&#xf7;" 
d="M281 570h117l-24 -132h-116zM61 363h482l-18 -106h-482zM212 182h117l-24 -132h-116z" />
    <glyph glyph-name="oslash" unicode="&#xf8;" horiz-adv-x="572" 
d="M546 294q0 -88 -33 -157.5t-99 -110t-160 -40.5q-91 0 -148 43l-50 -45l-56 68l51 45q-21 43 -21 103q0 88 33 157.5t99 110t160 40.5q89 0 144 -41l48 43l56 -68l-47 -42q23 -49 23 -106zM308 390q-34 0 -57 -24t-34.5 -59.5t-13.5 -73.5l152 135q-17 22 -47 22z
M268 104q35 0 57.5 24.5t34 62t13.5 76.5l-154 -138q16 -25 49 -25z" />
    <glyph glyph-name="ugrave" unicode="&#xf9;" horiz-adv-x="571" 
d="M321 62h-2q-18 -26 -52.5 -51t-92.5 -25q-66 0 -100 36t-34 98q0 9 2.5 29t4.5 33l55 312h167l-50 -284q-5 -30 -5 -44q0 -20 8.5 -36t39.5 -16q36 0 55.5 25t27.5 71l50 284h167l-87 -494h-165zM206 692h158l38 -140h-124z" />
    <glyph glyph-name="uacute" unicode="&#xfa;" horiz-adv-x="571" 
d="M321 62h-2q-18 -26 -52.5 -51t-92.5 -25q-66 0 -100 36t-34 98q0 9 2.5 29t4.5 33l55 312h167l-50 -284q-5 -30 -5 -44q0 -20 8.5 -36t39.5 -16q36 0 55.5 25t27.5 71l50 284h167l-87 -494h-165zM355 692h161l-114 -140h-128z" />
    <glyph glyph-name="ucircumflex" unicode="&#xfb;" horiz-adv-x="571" 
d="M321 62h-2q-18 -26 -52.5 -51t-92.5 -25q-66 0 -100 36t-34 98q0 9 2.5 29t4.5 33l55 312h167l-50 -284q-5 -30 -5 -44q0 -20 8.5 -36t39.5 -16q36 0 55.5 25t27.5 71l50 284h167l-87 -494h-165zM351 616h-2l-51 -64h-99l82 140h162l36 -140h-99z" />
    <glyph glyph-name="udieresis" unicode="&#xfc;" horiz-adv-x="571" 
d="M321 62h-2q-18 -26 -52.5 -51t-92.5 -25q-66 0 -100 36t-34 98q0 9 2.5 29t4.5 33l55 312h167l-50 -284q-5 -30 -5 -44q0 -20 8.5 -36t39.5 -16q36 0 55.5 25t27.5 71l50 284h167l-87 -494h-165zM223 692h114l-25 -140h-114zM389 692h114l-25 -140h-114z" />
    <glyph glyph-name="yacute" unicode="&#xfd;" horiz-adv-x="490" 
d="M42 494h168l22 -232q4 -35 5 -64.5t1 -37.5h2q3 8 13 34t21 50l114 250h162l-270 -542q-20 -41 -45 -70.5t-67 -48.5t-104 -19q-36 0 -64 7.5t-44 16.5t-16 10l54 104h2q4 -4 18.5 -9t31.5 -5q21 0 35.5 9.5t24.5 32.5l8 20zM323 692h161l-114 -140h-128z" />
    <glyph glyph-name="thorn" unicode="&#xfe;" horiz-adv-x="585" 
d="M144 693h167l-45 -255h2q0 3 17 21t48 33.5t73 15.5q73 0 114.5 -52t41.5 -153q0 -94 -32 -166t-87 -111.5t-122 -39.5q-45 0 -71.5 16.5t-37 34.5t-10.5 23h-2l-42 -236h-167zM224.5 213.5q-2.5 -15.5 -2.5 -33.5q0 -73 57 -73q36 0 61 27.5t37 70t12 89.5
q0 46 -14 70.5t-48 24.5q-40 0 -61.5 -33t-30.5 -83l-7 -40q-1 -4 -3.5 -19.5z" />
    <glyph glyph-name="ydieresis" unicode="&#xff;" horiz-adv-x="490" 
d="M42 494h168l22 -232q4 -35 5 -64.5t1 -37.5h2q3 8 13 34t21 50l114 250h162l-270 -542q-20 -41 -45 -70.5t-67 -48.5t-104 -19q-36 0 -64 7.5t-44 16.5t-16 10l54 104h2q4 -4 18.5 -9t31.5 -5q21 0 35.5 9.5t24.5 32.5l8 20zM193 692h114l-25 -140h-114zM359 692h114
l-25 -140h-114z" />
    <glyph glyph-name="Amacron" unicode="&#x100;" horiz-adv-x="622" 
d="M399 148h-209l-64 -148h-176l328 688h226l90 -688h-182zM366.5 531q-0.5 20 -0.5 27h-2q-3 -7 -10.5 -27t-15.5 -41l-89 -205h138l-19 205q-1 21 -1.5 41zM250 864h322l-16 -94h-322z" />
    <glyph glyph-name="amacron" unicode="&#x101;" horiz-adv-x="579" 
d="M328 56h-2q0 -3 -17 -21t-47 -33.5t-72 -15.5q-48 0 -83 23t-54 69t-19 113q0 94 32 166t87.5 111.5t122.5 39.5q45 0 71 -16.5t36 -34.5t10 -23h2l11 60h164l-87 -494h-165zM367.5 280.5q2.5 15.5 2.5 33.5q0 27 -10.5 50t-43.5 23q-36 0 -60.5 -27.5t-36.5 -70
t-12 -89.5q0 -46 14 -70.5t47 -24.5q39 0 59.5 32.5t29.5 83.5l7 40q1 4 3.5 19.5zM204 670h322l-16 -94h-322z" />
    <glyph glyph-name="Abreve" unicode="&#x102;" horiz-adv-x="622" 
d="M399 148h-209l-64 -148h-176l328 688h226l90 -688h-182zM366.5 531q-0.5 20 -0.5 27h-2q-3 -7 -10.5 -27t-15.5 -41l-89 -205h138l-19 205q-1 21 -1.5 41zM502 775q-43 -31 -113 -31q-69 0 -102 31t-36 95l92 20q1 -28 15 -42t46 -14q33 0 50.5 13.5t27.5 42.5l87 -20
q-24 -64 -67 -95z" />
    <glyph glyph-name="abreve" unicode="&#x103;" horiz-adv-x="579" 
d="M328 56h-2q0 -3 -17 -21t-47 -33.5t-72 -15.5q-48 0 -83 23t-54 69t-19 113q0 94 32 166t87.5 111.5t122.5 39.5q45 0 71 -16.5t36 -34.5t10 -23h2l11 60h164l-87 -494h-165zM367.5 280.5q2.5 15.5 2.5 33.5q0 27 -10.5 50t-43.5 23q-36 0 -60.5 -27.5t-36.5 -70
t-12 -89.5q0 -46 14 -70.5t47 -24.5q39 0 59.5 32.5t29.5 83.5l7 40q1 4 3.5 19.5zM476 581q-43 -31 -113 -31q-69 0 -102 31t-36 95l92 20q1 -28 15 -42t46 -14q33 0 50.5 13.5t27.5 42.5l87 -20q-24 -64 -67 -95z" />
    <glyph glyph-name="Aogonek" unicode="&#x104;" horiz-adv-x="622" 
d="M513.5 -205q-13.5 -7 -38.5 -13t-59 -6t-59.5 13.5t-39 37.5t-13.5 54q0 55 29.5 91t76.5 56l-11 120h-209l-64 -148h-176l328 688h226l90 -688q-56 0 -96 -12q-32 -10 -52 -29t-20 -47q0 -20 11.5 -31t31.5 -11q13 0 24.5 3t18 6.5t8.5 4.5h2l8 -80q-3 -2 -16.5 -9z
M366.5 531q-0.5 20 -0.5 27h-2q-3 -7 -10.5 -27t-15.5 -41l-89 -205h138l-19 205q-1 21 -1.5 41z" />
    <glyph glyph-name="aogonek" unicode="&#x105;" horiz-adv-x="579" 
d="M427.5 -205q-13.5 -7 -38.5 -13t-59 -6q-33 0 -58 13.5t-38.5 37.5t-13.5 54q0 37 17 62.5t40 39t41 17.5l10 56h-2q0 -2 -19.5 -20.5t-50 -34t-66.5 -15.5q-48 0 -83 23t-54 69t-19 113q0 94 32 166t87.5 111.5t122.5 39.5q45 0 71 -16.5t36 -34.5t10 -23h2l11 60h164
l-87 -494h-29q-25 0 -51 -10t-43.5 -30t-17.5 -48q0 -20 11 -31t31 -11q13 0 24.5 3t17.5 6.5t8 4.5h2l8 -80q-3 -2 -16.5 -9zM367.5 280.5q2.5 15.5 2.5 33.5q0 27 -10.5 50t-43.5 23q-36 0 -60.5 -27.5t-36.5 -70t-12 -89.5q0 -46 14 -70.5t47 -24.5q39 0 59.5 32.5
t29.5 83.5l7 40q1 4 3.5 19.5z" />
    <glyph glyph-name="Cacute" unicode="&#x106;" horiz-adv-x="648" 
d="M593 104.5q-35 -48.5 -101 -84.5t-162 -36q-100 0 -163.5 41.5t-92 109t-28.5 149.5q0 126 44.5 220.5t128 146t197.5 51.5q96 0 151 -36t75 -76.5t25 -68.5q3 -16 4 -26.5t1 -13.5l-155 -39q0 4 -1 16.5t-4 23.5q-7 30 -29.5 57.5t-80.5 27.5q-55 0 -95 -34.5t-61.5 -97
t-21.5 -143.5q0 -84 28.5 -127t91.5 -43q40 0 71 19t50.5 47t28.5 56l150 -44q-16 -47 -51 -95.5zM435 886h161l-114 -140h-128z" />
    <glyph glyph-name="cacute" unicode="&#x107;" horiz-adv-x="534" 
d="M377.5 311q0.5 5 0.5 12q0 11 -4.5 26.5t-19 29t-42.5 13.5q-31 0 -56.5 -22t-40 -64.5t-14.5 -99.5q0 -51 18 -76.5t51 -25.5q35 0 57.5 20.5t35.5 63.5l144 -21q-13 -49 -43.5 -89.5t-82.5 -66t-127 -25.5q-74 0 -123.5 27t-74 74.5t-24.5 110.5q0 95 35 165
t99.5 107.5t151.5 37.5q79 0 125 -29.5t63.5 -67.5t17.5 -69q0 -7 -0.5 -12t-0.5 -6l-146 -19q0 1 0.5 6zM335 692h161l-114 -140h-128z" />
    <glyph glyph-name="Ccircumflex" unicode="&#x108;" horiz-adv-x="648" 
d="M593 104.5q-35 -48.5 -101 -84.5t-162 -36q-100 0 -163.5 41.5t-92 109t-28.5 149.5q0 126 44.5 220.5t128 146t197.5 51.5q96 0 151 -36t75 -76.5t25 -68.5q3 -16 4 -26.5t1 -13.5l-155 -39q0 4 -1 16.5t-4 23.5q-7 30 -29.5 57.5t-80.5 27.5q-55 0 -95 -34.5t-61.5 -97
t-21.5 -143.5q0 -84 28.5 -127t91.5 -43q40 0 71 19t50.5 47t28.5 56l150 -44q-16 -47 -51 -95.5zM434 810h-2l-51 -64h-99l82 140h162l36 -140h-99z" />
    <glyph glyph-name="ccircumflex" unicode="&#x109;" horiz-adv-x="534" 
d="M377.5 311q0.5 5 0.5 12q0 11 -4.5 26.5t-19 29t-42.5 13.5q-31 0 -56.5 -22t-40 -64.5t-14.5 -99.5q0 -51 18 -76.5t51 -25.5q35 0 57.5 20.5t35.5 63.5l144 -21q-13 -49 -43.5 -89.5t-82.5 -66t-127 -25.5q-74 0 -123.5 27t-74 74.5t-24.5 110.5q0 95 35 165
t99.5 107.5t151.5 37.5q79 0 125 -29.5t63.5 -67.5t17.5 -69q0 -7 -0.5 -12t-0.5 -6l-146 -19q0 1 0.5 6zM338 616h-2l-51 -64h-99l82 140h162l36 -140h-99z" />
    <glyph glyph-name="Cdotaccent" unicode="&#x10a;" horiz-adv-x="648" 
d="M593 104.5q-35 -48.5 -101 -84.5t-162 -36q-100 0 -163.5 41.5t-92 109t-28.5 149.5q0 126 44.5 220.5t128 146t197.5 51.5q96 0 151 -36t75 -76.5t25 -68.5q3 -16 4 -26.5t1 -13.5l-155 -39q0 4 -1 16.5t-4 23.5q-7 30 -29.5 57.5t-80.5 27.5q-55 0 -95 -34.5t-61.5 -97
t-21.5 -143.5q0 -84 28.5 -127t91.5 -43q40 0 71 19t50.5 47t28.5 56l150 -44q-16 -47 -51 -95.5zM390 890h112l-22 -140h-112z" />
    <glyph glyph-name="cdotaccent" unicode="&#x10b;" horiz-adv-x="534" 
d="M377.5 311q0.5 5 0.5 12q0 11 -4.5 26.5t-19 29t-42.5 13.5q-31 0 -56.5 -22t-40 -64.5t-14.5 -99.5q0 -51 18 -76.5t51 -25.5q35 0 57.5 20.5t35.5 63.5l144 -21q-13 -49 -43.5 -89.5t-82.5 -66t-127 -25.5q-74 0 -123.5 27t-74 74.5t-24.5 110.5q0 95 35 165
t99.5 107.5t151.5 37.5q79 0 125 -29.5t63.5 -67.5t17.5 -69q0 -7 -0.5 -12t-0.5 -6l-146 -19q0 1 0.5 6zM293 692h112l-22 -140h-112z" />
    <glyph glyph-name="Ccaron" unicode="&#x10c;" horiz-adv-x="648" 
d="M593 104.5q-35 -48.5 -101 -84.5t-162 -36q-100 0 -163.5 41.5t-92 109t-28.5 149.5q0 126 44.5 220.5t128 146t197.5 51.5q96 0 151 -36t75 -76.5t25 -68.5q3 -16 4 -26.5t1 -13.5l-155 -39q0 4 -1 16.5t-4 23.5q-7 30 -29.5 57.5t-80.5 27.5q-55 0 -95 -34.5t-61.5 -97
t-21.5 -143.5q0 -84 28.5 -127t91.5 -43q40 0 71 19t50.5 47t28.5 56l150 -44q-16 -47 -51 -95.5zM304 886h99l29 -64h2l51 64h99l-82 -140h-162z" />
    <glyph glyph-name="ccaron" unicode="&#x10d;" horiz-adv-x="534" 
d="M377.5 311q0.5 5 0.5 12q0 11 -4.5 26.5t-19 29t-42.5 13.5q-31 0 -56.5 -22t-40 -64.5t-14.5 -99.5q0 -51 18 -76.5t51 -25.5q35 0 57.5 20.5t35.5 63.5l144 -21q-13 -49 -43.5 -89.5t-82.5 -66t-127 -25.5q-74 0 -123.5 27t-74 74.5t-24.5 110.5q0 95 35 165
t99.5 107.5t151.5 37.5q79 0 125 -29.5t63.5 -67.5t17.5 -69q0 -7 -0.5 -12t-0.5 -6l-146 -19q0 1 0.5 6zM208 692h99l29 -64h2l51 64h99l-82 -140h-162z" />
    <glyph glyph-name="Dcaron" unicode="&#x10e;" horiz-adv-x="684" 
d="M145 688h247q148 0 217 -75t69 -203q0 -119 -45 -212t-131.5 -145.5t-207.5 -52.5h-270zM413.5 174.5q46.5 37.5 67.5 99.5t21 138q0 74 -33 106.5t-103 32.5h-76l-73 -414h77q73 0 119.5 37.5zM293 886h99l29 -64h2l51 64h99l-82 -140h-162z" />
    <glyph glyph-name="dcaron" unicode="&#x10f;" horiz-adv-x="583" 
d="M332 56h-2q0 -3 -18 -21t-49 -33.5t-73 -15.5q-73 0 -114.5 52t-41.5 153q0 94 32 166t87 111.5t122 39.5q45 0 71.5 -16.5t37.5 -34.5t11 -23h2l45 259h167l-122 -693h-165zM371.5 280.5q2.5 15.5 2.5 33.5q0 73 -57 73q-36 0 -61 -27.5t-37 -70t-12 -89.5
q0 -46 14 -70.5t48 -24.5q40 0 61.5 33t30.5 83l7 40q1 4 3.5 19.5zM667 692h152l-90 -161h-112z" />
    <glyph glyph-name="Dcroat" unicode="&#x110;" horiz-adv-x="684" 
d="M77 302h-49l24 136h49l44 250h247q148 0 217 -75t69 -203q0 -119 -45 -212t-131.5 -145.5t-207.5 -52.5h-270zM413.5 174.5q46.5 37.5 67.5 99.5t21 138q0 74 -33 106.5t-103 32.5h-76l-20 -114h106l-24 -135h-106l-29 -165h77q73 0 119.5 37.5z" />
    <glyph glyph-name="dcroat" unicode="&#x111;" horiz-adv-x="585" 
d="M332 56h-2q0 -3 -18 -21t-49 -33.5t-73 -15.5q-73 0 -114.5 52t-41.5 153q0 94 32 166t87 111.5t122 39.5q45 0 71.5 -16.5t37.5 -34.5t11 -23h2l21 120h-134l16 90h134l8 49h167l-9 -49h47l-16 -90h-46l-98 -554h-165zM371.5 280.5q2.5 15.5 2.5 33.5q0 73 -57 73
q-36 0 -61 -27.5t-37 -70t-12 -89.5q0 -46 14 -70.5t48 -24.5q40 0 61.5 33t30.5 83l7 40q1 4 3.5 19.5z" />
    <glyph glyph-name="Emacron" unicode="&#x112;" horiz-adv-x="550" 
d="M145 688h459l-49 -135h-265l-20 -116h244l-24 -136h-244l-29 -164h273l2 -137h-468zM232 864h322l-16 -94h-322z" />
    <glyph glyph-name="emacron" unicode="&#x113;" horiz-adv-x="526" 
d="M391 17.5q-62 -31.5 -143 -31.5q-58 0 -106.5 22.5t-79 71.5t-30.5 124q0 95 38 163.5t102.5 104.5t141.5 36q73 0 119 -20.5t66.5 -54.5t20.5 -77q0 -53 -34 -85.5t-78 -48.5q-32 -12 -76 -18t-90 -6q-17 0 -29.5 1t-16.5 2q0 -2 -1 -8t-1 -15q0 -33 15 -54.5t51 -21.5
q67 0 96 50l132 -44q-35 -59 -97 -90.5zM306 410q-23 0 -44 -13t-36 -38.5t-20 -61.5l28 -1q53 0 89.5 16t36.5 50q0 48 -54 48zM179 670h322l-16 -94h-322z" />
    <glyph glyph-name="Ebreve" unicode="&#x114;" horiz-adv-x="550" 
d="M145 688h459l-49 -135h-265l-20 -116h244l-24 -136h-244l-29 -164h273l2 -137h-468zM491 775q-43 -31 -113 -31q-69 0 -102 31t-36 95l92 20q1 -28 15 -42t46 -14q33 0 50.5 13.5t27.5 42.5l87 -20q-24 -64 -67 -95z" />
    <glyph glyph-name="ebreve" unicode="&#x115;" horiz-adv-x="526" 
d="M391 17.5q-62 -31.5 -143 -31.5q-58 0 -106.5 22.5t-79 71.5t-30.5 124q0 95 38 163.5t102.5 104.5t141.5 36q73 0 119 -20.5t66.5 -54.5t20.5 -77q0 -53 -34 -85.5t-78 -48.5q-32 -12 -76 -18t-90 -6q-17 0 -29.5 1t-16.5 2q0 -2 -1 -8t-1 -15q0 -33 15 -54.5t51 -21.5
q67 0 96 50l132 -44q-35 -59 -97 -90.5zM306 410q-23 0 -44 -13t-36 -38.5t-20 -61.5l28 -1q53 0 89.5 16t36.5 50q0 48 -54 48zM432 581q-43 -31 -113 -31q-69 0 -102 31t-36 95l92 20q1 -28 15 -42t46 -14q33 0 50.5 13.5t27.5 42.5l87 -20q-24 -64 -67 -95z" />
    <glyph glyph-name="Edotaccent" unicode="&#x116;" horiz-adv-x="550" 
d="M145 688h459l-49 -135h-265l-20 -116h244l-24 -136h-244l-29 -164h273l2 -137h-468zM346 890h112l-22 -140h-112z" />
    <glyph glyph-name="edotaccent" unicode="&#x117;" horiz-adv-x="526" 
d="M391 17.5q-62 -31.5 -143 -31.5q-58 0 -106.5 22.5t-79 71.5t-30.5 124q0 95 38 163.5t102.5 104.5t141.5 36q73 0 119 -20.5t66.5 -54.5t20.5 -77q0 -53 -34 -85.5t-78 -48.5q-32 -12 -76 -18t-90 -6q-17 0 -29.5 1t-16.5 2q0 -2 -1 -8t-1 -15q0 -33 15 -54.5t51 -21.5
q67 0 96 50l132 -44q-35 -59 -97 -90.5zM306 410q-23 0 -44 -13t-36 -38.5t-20 -61.5l28 -1q53 0 89.5 16t36.5 50q0 48 -54 48zM287 692h112l-22 -140h-112z" />
    <glyph glyph-name="Eogonek" unicode="&#x118;" horiz-adv-x="550" 
d="M416.5 -204.5q-14.5 -7.5 -39.5 -13.5t-59 -6q-33 0 -58 13.5t-38.5 37.5t-13.5 54q0 37 16 62.5t34 38.5t26 16v2h-260l121 688h459l-49 -135h-265l-20 -116h244l-24 -136h-244l-29 -164h273l2 -137q-51 0 -88 -13t-55.5 -33t-18.5 -42q0 -20 10.5 -31t29.5 -11
q25 0 39 7t15 7l7 -80q0 -1 -14.5 -8.5z" />
    <glyph glyph-name="eogonek" unicode="&#x119;" horiz-adv-x="526" 
d="M401.5 -205q-13.5 -7 -39 -13t-59.5 -6q-33 0 -58.5 13.5t-39 38t-13.5 54.5q0 31 12 53.5t27.5 36.5t15.5 12v2q-58 1 -106.5 23.5t-78.5 71t-30 123.5q0 95 38 163.5t102.5 104.5t141.5 36q73 0 119 -20.5t66.5 -54.5t20.5 -77q0 -53 -34 -85.5t-78 -48.5
q-32 -12 -76 -18t-90 -6q-17 0 -29.5 1t-16.5 2q0 -2 -1 -8t-1 -15q0 -33 15 -54.5t51 -21.5q67 0 96 50l132 -44q-18 -32 -47.5 -57t-66.5 -41q-60 -37 -60 -98q0 -20 11.5 -31t31.5 -11q13 0 24.5 3t17.5 6.5t8 4.5h2l9 -80q-3 -2 -16.5 -9zM306 410q-23 0 -44 -13
t-36 -38.5t-20 -61.5l28 -1q53 0 89.5 16t36.5 50q0 48 -54 48z" />
    <glyph glyph-name="Ecaron" unicode="&#x11a;" horiz-adv-x="550" 
d="M145 688h459l-49 -135h-265l-20 -116h244l-24 -136h-244l-29 -164h273l2 -137h-468zM261 886h99l29 -64h2l51 64h99l-82 -140h-162z" />
    <glyph glyph-name="ecaron" unicode="&#x11b;" horiz-adv-x="526" 
d="M391 17.5q-62 -31.5 -143 -31.5q-58 0 -106.5 22.5t-79 71.5t-30.5 124q0 95 38 163.5t102.5 104.5t141.5 36q73 0 119 -20.5t66.5 -54.5t20.5 -77q0 -53 -34 -85.5t-78 -48.5q-32 -12 -76 -18t-90 -6q-17 0 -29.5 1t-16.5 2q0 -2 -1 -8t-1 -15q0 -33 15 -54.5t51 -21.5
q67 0 96 50l132 -44q-35 -59 -97 -90.5zM306 410q-23 0 -44 -13t-36 -38.5t-20 -61.5l28 -1q53 0 89.5 16t36.5 50q0 48 -54 48zM202 692h99l29 -64h2l51 64h99l-82 -140h-162z" />
    <glyph glyph-name="Gcircumflex" unicode="&#x11c;" horiz-adv-x="684" 
d="M344 278l24 135h296l-56 -313q-11 -15 -41 -40.5t-91 -50t-148 -24.5q-99 0 -162 41.5t-91.5 109.5t-28.5 152q0 126 45.5 220t128 144t192.5 50q98 0 154.5 -34.5t78 -72.5t21.5 -49l-147 -63q0 6 -9.5 27t-35 40t-70.5 19q-52 0 -93 -31.5t-65 -93.5t-24 -149
q0 -91 32.5 -133t91.5 -42q33 0 56.5 8.5t36.5 18.5t13 12l21 119h-129zM443 810h-2l-51 -64h-99l82 140h162l36 -140h-99z" />
    <glyph glyph-name="gcircumflex" unicode="&#x11d;" horiz-adv-x="584" 
d="M334 84q-14 -21 -48.5 -46.5t-95.5 -25.5q-73 0 -114.5 51t-41.5 146q0 90 33.5 158t88.5 104.5t118 36.5q46 0 73.5 -16.5t38.5 -34.5t11 -23h2l11 60h165l-83 -472q-13 -74 -46 -120t-89.5 -67.5t-142.5 -21.5q-79 0 -125.5 22t-64.5 54t-18 67l154 24
q0 -27 14.5 -44.5t47.5 -17.5q32 0 47.5 6t25.5 16q9 9 15.5 22t10.5 38l15 84h-2zM372.5 281q2.5 16 2.5 33q0 29 -13 52t-46 23q-37 0 -61.5 -26.5t-36 -64.5t-11.5 -73q0 -48 15 -71t49 -23q36 0 60.5 27t34.5 86l3 17q1 4 3.5 20zM368 616h-2l-51 -64h-99l82 140h162
l36 -140h-99z" />
    <glyph glyph-name="Gbreve" unicode="&#x11e;" horiz-adv-x="684" 
d="M344 278l24 135h296l-56 -313q-11 -15 -41 -40.5t-91 -50t-148 -24.5q-99 0 -162 41.5t-91.5 109.5t-28.5 152q0 126 45.5 220t128 144t192.5 50q98 0 154.5 -34.5t78 -72.5t21.5 -49l-147 -63q0 6 -9.5 27t-35 40t-70.5 19q-52 0 -93 -31.5t-65 -93.5t-24 -149
q0 -91 32.5 -133t91.5 -42q33 0 56.5 8.5t36.5 18.5t13 12l21 119h-129zM544 775q-43 -31 -113 -31q-69 0 -102 31t-36 95l92 20q1 -28 15 -42t46 -14q33 0 50.5 13.5t27.5 42.5l87 -20q-24 -64 -67 -95z" />
    <glyph glyph-name="gbreve" unicode="&#x11f;" horiz-adv-x="584" 
d="M334 84q-14 -21 -48.5 -46.5t-95.5 -25.5q-73 0 -114.5 51t-41.5 146q0 90 33.5 158t88.5 104.5t118 36.5q46 0 73.5 -16.5t38.5 -34.5t11 -23h2l11 60h165l-83 -472q-13 -74 -46 -120t-89.5 -67.5t-142.5 -21.5q-79 0 -125.5 22t-64.5 54t-18 67l154 24
q0 -27 14.5 -44.5t47.5 -17.5q32 0 47.5 6t25.5 16q9 9 15.5 22t10.5 38l15 84h-2zM372.5 281q2.5 16 2.5 33q0 29 -13 52t-46 23q-37 0 -61.5 -26.5t-36 -64.5t-11.5 -73q0 -48 15 -71t49 -23q36 0 60.5 27t34.5 86l3 17q1 4 3.5 20zM454 581q-43 -31 -113 -31
q-69 0 -102 31t-36 95l92 20q1 -28 15 -42t46 -14q33 0 50.5 13.5t27.5 42.5l87 -20q-24 -64 -67 -95z" />
    <glyph glyph-name="Gdotaccent" unicode="&#x120;" horiz-adv-x="684" 
d="M344 278l24 135h296l-56 -313q-11 -15 -41 -40.5t-91 -50t-148 -24.5q-99 0 -162 41.5t-91.5 109.5t-28.5 152q0 126 45.5 220t128 144t192.5 50q98 0 154.5 -34.5t78 -72.5t21.5 -49l-147 -63q0 6 -9.5 27t-35 40t-70.5 19q-52 0 -93 -31.5t-65 -93.5t-24 -149
q0 -91 32.5 -133t91.5 -42q33 0 56.5 8.5t36.5 18.5t13 12l21 119h-129zM390 890h112l-22 -140h-112z" />
    <glyph glyph-name="gdotaccent" unicode="&#x121;" horiz-adv-x="584" 
d="M334 84q-14 -21 -48.5 -46.5t-95.5 -25.5q-73 0 -114.5 51t-41.5 146q0 90 33.5 158t88.5 104.5t118 36.5q46 0 73.5 -16.5t38.5 -34.5t11 -23h2l11 60h165l-83 -472q-13 -74 -46 -120t-89.5 -67.5t-142.5 -21.5q-79 0 -125.5 22t-64.5 54t-18 67l154 24
q0 -27 14.5 -44.5t47.5 -17.5q32 0 47.5 6t25.5 16q9 9 15.5 22t10.5 38l15 84h-2zM372.5 281q2.5 16 2.5 33q0 29 -13 52t-46 23q-37 0 -61.5 -26.5t-36 -64.5t-11.5 -73q0 -48 15 -71t49 -23q36 0 60.5 27t34.5 86l3 17q1 4 3.5 20zM301 692h112l-22 -140h-112z" />
    <glyph glyph-name="Gcommaaccent" unicode="&#x122;" horiz-adv-x="684" 
d="M344 278l24 135h296l-56 -313q-11 -15 -41 -40.5t-91 -50t-148 -24.5q-99 0 -162 41.5t-91.5 109.5t-28.5 152q0 126 45.5 220t128 144t192.5 50q98 0 154.5 -34.5t78 -72.5t21.5 -49l-147 -63q0 6 -9.5 27t-35 40t-70.5 19q-52 0 -93 -31.5t-65 -93.5t-24 -149
q0 -91 32.5 -133t91.5 -42q33 0 56.5 8.5t36.5 18.5t13 12l21 119h-129zM248 -261q18 22 23 51l3 17h-51l24 139h135l-24 -142q-9 -53 -37.5 -89.5t-73.5 -57.5l-40 50q23 10 41 32z" />
    <glyph glyph-name="gcommaaccent" unicode="&#x123;" horiz-adv-x="584" 
d="M390 759q-18 -22 -23 -51l-3 -17h51l-24 -139h-135l24 142q9 53 37.5 89.5t73.5 57.5l40 -50q-23 -10 -41 -32zM334 84q-14 -21 -48.5 -46.5t-95.5 -25.5q-73 0 -114.5 51t-41.5 146q0 90 33.5 158t88.5 104.5t118 36.5q46 0 73.5 -16.5t38.5 -34.5t11 -23h2l11 60h165
l-83 -472q-13 -74 -46 -120t-89.5 -67.5t-142.5 -21.5q-79 0 -125.5 22t-64.5 54t-18 67l154 24q0 -27 14.5 -44.5t47.5 -17.5q32 0 47.5 6t25.5 16q9 9 15.5 22t10.5 38l15 84h-2zM372.5 281q2.5 16 2.5 33q0 29 -13 52t-46 23q-37 0 -61.5 -26.5t-36 -64.5t-11.5 -73
q0 -48 15 -71t49 -23q36 0 60.5 27t34.5 86l3 17q1 4 3.5 20z" />
    <glyph glyph-name="Hcircumflex" unicode="&#x124;" horiz-adv-x="682" 
d="M460 299h-215l-52 -299h-169l121 688h169l-44 -248h215l44 248h169l-121 -688h-169zM442 810h-2l-51 -64h-99l82 140h162l36 -140h-99z" />
    <glyph glyph-name="hcircumflex" unicode="&#x125;" horiz-adv-x="590" 
d="M374 284q5 30 5 42q0 21 -11.5 38t-43.5 17q-34 0 -56 -27t-29 -70l-50 -284h-167l122 693h167l-46 -261h2q17 25 53.5 50.5t95.5 25.5q67 0 102.5 -36.5t35.5 -97.5q0 -18 -8 -62l-55 -312h-167zM246 814h-2l-51 -64h-99l82 140h162l36 -140h-99z" />
    <glyph glyph-name="Hbar" unicode="&#x126;" horiz-adv-x="682" 
d="M460 299h-215l-52 -299h-169l88 504h-48l21 115h48l12 69h169l-13 -69h216l12 69h169l-12 -69h48l-21 -115h-48l-88 -504h-169zM278 504l-12 -70h221l12 70h-221z" />
    <glyph glyph-name="hbar" unicode="&#x127;" horiz-adv-x="590" 
d="M374 284q5 30 5 42q0 21 -11.5 38t-43.5 17q-34 0 -56 -27t-29 -70l-50 -284h-167l97 554h-46l16 90h46l9 49h167l-9 -49h134l-16 -90h-134l-21 -122h2q17 25 53.5 50.5t95.5 25.5q67 0 102.5 -36.5t35.5 -97.5q0 -18 -8 -62l-55 -312h-167z" />
    <glyph glyph-name="Itilde" unicode="&#x128;" horiz-adv-x="300" 
d="M364.5 764.5q-29.5 -22.5 -63.5 -22.5q-23 0 -40 8t-25 16l-5 5q-2 2 -8.5 9t-13 11t-12.5 4q-10 0 -15.5 -7t-10.5 -23l-6 -20l-76 17l12 41q13 46 43 68t65 22q22 0 38.5 -8t24.5 -16l5 -5q2 -2 8.5 -9t13 -11t12.5 -4q10 0 15.5 7t10.5 23l6 20l76 -17l-12 -41
q-13 -45 -42.5 -67.5zM147 688h169l-121 -688h-169z" />
    <glyph glyph-name="itilde" unicode="&#x129;" horiz-adv-x="285" 
d="M325.5 569.5q-29.5 -22.5 -63.5 -22.5q-23 0 -40 8t-25 16l-5 5q-2 2 -8.5 9t-13 11t-12.5 4q-10 0 -15.5 -7t-10.5 -23l-6 -20l-76 17l12 41q13 46 43 68t65 22q22 0 38.5 -8t24.5 -16l5 -5q2 -2 8.5 -9t13 -11t12.5 -4q10 0 15.5 7t10.5 23l6 20l76 -17l-12 -41
q-13 -45 -42.5 -67.5zM109 494h167l-87 -494h-167z" />
    <glyph glyph-name="Imacron" unicode="&#x12a;" horiz-adv-x="300" 
d="M134 864h248l-15 -94h-248zM147 688h169l-121 -688h-169z" />
    <glyph glyph-name="imacron" unicode="&#x12b;" horiz-adv-x="285" 
d="M89 670h260l-15 -94h-260zM109 494h167l-87 -494h-167z" />
    <glyph glyph-name="Ibreve" unicode="&#x12c;" horiz-adv-x="300" 
d="M338.5 775.5q-38.5 -31.5 -100.5 -31.5t-90.5 32t-31.5 94l90 20q-1 -25 10 -40.5t36 -15.5t40.5 15.5t23.5 40.5l84 -20q-23 -63 -61.5 -94.5zM147 688h169l-121 -688h-169z" />
    <glyph glyph-name="ibreve" unicode="&#x12d;" horiz-adv-x="285" 
d="M299 581.5q-38 -31.5 -101 -31.5t-91 32t-29 94l90 20q-2 -25 8.5 -40.5t35.5 -15.5t40 15.5t22 40.5l84 -20q-21 -63 -59 -94.5zM109 494h167l-87 -494h-167z" />
    <glyph glyph-name="Iogonek" unicode="&#x12e;" horiz-adv-x="300" 
d="M139.5 -205q-13.5 -7 -38.5 -13t-59 -6q-33 0 -58 13.5t-38.5 37.5t-13.5 54q0 54 29 90.5t69 54.5l117 662h169l-121 -688q-31 0 -63.5 -8t-55.5 -27.5t-23 -52.5q0 -20 11 -31t31 -11q14 0 25 3t17.5 6.5t8.5 4.5h2l8 -80q-3 -2 -16.5 -9z" />
    <glyph glyph-name="iogonek" unicode="&#x12f;" horiz-adv-x="285" 
d="M144 693h167l-24 -133h-167zM136 -204.5q-14 -7.5 -39 -13.5t-59 -6q-33 0 -58 13.5t-38.5 37.5t-13.5 55q0 54 29 91.5t70 53.5l82 467h167l-87 -494q-20 0 -41.5 -4t-38.5 -10q-23 -9 -42 -28t-19 -46q0 -20 11 -31t31 -11q14 0 25 3t17 6.5t8 4.5h2l8 -80
q0 -1 -14 -8.5z" />
    <glyph glyph-name="Idotaccent" unicode="&#x130;" horiz-adv-x="300" 
d="M213 884h105l-24 -134h-105zM147 688h169l-121 -688h-169z" />
    <glyph glyph-name="dotlessi" unicode="&#x131;" horiz-adv-x="285" 
d="M109 494h167l-87 -494h-167z" />
    <glyph glyph-name="Jcircumflex" unicode="&#x134;" horiz-adv-x="530" 
d="M549 688l-83 -472q-16 -89 -50 -139.5t-85.5 -71.5t-124.5 -21q-102 0 -151 43t-49 127q0 26 6 49.5t12 38t8 18.5l144 38q-2 -4 -8 -19t-12 -38.5t-6 -48.5q0 -42 13.5 -60t46.5 -18q35 0 56 21.5t30 74.5l84 478h169zM478 810h-2l-51 -64h-99l82 140h162l36 -140h-99z
" />
    <glyph glyph-name="jcircumflex" unicode="&#x135;" horiz-adv-x="285" 
d="M-64 -66q5 -3 14 -5t17 -2q22 0 34 11q13 13 19 50l89 506h167l-92 -524q-6 -36 -21 -65.5t-37 -50.5q-22 -20 -54 -30t-68 -10q-32 0 -62 7.5t-46 16.5l38 96h2zM215 616h-2l-51 -64h-99l82 140h162l36 -140h-99z" />
    <glyph glyph-name="Kcommaaccent" unicode="&#x136;" horiz-adv-x="636" 
d="M307 298l-74 -72l-40 -226h-169l121 688h169l-44 -252h2l240 252h198l-281 -272l159 -416h-176zM218 -260q18 22 23 51l3 17h-51l24 139h135l-24 -142q-9 -53 -37.5 -89.5t-73.5 -57.5l-40 50q23 10 41 32z" />
    <glyph glyph-name="kcommaaccent" unicode="&#x137;" horiz-adv-x="542" 
d="M283 216l-67 -60l-27 -156h-167l122 693h167l-49 -275q-6 -33 -12 -58t-8 -33h2q4 5 19.5 23.5t34.5 37.5l108 106h190l-188 -167l108 -327h-172zM190 -261q18 22 23 51l3 17h-51l24 139h135l-24 -142q-9 -53 -37.5 -89.5t-73.5 -57.5l-40 50q23 10 41 32z" />
    <glyph glyph-name="kgreenlandic" unicode="&#x138;" horiz-adv-x="542" 
d="M283 216l-67 -60l-27 -156h-167l87 494h167l-14 -76q-6 -33 -12 -58t-8 -33h2q4 5 19.5 23.5t34.5 37.5l108 106h190l-188 -167l108 -327h-172z" />
    <glyph glyph-name="Lacute" unicode="&#x139;" horiz-adv-x="500" 
d="M145 688h169l-97 -551h243l2 -137h-438zM243 886h161l-114 -140h-128z" />
    <glyph glyph-name="lacute" unicode="&#x13a;" horiz-adv-x="314" 
d="M280.5 2.5q-17.5 -5.5 -48 -11t-66.5 -5.5q-61 0 -91.5 29.5t-30.5 84.5q0 17 3.5 42.5t6.5 39.5l90 511h167l-89 -505q-2 -10 -4 -22.5t-2 -21.5q0 -19 7 -27.5t25 -8.5q15 0 27 3.5t15 4.5h2l10 -106q-4 -2 -21.5 -7.5zM236 896h161l-114 -140h-128z" />
    <glyph glyph-name="Lcommaaccent" unicode="&#x13b;" horiz-adv-x="500" 
d="M145 688h169l-97 -551h243l2 -137h-438zM172 -260q18 22 23 51l3 17h-51l24 139h135l-24 -142q-9 -53 -37.5 -89.5t-73.5 -57.5l-40 50q23 10 41 32z" />
    <glyph glyph-name="lcommaaccent" unicode="&#x13c;" horiz-adv-x="314" 
d="M280.5 2.5q-17.5 -5.5 -48 -11t-66.5 -5.5q-61 0 -91.5 29.5t-30.5 84.5q0 17 3.5 42.5t6.5 39.5l90 511h167l-89 -505q-2 -10 -4 -22.5t-2 -21.5q0 -19 7 -27.5t25 -8.5q15 0 27 3.5t15 4.5h2l10 -106q-4 -2 -21.5 -7.5zM72 -260q18 22 23 51l3 17h-51l24 139h135
l-24 -142q-9 -53 -37.5 -89.5t-73.5 -57.5l-40 50q23 10 41 32z" />
    <glyph glyph-name="Lcaron" unicode="&#x13d;" horiz-adv-x="500" 
d="M145 688h169l-97 -551h243l2 -137h-438zM410 684h152l-100 -211h-112z" />
    <glyph glyph-name="lcaron" unicode="&#x13e;" horiz-adv-x="314" 
d="M280.5 2.5q-17.5 -5.5 -48 -11t-66.5 -5.5q-61 0 -91.5 29.5t-30.5 84.5q0 17 3.5 42.5t6.5 39.5l90 511h167l-89 -505q-2 -10 -4 -22.5t-2 -21.5q0 -19 7 -27.5t25 -8.5q15 0 27 3.5t15 4.5h2l10 -106q-4 -2 -21.5 -7.5zM371 692h152l-90 -161h-112z" />
    <glyph glyph-name="Ldot" unicode="&#x13f;" horiz-adv-x="500" 
d="M145 688h169l-97 -551h243l2 -137h-438zM372 476h132l-26 -146h-132z" />
    <glyph glyph-name="ldot" unicode="&#x140;" horiz-adv-x="438" 
d="M280.5 2.5q-17.5 -5.5 -48 -11t-66.5 -5.5q-61 0 -91.5 29.5t-30.5 84.5q0 17 3.5 42.5t6.5 39.5l90 511h167l-89 -505q-2 -10 -4 -22.5t-2 -21.5q0 -19 7 -27.5t25 -8.5q15 0 27 3.5t15 4.5h2l10 -106q-4 -2 -21.5 -7.5zM336 434h130l-26 -146h-130z" />
    <glyph glyph-name="Lslash" unicode="&#x141;" horiz-adv-x="500" 
d="M66 238l-54 -37l26 139l52 34l55 314h169l-33 -185l121 81l-26 -139l-119 -80l-40 -228h243l2 -137h-438z" />
    <glyph glyph-name="lslash" unicode="&#x142;" horiz-adv-x="314" 
d="M280.5 2.5q-17.5 -5.5 -48 -11t-66.5 -5.5q-61 0 -91.5 29.5t-30.5 84.5q0 17 3.5 42.5t6.5 39.5l2 10l-49 -32l24 137l49 32l64 364h167l-43 -240l55 36l-24 -137l-55 -36l-22 -128q-2 -10 -4 -22.5t-2 -21.5q0 -19 7 -27.5t25 -8.5q15 0 27 3.5t15 4.5h2l10 -106
q-4 -2 -21.5 -7.5z" />
    <glyph glyph-name="Nacute" unicode="&#x143;" horiz-adv-x="680" 
d="M276 390q-6 21 -9.5 43.5t-4.5 28.5h-2q-1 -8 -4 -37t-8 -59l-64 -366h-160l121 688h193l112 -368q6 -21 9.5 -43.5t4.5 -28.5h2q1 8 4 37t8 59l60 344h160l-121 -688h-181zM439 886h161l-114 -140h-128z" />
    <glyph glyph-name="nacute" unicode="&#x144;" horiz-adv-x="590" 
d="M374 284q5 30 5 42q0 21 -11.5 38t-43.5 17q-34 0 -56 -27t-29 -70l-50 -284h-167l87 494h165l-11 -62h2q17 25 54.5 50.5t96.5 25.5q67 0 102.5 -36.5t35.5 -97.5q0 -18 -8 -62l-55 -312h-167zM346 692h161l-114 -140h-128z" />
    <glyph glyph-name="Ncommaaccent" unicode="&#x145;" horiz-adv-x="680" 
d="M276 390q-6 21 -9.5 43.5t-4.5 28.5h-2q-1 -8 -4 -37t-8 -59l-64 -366h-160l121 688h193l112 -368q6 -21 9.5 -43.5t4.5 -28.5h2q1 8 4 37t8 59l60 344h160l-121 -688h-181zM235 -261q18 22 23 51l3 17h-51l24 139h135l-24 -142q-9 -53 -37.5 -89.5t-73.5 -57.5l-40 50
q23 10 41 32z" />
    <glyph glyph-name="ncommaaccent" unicode="&#x146;" horiz-adv-x="590" 
d="M374 284q5 30 5 42q0 21 -11.5 38t-43.5 17q-34 0 -56 -27t-29 -70l-50 -284h-167l87 494h165l-11 -62h2q17 25 54.5 50.5t96.5 25.5q67 0 102.5 -36.5t35.5 -97.5q0 -18 -8 -62l-55 -312h-167zM183 -261q18 22 23 51l3 17h-51l24 139h135l-24 -142q-9 -53 -37.5 -89.5
t-73.5 -57.5l-40 50q23 10 41 32z" />
    <glyph glyph-name="Ncaron" unicode="&#x147;" horiz-adv-x="680" 
d="M276 390q-6 21 -9.5 43.5t-4.5 28.5h-2q-1 -8 -4 -37t-8 -59l-64 -366h-160l121 688h193l112 -368q6 -21 9.5 -43.5t4.5 -28.5h2q1 8 4 37t8 59l60 344h160l-121 -688h-181zM309 886h99l29 -64h2l51 64h99l-82 -140h-162z" />
    <glyph glyph-name="ncaron" unicode="&#x148;" horiz-adv-x="590" 
d="M374 284q5 30 5 42q0 21 -11.5 38t-43.5 17q-34 0 -56 -27t-29 -70l-50 -284h-167l87 494h165l-11 -62h2q17 25 54.5 50.5t96.5 25.5q67 0 102.5 -36.5t35.5 -97.5q0 -18 -8 -62l-55 -312h-167zM226 692h99l29 -64h2l51 64h99l-82 -140h-162z" />
    <glyph glyph-name="napostrophe" unicode="&#x149;" horiz-adv-x="740" 
d="M95 475.5q19 24.5 23 58.5l1 8h-54l24 146h140l-22 -142q-10 -62 -38.5 -102.5t-76.5 -63.5l-42 58q26 13 45 37.5zM524 284q5 30 5 42q0 21 -11.5 38t-43.5 17q-34 0 -56 -27t-29 -70l-50 -284h-167l87 494h165l-11 -62h2q17 25 54.5 50.5t96.5 25.5q67 0 102.5 -36.5
t35.5 -97.5q0 -18 -8 -62l-55 -312h-167z" />
    <glyph glyph-name="Eng" unicode="&#x14a;" horiz-adv-x="680" 
d="M311 -48q3 -2 16 -6t27 -4q19 0 30.5 10t15.5 34l-124 404q-6 21 -9.5 43.5t-4.5 28.5h-2q-1 -8 -4 -37t-8 -59l-64 -366h-160l121 688h193l112 -368q6 -21 9.5 -43.5t4.5 -28.5h2q1 8 4 37t8 59l60 344h160l-126 -720q-27 -156 -183 -156q-32 0 -59 5.5t-43 11t-20 7.5
l42 116h2z" />
    <glyph glyph-name="eng" unicode="&#x14b;" horiz-adv-x="590" 
d="M238 -66q5 -3 14 -5t17 -2q20 0 32 11q15 15 21 50l52 296q5 30 5 42q0 21 -11.5 38t-43.5 17q-34 0 -56 -27t-29 -70l-50 -284h-167l87 494h165l-11 -62h2q17 25 54.5 50.5t96.5 25.5q67 0 102.5 -36.5t35.5 -97.5q0 -18 -8 -62l-60 -342q-6 -36 -20.5 -65.5
t-37.5 -50.5q-22 -20 -54 -30t-68 -10q-32 0 -62 7.5t-46 16.5l38 96h2z" />
    <glyph glyph-name="Omacron" unicode="&#x14c;" horiz-adv-x="706" 
d="M160.5 29q-63.5 44 -89 111t-25.5 144q0 127 45.5 221.5t129 145.5t195.5 51q106 0 169.5 -44t89 -111t25.5 -144q0 -127 -45.5 -221.5t-129 -145.5t-195.5 -51q-106 0 -169.5 44zM434.5 151.5q40.5 31.5 64 93.5t23.5 150q0 77 -26.5 124.5t-93.5 47.5
q-50 0 -90.5 -31.5t-64 -93.5t-23.5 -150q0 -77 26.5 -124.5t93.5 -47.5q50 0 90.5 31.5zM292 864h322l-16 -94h-322z" />
    <glyph glyph-name="omacron" unicode="&#x14d;" horiz-adv-x="568" 
d="M129.5 15q-50.5 29 -74 77.5t-23.5 107.5q0 88 33 157.5t99 110t160 40.5q76 0 126.5 -29t74 -77.5t23.5 -107.5q0 -88 -33 -157.5t-99 -110t-160 -40.5q-76 0 -126.5 29zM331 132.5q24 28.5 34.5 70t10.5 81.5q0 51 -15 78.5t-51 27.5q-37 0 -61 -28t-34.5 -69
t-10.5 -81q0 -52 15 -80t51 -28q37 0 61 28.5zM190 670h322l-16 -94h-322z" />
    <glyph glyph-name="Obreve" unicode="&#x14e;" horiz-adv-x="706" 
d="M160.5 29q-63.5 44 -89 111t-25.5 144q0 127 45.5 221.5t129 145.5t195.5 51q106 0 169.5 -44t89 -111t25.5 -144q0 -127 -45.5 -221.5t-129 -145.5t-195.5 -51q-106 0 -169.5 44zM434.5 151.5q40.5 31.5 64 93.5t23.5 150q0 77 -26.5 124.5t-93.5 47.5
q-50 0 -90.5 -31.5t-64 -93.5t-23.5 -150q0 -77 26.5 -124.5t93.5 -47.5q50 0 90.5 31.5zM544 775q-43 -31 -113 -31q-69 0 -102 31t-36 95l92 20q1 -28 15 -42t46 -14q33 0 50.5 13.5t27.5 42.5l87 -20q-24 -64 -67 -95z" />
    <glyph glyph-name="obreve" unicode="&#x14f;" horiz-adv-x="568" 
d="M129.5 15q-50.5 29 -74 77.5t-23.5 107.5q0 88 33 157.5t99 110t160 40.5q76 0 126.5 -29t74 -77.5t23.5 -107.5q0 -88 -33 -157.5t-99 -110t-160 -40.5q-76 0 -126.5 29zM331 132.5q24 28.5 34.5 70t10.5 81.5q0 51 -15 78.5t-51 27.5q-37 0 -61 -28t-34.5 -69
t-10.5 -81q0 -52 15 -80t51 -28q37 0 61 28.5zM443 581q-43 -31 -113 -31q-69 0 -102 31t-36 95l92 20q1 -28 15 -42t46 -14q33 0 50.5 13.5t27.5 42.5l87 -20q-24 -64 -67 -95z" />
    <glyph glyph-name="Ohungarumlaut" unicode="&#x150;" horiz-adv-x="706" 
d="M160.5 29q-63.5 44 -89 111t-25.5 144q0 127 45.5 221.5t129 145.5t195.5 51q106 0 169.5 -44t89 -111t25.5 -144q0 -127 -45.5 -221.5t-129 -145.5t-195.5 -51q-106 0 -169.5 44zM434.5 151.5q40.5 31.5 64 93.5t23.5 150q0 77 -26.5 124.5t-93.5 47.5
q-50 0 -90.5 -31.5t-64 -93.5t-23.5 -150q0 -77 26.5 -124.5t93.5 -47.5q50 0 90.5 31.5zM342 886h161l-114 -140h-128zM542 886h161l-114 -140h-128z" />
    <glyph glyph-name="ohungarumlaut" unicode="&#x151;" horiz-adv-x="568" 
d="M129.5 15q-50.5 29 -74 77.5t-23.5 107.5q0 88 33 157.5t99 110t160 40.5q76 0 126.5 -29t74 -77.5t23.5 -107.5q0 -88 -33 -157.5t-99 -110t-160 -40.5q-76 0 -126.5 29zM331 132.5q24 28.5 34.5 70t10.5 81.5q0 51 -15 78.5t-51 27.5q-37 0 -61 -28t-34.5 -69
t-10.5 -81q0 -52 15 -80t51 -28q37 0 61 28.5zM245 692h161l-114 -140h-128zM445 692h161l-114 -140h-128z" />
    <glyph glyph-name="OE" unicode="&#x152;" horiz-adv-x="900" 
d="M408.5 -4.5q-10.5 -3.5 -31 -7t-47.5 -3.5q-106 0 -169.5 44t-89 111t-25.5 144q0 127 45.5 221.5t129 145.5t195.5 51q43 0 73 -7.5t41 -12.5l1 6h423l-49 -135h-229l-20 -116h208l-24 -136h-208l-29 -164h237l2 -137h-420zM485 550.5q-18 16.5 -83 16.5
q-50 0 -90.5 -31.5t-64 -93.5t-23.5 -150q0 -77 26.5 -124.5t93.5 -47.5q28 0 48 6t31 13t13 9l68 386q-1 0 -19 16.5z" />
    <glyph glyph-name="oe" unicode="&#x153;" horiz-adv-x="862" 
d="M729 17.5q-62 -31.5 -143 -31.5q-54 0 -92.5 16.5t-59.5 37.5h-2q-26 -22 -72 -38t-106 -16q-76 0 -126.5 29t-74 77.5t-23.5 107.5q0 88 33 157.5t99 110t160 40.5q53 0 93 -14.5t67 -39.5h2q0 2 22.5 16t60 26t85.5 12q73 0 119 -20.5t66.5 -54.5t20.5 -77
q0 -53 -34 -85.5t-78 -48.5q-32 -12 -76 -18t-90 -6q-17 0 -29.5 1t-16.5 2q0 -2 -1 -8t-1 -15q0 -33 15 -54.5t51 -21.5q67 0 96 50l132 -44q-35 -59 -97 -90.5zM644 410q-23 0 -44 -13t-36 -38.5t-20 -61.5l28 -1q53 0 89.5 16t36.5 50q0 48 -54 48zM329 132.5
q24 28.5 34.5 70t10.5 81.5q0 51 -15 78.5t-51 27.5q-37 0 -61 -28t-34.5 -69t-10.5 -81q0 -52 15 -80t51 -28q37 0 61 28.5z" />
    <glyph glyph-name="Racute" unicode="&#x154;" horiz-adv-x="640" 
d="M310 288h-67l-50 -288h-169l121 688h291q90 0 147 -39.5t57 -130.5q0 -61 -25 -107t-64 -72.5t-81 -32.5l118 -306h-176zM436.5 436.5q23.5 19.5 23.5 63.5q0 31 -17 45t-51 14h-102l-25 -142h103q45 0 68.5 19.5zM389 886h161l-114 -140h-128z" />
    <glyph glyph-name="racute" unicode="&#x155;" horiz-adv-x="400" 
d="M109 494h165l-14 -78h2q20 45 49.5 67t72.5 22q18 0 31.5 -4t20 -8.5t8.5 -6.5l-48 -143h-2q-2 1 -9 5t-19.5 8t-27.5 4q-35 0 -64.5 -24.5t-41.5 -93.5l-43 -242h-167zM243 692h161l-114 -140h-128z" />
    <glyph glyph-name="Rcommaaccent" unicode="&#x156;" horiz-adv-x="640" 
d="M310 288h-67l-50 -288h-169l121 688h291q90 0 147 -39.5t57 -130.5q0 -61 -25 -107t-64 -72.5t-81 -32.5l118 -306h-176zM436.5 436.5q23.5 19.5 23.5 63.5q0 31 -17 45t-51 14h-102l-25 -142h103q45 0 68.5 19.5zM218 -260q18 22 23 51l3 17h-51l24 139h135l-24 -142
q-9 -53 -37.5 -89.5t-73.5 -57.5l-40 50q23 10 41 32z" />
    <glyph glyph-name="rcommaaccent" unicode="&#x157;" horiz-adv-x="400" 
d="M109 494h165l-14 -78h2q20 45 49.5 67t72.5 22q18 0 31.5 -4t20 -8.5t8.5 -6.5l-48 -143h-2q-2 1 -9 5t-19.5 8t-27.5 4q-35 0 -64.5 -24.5t-41.5 -93.5l-43 -242h-167zM31 -261q18 22 23 51l3 17h-51l24 139h135l-24 -142q-9 -53 -37.5 -89.5t-73.5 -57.5l-40 50
q23 10 41 32z" />
    <glyph glyph-name="Rcaron" unicode="&#x158;" horiz-adv-x="640" 
d="M310 288h-67l-50 -288h-169l121 688h291q90 0 147 -39.5t57 -130.5q0 -61 -25 -107t-64 -72.5t-81 -32.5l118 -306h-176zM436.5 436.5q23.5 19.5 23.5 63.5q0 31 -17 45t-51 14h-102l-25 -142h103q45 0 68.5 19.5zM287 886h99l29 -64h2l51 64h99l-82 -140h-162z" />
    <glyph glyph-name="rcaron" unicode="&#x159;" horiz-adv-x="400" 
d="M109 494h165l-14 -78h2q20 45 49.5 67t72.5 22q18 0 31.5 -4t20 -8.5t8.5 -6.5l-48 -143h-2q-2 1 -9 5t-19.5 8t-27.5 4q-35 0 -64.5 -24.5t-41.5 -93.5l-43 -242h-167zM160 692h99l29 -64h2l51 64h99l-82 -140h-162z" />
    <glyph glyph-name="Sacute" unicode="&#x15a;" horiz-adv-x="598" 
d="M87 494q0 62 30.5 109t89.5 73t141 26q76 0 130.5 -27t84.5 -60t39 -56l-120 -75q-13 28 -36 48t-49.5 30.5t-52.5 10.5q-39 0 -62 -16t-23 -45q0 -28 18 -43.5t57 -28.5l52 -18q41 -15 78 -33t74 -61t37 -108q0 -71 -34.5 -124.5t-98 -82t-146.5 -28.5q-79 0 -138.5 28
t-96 70.5t-53.5 88.5l137 62q14 -39 39.5 -65t56 -38.5t61.5 -12.5q44 0 71 20t27 55q0 32 -19.5 49.5t-54.5 29.5l-52 18q-187 66 -187 204zM387 886h161l-114 -140h-128z" />
    <glyph glyph-name="sacute" unicode="&#x15b;" horiz-adv-x="482" 
d="M341 374.5q-15 13.5 -34.5 21.5t-38.5 8q-29 0 -42.5 -8t-13.5 -24t14.5 -26.5t47.5 -21.5l42 -14q136 -45 136 -152q0 -51 -29 -90.5t-82 -61t-121 -21.5q-65 0 -111.5 21.5t-73.5 54.5t-37 69l136 36q10 -33 36 -52.5t58 -19.5q31 0 49.5 12t18.5 30q0 12 -6 20
t-19.5 15t-38.5 15l-42 14q-134 45 -134 150q0 50 26 86t74 55t114 19q60 0 103.5 -19.5t67.5 -44.5t31 -42l-110 -57q-6 14 -21 27.5zM297 692h161l-114 -140h-128z" />
    <glyph glyph-name="Scircumflex" unicode="&#x15c;" horiz-adv-x="598" 
d="M87 494q0 62 30.5 109t89.5 73t141 26q76 0 130.5 -27t84.5 -60t39 -56l-120 -75q-13 28 -36 48t-49.5 30.5t-52.5 10.5q-39 0 -62 -16t-23 -45q0 -28 18 -43.5t57 -28.5l52 -18q41 -15 78 -33t74 -61t37 -108q0 -71 -34.5 -124.5t-98 -82t-146.5 -28.5q-79 0 -138.5 28
t-96 70.5t-53.5 88.5l137 62q14 -39 39.5 -65t56 -38.5t61.5 -12.5q44 0 71 20t27 55q0 32 -19.5 49.5t-54.5 29.5l-52 18q-187 66 -187 204zM380 810h-2l-51 -64h-99l82 140h162l36 -140h-99z" />
    <glyph glyph-name="scircumflex" unicode="&#x15d;" horiz-adv-x="482" 
d="M341 374.5q-15 13.5 -34.5 21.5t-38.5 8q-29 0 -42.5 -8t-13.5 -24t14.5 -26.5t47.5 -21.5l42 -14q136 -45 136 -152q0 -51 -29 -90.5t-82 -61t-121 -21.5q-65 0 -111.5 21.5t-73.5 54.5t-37 69l136 36q10 -33 36 -52.5t58 -19.5q31 0 49.5 12t18.5 30q0 12 -6 20
t-19.5 15t-38.5 15l-42 14q-134 45 -134 150q0 50 26 86t74 55t114 19q60 0 103.5 -19.5t67.5 -44.5t31 -42l-110 -57q-6 14 -21 27.5zM300 616h-2l-51 -64h-99l82 140h162l36 -140h-99z" />
    <glyph glyph-name="Scedilla" unicode="&#x15e;" horiz-adv-x="598" 
d="M216 -6q-55 12 -97.5 40.5t-69.5 64t-41 73.5l137 62q14 -39 39.5 -65t56 -38.5t61.5 -12.5q44 0 71 20t27 55q0 32 -19.5 49.5t-54.5 29.5l-52 18q-187 66 -187 204q0 62 30.5 109t89.5 73t141 26q76 0 130.5 -27t84.5 -60t39 -56l-120 -75q-13 28 -36 48t-49.5 30.5
t-52.5 10.5q-39 0 -62 -16t-23 -45q0 -28 18 -43.5t57 -28.5l52 -18q41 -15 78 -33t74 -61t37 -108q0 -63 -27.5 -112.5t-78 -80t-118.5 -38.5l-65 -141h-173z" />
    <glyph glyph-name="scedilla" unicode="&#x15f;" horiz-adv-x="482" 
d="M143 -6q-61 16 -97 53.5t-48 82.5l136 36q10 -33 36 -52.5t58 -19.5q31 0 49.5 12t18.5 30q0 12 -6 20t-19.5 15t-38.5 15l-42 14q-134 45 -134 150q0 50 26 86t74 55t114 19q60 0 103.5 -19.5t67.5 -44.5t31 -42l-110 -57q-6 14 -21 27.5t-34.5 21.5t-38.5 8
q-29 0 -42.5 -8t-13.5 -24t14.5 -26.5t47.5 -21.5l42 -14q136 -45 136 -152q0 -44 -22 -80t-63 -59t-95 -30l-60 -131h-160z" />
    <glyph glyph-name="Scaron" unicode="&#x160;" horiz-adv-x="598" 
d="M87 494q0 62 30.5 109t89.5 73t141 26q76 0 130.5 -27t84.5 -60t39 -56l-120 -75q-13 28 -36 48t-49.5 30.5t-52.5 10.5q-39 0 -62 -16t-23 -45q0 -28 18 -43.5t57 -28.5l52 -18q41 -15 78 -33t74 -61t37 -108q0 -71 -34.5 -124.5t-98 -82t-146.5 -28.5q-79 0 -138.5 28
t-96 70.5t-53.5 88.5l137 62q14 -39 39.5 -65t56 -38.5t61.5 -12.5q44 0 71 20t27 55q0 32 -19.5 49.5t-54.5 29.5l-52 18q-187 66 -187 204zM251 886h99l29 -64h2l51 64h99l-82 -140h-162z" />
    <glyph glyph-name="scaron" unicode="&#x161;" horiz-adv-x="482" 
d="M341 374.5q-15 13.5 -34.5 21.5t-38.5 8q-29 0 -42.5 -8t-13.5 -24t14.5 -26.5t47.5 -21.5l42 -14q136 -45 136 -152q0 -51 -29 -90.5t-82 -61t-121 -21.5q-65 0 -111.5 21.5t-73.5 54.5t-37 69l136 36q10 -33 36 -52.5t58 -19.5q31 0 49.5 12t18.5 30q0 12 -6 20
t-19.5 15t-38.5 15l-42 14q-134 45 -134 150q0 50 26 86t74 55t114 19q60 0 103.5 -19.5t67.5 -44.5t31 -42l-110 -57q-6 14 -21 27.5zM170 692h99l29 -64h2l51 64h99l-82 -140h-162z" />
    <glyph glyph-name="Tcommaaccent" unicode="&#x162;" horiz-adv-x="536" 
d="M240 553h-182l24 135h548l-51 -135h-170l-97 -553h-169zM153 -261q18 22 23 51l3 17h-51l24 139h135l-24 -142q-9 -53 -37.5 -89.5t-73.5 -57.5l-40 50q23 10 41 32z" />
    <glyph glyph-name="tcommaaccent" unicode="&#x163;" horiz-adv-x="380" 
d="M311 4q-17 -6 -47.5 -12t-69.5 -6q-64 0 -95 30t-31 84q0 12 3 37t7 45l35 200h-75l20 112h75l20 114l173 44h2l-28 -158h108l-20 -112h-108l-36 -206q-2 -8 -3 -17t-1 -15q0 -18 8 -27t26 -9q15 0 28.5 5t17.5 7h2l10 -108q-4 -2 -21 -8zM118 -261q18 22 23 51l3 17h-51
l24 139h135l-24 -142q-9 -53 -37.5 -89.5t-73.5 -57.5l-40 50q23 10 41 32z" />
    <glyph glyph-name="Tcaron" unicode="&#x164;" horiz-adv-x="536" 
d="M240 553h-182l24 135h548l-51 -135h-170l-97 -553h-169zM231 886h99l29 -64h2l51 64h99l-82 -140h-162z" />
    <glyph glyph-name="tcaron" unicode="&#x165;" horiz-adv-x="380" 
d="M401 692h152l-90 -161h-112zM311 4q-17 -6 -47.5 -12t-69.5 -6q-64 0 -95 30t-31 84q0 12 3 37t7 45l35 200h-75l20 112h75l20 114l173 44h2l-28 -158h108l-20 -112h-108l-36 -206q-2 -8 -3 -17t-1 -15q0 -18 8 -27t26 -9q15 0 28.5 5t17.5 7h2l10 -108q-4 -2 -21 -8z
" />
    <glyph glyph-name="Tbar" unicode="&#x166;" horiz-adv-x="540" 
d="M200 302h-173l24 135h173l20 116h-182l24 135h548l-51 -135h-170l-20 -116h187l-52 -135h-159l-53 -302h-169z" />
    <glyph glyph-name="tbar" unicode="&#x167;" horiz-adv-x="388" 
d="M315 4q-17 -6 -47.5 -12t-69.5 -6q-64 0 -95 30t-31 84q0 12 3 37t7 45l4 26h-67l20 112h67l11 62h-75l20 112h75l20 114l173 44h2l-28 -158h108l-20 -112h-108l-11 -62h100l-38 -112h-82l-5 -32q-2 -8 -3 -17t-1 -15q0 -18 8 -27t26 -9q15 0 28.5 5t17.5 7h2l10 -108
q-4 -2 -21 -8z" />
    <glyph glyph-name="Utilde" unicode="&#x168;" horiz-adv-x="670" 
d="M688 688l-76 -432q-25 -142 -105 -206.5t-213 -64.5q-122 0 -179 55t-57 148q0 16 2.5 35.5t5.5 36.5l75 428h169l-74 -418q-4 -21 -4 -51q0 -46 20 -68.5t68 -22.5q51 0 81 32.5t43 105.5l75 422h169zM554.5 765q-28.5 -22 -68.5 -22q-22 0 -38.5 5.5t-25.5 11.5t-13 10
l-6 5q-1 1 -8 7t-16 10.5t-18 4.5q-26 0 -34 -33l-3 -12l-76 17l8 27q15 50 43.5 72t68.5 22q22 0 38.5 -5.5t25.5 -11.5t13 -10l6 -5q1 -1 8 -7t16 -10.5t18 -4.5q26 0 34 33l3 12l76 -17l-8 -27q-15 -50 -43.5 -72z" />
    <glyph glyph-name="utilde" unicode="&#x169;" horiz-adv-x="571" 
d="M321 62h-2q-18 -26 -52.5 -51t-92.5 -25q-66 0 -100 36t-34 98q0 9 2.5 29t4.5 33l55 312h167l-50 -284q-5 -30 -5 -44q0 -20 8.5 -36t39.5 -16q36 0 55.5 25t27.5 71l50 284h167l-87 -494h-165zM478.5 573q-28.5 -22 -68.5 -22q-22 0 -38.5 5.5t-25.5 11.5t-13 10l-6 5
q-1 1 -8 7t-16 10.5t-18 4.5q-26 0 -34 -33l-3 -12l-76 17l8 27q15 50 43.5 72t68.5 22q22 0 38.5 -5.5t25.5 -11.5t13 -10l6 -5q1 -1 8 -7t16 -10.5t18 -4.5q26 0 34 33l3 12l76 -17l-8 -27q-15 -50 -43.5 -72z" />
    <glyph glyph-name="Umacron" unicode="&#x16a;" horiz-adv-x="670" 
d="M688 688l-76 -432q-25 -142 -105 -206.5t-213 -64.5q-122 0 -179 55t-57 148q0 16 2.5 35.5t5.5 36.5l75 428h169l-74 -418q-4 -21 -4 -51q0 -46 20 -68.5t68 -22.5q51 0 81 32.5t43 105.5l75 422h169zM276 864h322l-16 -94h-322z" />
    <glyph glyph-name="umacron" unicode="&#x16b;" horiz-adv-x="571" 
d="M321 62h-2q-18 -26 -52.5 -51t-92.5 -25q-66 0 -100 36t-34 98q0 9 2.5 29t4.5 33l55 312h167l-50 -284q-5 -30 -5 -44q0 -20 8.5 -36t39.5 -16q36 0 55.5 25t27.5 71l50 284h167l-87 -494h-165zM196 670h322l-16 -94h-322z" />
    <glyph glyph-name="Ubreve" unicode="&#x16c;" horiz-adv-x="670" 
d="M688 688l-76 -432q-25 -142 -105 -206.5t-213 -64.5q-122 0 -179 55t-57 148q0 16 2.5 35.5t5.5 36.5l75 428h169l-74 -418q-4 -21 -4 -51q0 -46 20 -68.5t68 -22.5q51 0 81 32.5t43 105.5l75 422h169zM530 775q-43 -31 -113 -31q-69 0 -102 31t-36 95l92 20
q1 -28 15 -42t46 -14q33 0 50.5 13.5t27.5 42.5l87 -20q-24 -64 -67 -95z" />
    <glyph glyph-name="ubreve" unicode="&#x16d;" horiz-adv-x="571" 
d="M321 62h-2q-18 -26 -52.5 -51t-92.5 -25q-66 0 -100 36t-34 98q0 9 2.5 29t4.5 33l55 312h167l-50 -284q-5 -30 -5 -44q0 -20 8.5 -36t39.5 -16q36 0 55.5 25t27.5 71l50 284h167l-87 -494h-165zM450 581q-43 -31 -113 -31q-69 0 -102 31t-36 95l92 20q1 -28 15 -42
t46 -14q33 0 50.5 13.5t27.5 42.5l87 -20q-24 -64 -67 -95z" />
    <glyph glyph-name="Uring" unicode="&#x16e;" horiz-adv-x="670" 
d="M688 688l-76 -432q-25 -142 -105 -206.5t-213 -64.5q-122 0 -179 55t-57 148q0 16 2.5 35.5t5.5 36.5l75 428h169l-74 -418q-4 -21 -4 -51q0 -46 20 -68.5t68 -22.5q51 0 81 32.5t43 105.5l75 422h169zM336 742q-32 18 -32 58q0 36 19.5 60.5t51.5 36t70 11.5
q48 0 80 -18t32 -58q0 -37 -19.5 -61t-52 -35.5t-70.5 -11.5q-47 0 -79 18zM459.5 846.5q-8.5 8.5 -23.5 8.5q-19 0 -31.5 -13.5t-12.5 -33.5q0 -14 8.5 -22.5t23.5 -8.5q19 0 31.5 13.5t12.5 33.5q0 14 -8.5 22.5z" />
    <glyph glyph-name="uring" unicode="&#x16f;" horiz-adv-x="571" 
d="M321 62h-2q-18 -26 -52.5 -51t-92.5 -25q-66 0 -100 36t-34 98q0 9 2.5 29t4.5 33l55 312h167l-50 -284q-5 -30 -5 -44q0 -20 8.5 -36t39.5 -16q36 0 55.5 25t27.5 71l50 284h167l-87 -494h-165zM457 579q-21 -23 -53 -33t-69 -10q-48 0 -81 18t-33 56q0 36 20.5 59
t53 33t68.5 10q49 0 82 -18t33 -56q0 -36 -21 -59zM379.5 652q-8.5 8 -24.5 8q-19 0 -32 -12t-13 -30q0 -14 8.5 -22t24.5 -8q19 0 32 12t13 30q0 14 -8.5 22z" />
    <glyph glyph-name="Uhungarumlaut" unicode="&#x170;" horiz-adv-x="670" 
d="M688 688l-76 -432q-25 -142 -105 -206.5t-213 -64.5q-122 0 -179 55t-57 148q0 16 2.5 35.5t5.5 36.5l75 428h169l-74 -418q-4 -21 -4 -51q0 -46 20 -68.5t68 -22.5q51 0 81 32.5t43 105.5l75 422h169zM308 886h161l-114 -140h-128zM508 886h161l-114 -140h-128z" />
    <glyph glyph-name="uhungarumlaut" unicode="&#x171;" horiz-adv-x="571" 
d="M321 62h-2q-18 -26 -52.5 -51t-92.5 -25q-66 0 -100 36t-34 98q0 9 2.5 29t4.5 33l55 312h167l-50 -284q-5 -30 -5 -44q0 -20 8.5 -36t39.5 -16q36 0 55.5 25t27.5 71l50 284h167l-87 -494h-165zM241 692h161l-114 -140h-128zM441 692h161l-114 -140h-128z" />
    <glyph glyph-name="Uogonek" unicode="&#x172;" horiz-adv-x="670" 
d="M425.5 -205q-13.5 -7 -38.5 -13t-59 -6q-33 0 -58 13.5t-38.5 37.5t-13.5 54q0 32 11.5 54.5t25.5 36.5t14 12l1 2q-106 4 -159 58t-53 144q0 16 2.5 35.5t5.5 36.5l75 428h169l-74 -418q-4 -21 -4 -51q0 -46 20 -68.5t68 -22.5q51 0 81 32.5t43 105.5l75 422h169
l-76 -432q-16 -89 -49.5 -141.5t-67.5 -74.5t-73 -36q-41 -15 -61.5 -39t-20.5 -53q0 -20 10.5 -31t30.5 -11q14 0 25.5 3t18 6.5t8.5 4.5h2l7 -80q-3 -2 -16.5 -9z" />
    <glyph glyph-name="uogonek" unicode="&#x173;" horiz-adv-x="571" 
d="M430 -204.5q-14 -7.5 -39 -13.5t-59 -6q-33 0 -58 13t-38.5 37t-13.5 54q0 53 27.5 81t60.5 39l11 62h-1q0 -2 -23 -22t-56.5 -37t-70.5 -17q-62 0 -96 36.5t-34 97.5q0 9 2.5 29t4.5 33l55 312h167l-50 -284q-5 -30 -5 -44q0 -20 8.5 -36t39.5 -16q36 0 55.5 25t27.5 71
l50 284h167l-87 -494q-73 -10 -103 -32t-30 -56q0 -20 11.5 -31t31.5 -11q13 0 24.5 3t17.5 6.5t8 4.5h2l7 -80q0 -1 -14 -8.5z" />
    <glyph glyph-name="Wcircumflex" unicode="&#x174;" horiz-adv-x="900" 
d="M489 440v44h-2q-1 -4 -5 -16.5t-9 -27.5l-161 -440h-186l-46 688h168l16 -408q1 -19 1 -35.5v-22.5h2q1 6 6 24.5t11 33.5l154 408h186l16 -408q1 -19 1 -35.5v-22.5h2q1 6 6 24.5t11 33.5l154 408h156l-282 -688h-186zM549 810h-2l-51 -64h-99l82 140h162l36 -140h-99z
" />
    <glyph glyph-name="wcircumflex" unicode="&#x175;" horiz-adv-x="746" 
d="M394 293q-1 13 -0.5 22.5t0.5 12.5h-2l-13 -36l-109 -292h-178l-44 494h162l8 -203q2 -58 2 -75v-43h2q4 12 16 47t26 72l77 202h165l8 -203q2 -58 2 -75v-43h2q4 12 16 47t26 72l77 202h157l-212 -494h-178zM445 616h-2l-51 -64h-99l82 140h162l36 -140h-99z" />
    <glyph glyph-name="Ycircumflex" unicode="&#x176;" horiz-adv-x="590" 
d="M219 285l-149 403h176l62 -196q5 -16 10.5 -39.5t6.5 -30.5h2q4 7 17 30.5t24 39.5l132 196h180l-292 -403l-50 -285h-169zM390 810h-2l-51 -64h-99l82 140h162l36 -140h-99z" />
    <glyph glyph-name="ycircumflex" unicode="&#x177;" horiz-adv-x="490" 
d="M42 494h168l22 -232q4 -35 5 -64.5t1 -37.5h2q3 8 13 34t21 50l114 250h162l-270 -542q-20 -41 -45 -70.5t-67 -48.5t-104 -19q-36 0 -64 7.5t-44 16.5t-16 10l54 104h2q4 -4 18.5 -9t31.5 -5q21 0 35.5 9.5t24.5 32.5l8 20zM320 616h-2l-51 -64h-99l82 140h162l36 -140
h-99z" />
    <glyph glyph-name="Ydieresis" unicode="&#x178;" horiz-adv-x="590" 
d="M219 285l-149 403h176l62 -196q5 -16 10.5 -39.5t6.5 -30.5h2q4 7 17 30.5t24 39.5l132 196h180l-292 -403l-50 -285h-169zM268 886h114l-25 -140h-114zM434 886h114l-25 -140h-114z" />
    <glyph glyph-name="Zacute" unicode="&#x179;" horiz-adv-x="578" 
d="M11 132l342 374q16 17 28.5 29t16.5 16v2q-5 0 -20 -1t-38 -1h-243l24 137h505l-23 -132l-342 -374q-16 -17 -28.5 -29t-16.5 -16v-2q5 0 20 1t38 1h267l-24 -137h-529zM382 886h161l-114 -140h-128z" />
    <glyph glyph-name="zacute" unicode="&#x17a;" horiz-adv-x="460" 
d="M0 90l228 248q11 13 25.5 25.5t18.5 16.5v2q-5 0 -21.5 -0.5t-41.5 -0.5h-147l20 113h394l-18 -102l-215 -235q-11 -12 -25.5 -25t-18.5 -17v-2q5 0 21.5 1t39.5 1h162l-19 -115h-419zM294 692h161l-114 -140h-128z" />
    <glyph glyph-name="Zdotaccent" unicode="&#x17b;" horiz-adv-x="578" 
d="M11 132l342 374q16 17 28.5 29t16.5 16v2q-5 0 -20 -1t-38 -1h-243l24 137h505l-23 -132l-342 -374q-16 -17 -28.5 -29t-16.5 -16v-2q5 0 20 1t38 1h267l-24 -137h-529zM336 890h112l-22 -140h-112z" />
    <glyph glyph-name="zdotaccent" unicode="&#x17c;" horiz-adv-x="460" 
d="M0 90l228 248q11 13 25.5 25.5t18.5 16.5v2q-5 0 -21.5 -0.5t-41.5 -0.5h-147l20 113h394l-18 -102l-215 -235q-11 -12 -25.5 -25t-18.5 -17v-2q5 0 21.5 1t39.5 1h162l-19 -115h-419zM243 692h112l-22 -140h-112z" />
    <glyph glyph-name="Zcaron" unicode="&#x17d;" horiz-adv-x="578" 
d="M11 132l342 374q16 17 28.5 29t16.5 16v2q-5 0 -20 -1t-38 -1h-243l24 137h505l-23 -132l-342 -374q-16 -17 -28.5 -29t-16.5 -16v-2q5 0 20 1t38 1h267l-24 -137h-529zM252 886h99l29 -64h2l51 64h99l-82 -140h-162z" />
    <glyph glyph-name="zcaron" unicode="&#x17e;" horiz-adv-x="460" 
d="M0 90l228 248q11 13 25.5 25.5t18.5 16.5v2q-5 0 -21.5 -0.5t-41.5 -0.5h-147l20 113h394l-18 -102l-215 -235q-11 -12 -25.5 -25t-18.5 -17v-2q5 0 21.5 1t39.5 1h162l-19 -115h-419zM161 692h99l29 -64h2l51 64h99l-82 -140h-162z" />
    <glyph glyph-name="florin" unicode="&#x192;" 
d="M265 46q-63 -160 -192 -160q-46 0 -77 12.5t-44 23.5l60 104h2q6 -6 18.5 -10t23.5 -4q23 0 38 19.5t27 50.5l96 243h-97l19 100h116l52 133q26 66 55 102t61 49t74 13q35 0 60 -7t39 -15t28 -18q-30 -57 -55 -103h-2q-9 8 -20 13.5t-28 5.5t-26.5 -5t-15.5 -13
q-9 -11 -17 -34l-47 -121h101l-18 -100h-121z" />
    <glyph glyph-name="Scommaaccent" unicode="&#x218;" horiz-adv-x="598" 
d="M87 494q0 62 30.5 109t89.5 73t141 26q76 0 130.5 -27t84.5 -60t39 -56l-120 -75q-13 28 -36 48t-49.5 30.5t-52.5 10.5q-39 0 -62 -16t-23 -45q0 -28 18 -43.5t57 -28.5l52 -18q41 -15 78 -33t74 -61t37 -108q0 -71 -34.5 -124.5t-98 -82t-146.5 -28.5q-79 0 -138.5 28
t-96 70.5t-53.5 88.5l137 62q14 -39 39.5 -65t56 -38.5t61.5 -12.5q44 0 71 20t27 55q0 32 -19.5 49.5t-54.5 29.5l-52 18q-187 66 -187 204zM208 -260q18 22 23 51l3 17h-51l24 139h135l-24 -142q-9 -53 -37.5 -89.5t-73.5 -57.5l-40 50q23 10 41 32z" />
    <glyph glyph-name="scommaaccent" unicode="&#x219;" horiz-adv-x="482" 
d="M341 374.5q-15 13.5 -34.5 21.5t-38.5 8q-29 0 -42.5 -8t-13.5 -24t14.5 -26.5t47.5 -21.5l42 -14q136 -45 136 -152q0 -51 -29 -90.5t-82 -61t-121 -21.5q-65 0 -111.5 21.5t-73.5 54.5t-37 69l136 36q10 -33 36 -52.5t58 -19.5q31 0 49.5 12t18.5 30q0 12 -6 20
t-19.5 15t-38.5 15l-42 14q-134 45 -134 150q0 50 26 86t74 55t114 19q60 0 103.5 -19.5t67.5 -44.5t31 -42l-110 -57q-6 14 -21 27.5zM137 -261q18 22 23 51l3 17h-51l24 139h135l-24 -142q-9 -53 -37.5 -89.5t-73.5 -57.5l-40 50q23 10 41 32z" />
    <glyph glyph-name="uni021A" unicode="&#x21a;" horiz-adv-x="536" 
d="M240 553h-182l24 135h548l-51 -135h-170l-97 -553h-169zM153 -261q18 22 23 51l3 17h-51l24 139h135l-24 -142q-9 -53 -37.5 -89.5t-73.5 -57.5l-40 50q23 10 41 32z" />
    <glyph glyph-name="uni021B" unicode="&#x21b;" horiz-adv-x="380" 
d="M311 4q-17 -6 -47.5 -12t-69.5 -6q-64 0 -95 30t-31 84q0 12 3 37t7 45l35 200h-75l20 112h75l20 114l173 44h2l-28 -158h108l-20 -112h-108l-36 -206q-2 -8 -3 -17t-1 -15q0 -18 8 -27t26 -9q15 0 28.5 5t17.5 7h2l10 -108q-4 -2 -21 -8zM118 -261q18 22 23 51l3 17h-51
l24 139h135l-24 -142q-9 -53 -37.5 -89.5t-73.5 -57.5l-40 50q23 10 41 32z" />
    <glyph glyph-name="uni0237" unicode="&#x237;" horiz-adv-x="285" 
d="M-64 -66q5 -3 14 -5t17 -2q22 0 34 11q13 13 19 50l89 506h167l-92 -524q-6 -36 -21 -65.5t-37 -50.5q-22 -20 -54 -30t-68 -10q-32 0 -62 7.5t-46 16.5l38 96h2z" />
    <glyph glyph-name="circumflex" unicode="&#x2c6;" 
d="M340 616h-2l-51 -64h-99l82 140h162l36 -140h-99z" />
    <glyph glyph-name="caron" unicode="&#x2c7;" 
d="M212 692h99l29 -64h2l51 64h99l-82 -140h-162z" />
    <glyph glyph-name="uni02C9" unicode="&#x2c9;" 
d="M188 670h322l-16 -94h-322z" />
    <glyph glyph-name="breve" unicode="&#x2d8;" 
d="M441 581q-43 -31 -113 -31q-69 0 -102 31t-36 95l92 20q1 -28 15 -42t46 -14q33 0 50.5 13.5t27.5 42.5l87 -20q-24 -64 -67 -95z" />
    <glyph glyph-name="dotaccent" unicode="&#x2d9;" 
d="M296 692h112l-22 -140h-112z" />
    <glyph glyph-name="ring" unicode="&#x2da;" 
d="M448 579q-21 -23 -53 -33t-69 -10q-48 0 -81 18t-33 56q0 36 20.5 59t53 33t68.5 10q49 0 82 -18t33 -56q0 -36 -21 -59zM370.5 652q-8.5 8 -24.5 8q-19 0 -32 -12t-13 -30q0 -14 8.5 -22t24.5 -8q19 0 32 12t13 30q0 14 -8.5 22z" />
    <glyph glyph-name="ogonek" unicode="&#x2db;" 
d="M333.5 -205q-13.5 -7 -38.5 -13t-59 -6q-33 0 -58 13.5t-38.5 37.5t-13.5 54q0 36 14 62.5t32 42.5t18 14h108q-18 -12 -34.5 -37t-16.5 -51q0 -20 11 -31t31 -11q14 0 25 3t17.5 6.5t8.5 4.5h2l8 -80q-3 -2 -16.5 -9z" />
    <glyph glyph-name="tilde" unicode="&#x2dc;" 
d="M472.5 573q-28.5 -22 -68.5 -22q-22 0 -38.5 5.5t-25.5 11.5t-13 10l-6 5q-1 1 -8 7t-16 10.5t-18 4.5q-26 0 -34 -33l-3 -12l-76 17l8 27q15 50 43.5 72t68.5 22q22 0 38.5 -5.5t25.5 -11.5t13 -10l6 -5q1 -1 8 -7t16 -10.5t18 -4.5q26 0 34 33l3 12l76 -17l-8 -27
q-15 -50 -43.5 -72z" />
    <glyph glyph-name="hungarumlaut" unicode="&#x2dd;" 
d="M201 692h161l-114 -140h-128zM401 692h161l-114 -140h-128z" />
    <glyph glyph-name="Delta" unicode="&#x394;" horiz-adv-x="562" 
d="M13 78l285 624h146l60 -624l-13 -78h-491zM342 542l-180 -420h212l-30 420h-2z" />
    <glyph glyph-name="Omega" unicode="&#x3a9;" 
d="M290 110q29 20 62 66t56.5 115.5t23.5 152.5q0 76 -21 113.5t-61 37.5t-76.5 -32t-59 -97.5t-22.5 -159.5q0 -50 7.5 -90t19 -67t23.5 -39l-20 -110h-232l22 120h100v2q-8 8 -21 34.5t-23.5 71t-10.5 102.5q0 114 39.5 203t110 138.5t161.5 49.5q68 0 114.5 -32.5
t69 -90.5t22.5 -135q0 -136 -49.5 -219.5t-92.5 -121.5v-2h94l-22 -120h-234z" />
    <glyph glyph-name="mu" unicode="&#x3bc;" horiz-adv-x="580" 
d="M326 64h-2q-17 -23 -52 -43.5t-89 -20.5l-32 -182h-166l117 676h167l-50 -287q-1 -3 -3 -17t-2 -25q0 -18 9.5 -32t37.5 -14q37 0 58.5 25t29.5 69l50 281h167l-87 -494h-165z" />
    <glyph glyph-name="pi" unicode="&#x3c0;" 
d="M308.5 19.5q-1.5 11.5 -1.5 27.5q0 43 12 106l45 256h-86q-17 -83 -53 -201.5t-77 -207.5h-134q45 96 80 208t52 201q-22 0 -40.5 -6t-29.5 -15h-2l-20 109q20 12 56 22.5t90 10.5h388l-23 -121h-66l-45 -256q-1 -7 -5 -30.5t-6 -42.5t-2 -33q0 -31 8 -47h-135
q-4 8 -5.5 19.5z" />
    <glyph glyph-name="Wgrave" unicode="&#x1e80;" horiz-adv-x="900" 
d="M489 440v44h-2q-1 -4 -5 -16.5t-9 -27.5l-161 -440h-186l-46 688h168l16 -408q1 -19 1 -35.5v-22.5h2q1 6 6 24.5t11 33.5l154 408h186l16 -408q1 -19 1 -35.5v-22.5h2q1 6 6 24.5t11 33.5l154 408h156l-282 -688h-186zM403 886h158l38 -140h-124z" />
    <glyph glyph-name="wgrave" unicode="&#x1e81;" horiz-adv-x="746" 
d="M394 293q-1 13 -0.5 22.5t0.5 12.5h-2l-13 -36l-109 -292h-178l-44 494h162l8 -203q2 -58 2 -75v-43h2q4 12 16 47t26 72l77 202h165l8 -203q2 -58 2 -75v-43h2q4 12 16 47t26 72l77 202h157l-212 -494h-178zM305 692h158l38 -140h-124z" />
    <glyph glyph-name="Wacute" unicode="&#x1e82;" horiz-adv-x="900" 
d="M489 440v44h-2q-1 -4 -5 -16.5t-9 -27.5l-161 -440h-186l-46 688h168l16 -408q1 -19 1 -35.5v-22.5h2q1 6 6 24.5t11 33.5l154 408h186l16 -408q1 -19 1 -35.5v-22.5h2q1 6 6 24.5t11 33.5l154 408h156l-282 -688h-186zM552 886h161l-114 -140h-128z" />
    <glyph glyph-name="wacute" unicode="&#x1e83;" horiz-adv-x="746" 
d="M394 293q-1 13 -0.5 22.5t0.5 12.5h-2l-13 -36l-109 -292h-178l-44 494h162l8 -203q2 -58 2 -75v-43h2q4 12 16 47t26 72l77 202h165l8 -203q2 -58 2 -75v-43h2q4 12 16 47t26 72l77 202h157l-212 -494h-178zM444 692h161l-114 -140h-128z" />
    <glyph glyph-name="Wdieresis" unicode="&#x1e84;" horiz-adv-x="900" 
d="M489 440v44h-2q-1 -4 -5 -16.5t-9 -27.5l-161 -440h-186l-46 688h168l16 -408q1 -19 1 -35.5v-22.5h2q1 6 6 24.5t11 33.5l154 408h186l16 -408q1 -19 1 -35.5v-22.5h2q1 6 6 24.5t11 33.5l154 408h156l-282 -688h-186zM419 886h114l-25 -140h-114zM585 886h114l-25 -140
h-114z" />
    <glyph glyph-name="wdieresis" unicode="&#x1e85;" horiz-adv-x="746" 
d="M394 293q-1 13 -0.5 22.5t0.5 12.5h-2l-13 -36l-109 -292h-178l-44 494h162l8 -203q2 -58 2 -75v-43h2q4 12 16 47t26 72l77 202h165l8 -203q2 -58 2 -75v-43h2q4 12 16 47t26 72l77 202h157l-212 -494h-178zM317 692h114l-25 -140h-114zM483 692h114l-25 -140h-114z" />
    <glyph glyph-name="uni1E9E" unicode="&#x1e9e;" horiz-adv-x="688" 
d="M308 133q10 -5 28.5 -10t43.5 -5q44 0 72 26t28 72q0 47 -37 77t-101 41v2l130 220v2q-2 1 -9.5 5t-23 7.5t-35.5 3.5q-44 0 -71 -16.5t-43.5 -53t-27.5 -100.5l-71 -404h-169l74 420q19 106 60.5 168t108 88t165.5 26q70 0 124 -18.5t86 -40.5t32 -25l-132 -224v-2
q0 3 31.5 -18.5t57 -60t25.5 -93.5q0 -73 -36 -126.5t-98.5 -81.5t-139.5 -28q-46 0 -79 7.5t-51.5 16.5t-18.5 10l65 122q2 -2 12 -7z" />
    <glyph glyph-name="Ygrave" unicode="&#x1ef2;" horiz-adv-x="590" 
d="M219 285l-149 403h176l62 -196q5 -16 10.5 -39.5t6.5 -30.5h2q4 7 17 30.5t24 39.5l132 196h180l-292 -403l-50 -285h-169zM253 886h158l38 -140h-124z" />
    <glyph glyph-name="ygrave" unicode="&#x1ef3;" horiz-adv-x="490" 
d="M42 494h168l22 -232q4 -35 5 -64.5t1 -37.5h2q3 8 13 34t21 50l114 250h162l-270 -542q-20 -41 -45 -70.5t-67 -48.5t-104 -19q-36 0 -64 7.5t-44 16.5t-16 10l54 104h2q4 -4 18.5 -9t31.5 -5q21 0 35.5 9.5t24.5 32.5l8 20zM178 692h158l38 -140h-124z" />
    <glyph glyph-name="endash" unicode="&#x2013;" 
d="M52 296h500l-16 -90h-500z" />
    <glyph glyph-name="emdash" unicode="&#x2014;" horiz-adv-x="936" 
d="M48 296h868l-16 -90h-868z" />
    <glyph glyph-name="quoteleft" unicode="&#x2018;" horiz-adv-x="282" 
d="M126 533q11 63 44 106.5t86 66.5l48 -60q-30 -14 -49.5 -40t-26.5 -61l-3 -17h59l-30 -164h-158z" />
    <glyph glyph-name="quoteright" unicode="&#x2019;" horiz-adv-x="282" 
d="M145.5 446q19.5 26 26.5 61l3 17h-59l30 164h158l-30 -169q-11 -63 -44 -106.5t-86 -66.5l-48 60q30 14 49.5 40z" />
    <glyph glyph-name="quotesinglbase" unicode="&#x201a;" horiz-adv-x="282" 
d="M53.5 -78q19.5 26 26.5 61l3 17h-59l30 164h158l-30 -169q-11 -63 -44 -106.5t-86 -66.5l-48 60q30 14 49.5 40z" />
    <glyph glyph-name="quotedblleft" unicode="&#x201c;" horiz-adv-x="494" 
d="M126 533q11 63 44 106.5t86 66.5l48 -60q-30 -14 -49.5 -40t-26.5 -61l-3 -17h59l-30 -164h-158zM340 533q11 63 44 106.5t86 66.5l48 -60q-30 -14 -49.5 -40t-26.5 -61l-3 -17h59l-30 -164h-158z" />
    <glyph glyph-name="quotedblright" unicode="&#x201d;" horiz-adv-x="494" 
d="M145.5 446q19.5 26 26.5 61l3 17h-59l30 164h158l-30 -169q-11 -63 -44 -106.5t-86 -66.5l-48 60q30 14 49.5 40zM359.5 446q19.5 26 26.5 61l3 17h-59l30 164h158l-30 -169q-11 -63 -44 -106.5t-86 -66.5l-48 60q30 14 49.5 40z" />
    <glyph glyph-name="quotedblbase" unicode="&#x201e;" horiz-adv-x="494" 
d="M53.5 -78q19.5 26 26.5 61l3 17h-59l30 164h158l-30 -169q-11 -63 -44 -106.5t-86 -66.5l-48 60q30 14 49.5 40zM267.5 -78q19.5 26 26.5 61l3 17h-59l30 164h158l-30 -169q-11 -63 -44 -106.5t-86 -66.5l-48 60q30 14 49.5 40z" />
    <glyph glyph-name="dagger" unicode="&#x2020;" 
d="M204 174l53 215l-189 -13l22 122l184 -13l22 215h132l-53 -215l189 13l-22 -122l-184 13l-22 -215l-83 -365h-95z" />
    <glyph glyph-name="daggerdbl" unicode="&#x2021;" 
d="M274 -191h-133l54 215l-189 -13l22 122l183 -13l7 135l41 134l-189 -13l21 122l185 -13l22 215h133l-54 -215l189 13l-22 -122l-183 13l-7 -134l-41 -135l189 13l-21 -122l-185 13z" />
    <glyph glyph-name="bullet" unicode="&#x2022;" 
d="M220 224q-27 16 -42.5 44t-15.5 64q0 44 20 81t55.5 58t78.5 21q35 0 62 -16t42.5 -44t15.5 -64q0 -44 -20 -81t-55.5 -58t-78.5 -21q-35 0 -62 16z" />
    <glyph glyph-name="ellipsis" unicode="&#x2026;" horiz-adv-x="846" 
d="M54 164h158l-30 -164h-158zM336 164h158l-30 -164h-158zM618 164h158l-30 -164h-158z" />
    <glyph glyph-name="perthousand" unicode="&#x2030;" horiz-adv-x="1296" 
d="M101.5 304.5q-37.5 47.5 -37.5 125.5q0 77 26 138.5t76.5 97.5t119.5 36q48 0 81 -22t49.5 -61t16.5 -90q0 -77 -26 -138.5t-76.5 -97.5t-119.5 -36q-72 0 -109.5 47.5zM667 688h108l-499 -688h-108zM267.5 373q17.5 27 26.5 70t9 91q0 41 -7.5 60t-25.5 19
q-23 0 -40.5 -27t-27 -71t-9.5 -91q0 -40 8 -59t26 -19q23 0 40.5 27zM547.5 33.5q-37.5 47.5 -37.5 125.5q0 77 26 138.5t76.5 97.5t119.5 36q48 0 81 -22t49.5 -61t16.5 -90q0 -77 -26 -138.5t-76.5 -97.5t-119.5 -36q-72 0 -109.5 47.5zM940.5 33.5
q-37.5 47.5 -37.5 125.5q0 77 26 138.5t76.5 97.5t119.5 36q48 0 81 -22t49.5 -61t16.5 -90q0 -77 -26 -138.5t-76.5 -97.5t-119.5 -36q-72 0 -109.5 47.5zM713.5 102q17.5 27 26.5 70t9 91q0 41 -7.5 60t-25.5 19q-23 0 -40.5 -27t-27 -71t-9.5 -91q0 -40 8 -59t26 -19
q23 0 40.5 27zM1106.5 102q17.5 27 26.5 70t9 91q0 41 -7.5 60t-25.5 19q-23 0 -40.5 -27t-27 -71t-9.5 -91q0 -40 8 -59t26 -19q23 0 40.5 27z" />
    <glyph glyph-name="guilsinglleft" unicode="&#x2039;" horiz-adv-x="282" 
d="M80 145.5q-15 61.5 -40 101.5q37 39 71.5 99.5t57.5 116.5l102 -35q-18 -48 -47 -98t-60 -82v-2q18 -33 28.5 -87t10.5 -101l-107 -26q-1 52 -16 113.5z" />
    <glyph glyph-name="guilsinglright" unicode="&#x203a;" horiz-adv-x="282" 
d="M66.5 165q28.5 50 59.5 81v2q-18 34 -29 88.5t-11 100.5l108 26q0 -51 15 -113t41 -103q-38 -38 -73 -99.5t-56 -115.5l-102 35q19 48 47.5 98z" />
    <glyph glyph-name="fraction" unicode="&#x2044;" horiz-adv-x="201" 
d="M318 688h108l-499 -688h-108z" />
    <glyph glyph-name="uni2070" unicode="&#x2070;" horiz-adv-x="457" 
d="M125.5 513.5q-37.5 47.5 -37.5 125.5q0 77 26 138.5t76.5 97.5t119.5 36q48 0 81 -22t49.5 -61t16.5 -90q0 -77 -26 -138.5t-76.5 -97.5t-119.5 -36q-72 0 -109.5 47.5zM291.5 582q17.5 27 26.5 70t9 91q0 41 -7.5 60t-25.5 19q-23 0 -40.5 -27t-27 -71t-9.5 -91
q0 -40 8 -59t26 -19q23 0 40.5 27z" />
    <glyph glyph-name="uni2074" unicode="&#x2074;" horiz-adv-x="457" 
d="M266 548h-206l18 97l227 253h149l-44 -257h55l-16 -93h-56l-11 -68h-128zM311 792q2 7 3 9h-2q-1 -3 -7.5 -13.5t-16.5 -21.5l-66 -74l-49 -53v-2h4q6 0 22.5 1t36.5 1h46l25 135q2 11 4 18z" />
    <glyph glyph-name="uni2075" unicode="&#x2075;" horiz-adv-x="457" 
d="M245 735h2q2 2 10.5 6.5t26.5 9t42 4.5q28 0 52.5 -11.5t40.5 -36.5t16 -64q0 -50 -23 -90t-67.5 -63.5t-107.5 -23.5q-67 0 -105 25.5t-38 69.5q0 13 2.5 22.5t3.5 11.5l117 19l-4 -12t-3 -20q0 -19 8.5 -29.5t26.5 -10.5q15 0 29 10t23 31.5t9 53.5q0 26 -9.5 39.5
t-26.5 13.5q-16 0 -29.5 -10t-20.5 -29l-104 18l65 228h282l-26 -81h-168z" />
    <glyph glyph-name="uni2076" unicode="&#x2076;" horiz-adv-x="457" 
d="M348 793.5q1 4.5 1 10.5q0 11 -6.5 21.5t-25.5 10.5q-36 0 -54 -27.5t-30 -82.5h2q12 10 21.5 16.5t27 11.5t42.5 5q55 0 84 -33t29 -85q0 -45 -21.5 -85t-64.5 -65t-103 -25q-75 0 -112 45t-37 124q0 86 26.5 148t77 95t120.5 33q71 0 101.5 -28t30.5 -67q0 -6 -1 -10.5
t-1 -5.5l-108 -12q0 1 1 5.5zM300 567.5q17 24.5 17 66.5q0 26 -10 41t-29 15q-27 0 -44 -24.5t-17 -66.5q0 -26 10 -41t29 -15q27 0 44 24.5z" />
    <glyph glyph-name="uni2077" unicode="&#x2077;" horiz-adv-x="457" 
d="M190.5 603q23.5 49 48.5 90q18 28 48.5 71t39.5 52v2q-6 0 -26 -1t-46 -1h-118l15 81h309l-15 -77q-23 -21 -51.5 -62.5t-53.5 -85.5q-46 -85 -79 -192h-117q22 74 45.5 123z" />
    <glyph glyph-name="uni2078" unicode="&#x2078;" horiz-adv-x="457" 
d="M368 705q20 -7 41.5 -26t21.5 -66q0 -42 -23.5 -75.5t-67.5 -52.5t-103 -19q-69 0 -106.5 31t-37.5 90q0 52 29 78.5t46 33.5t18 8q-20 10 -25 13t-16.5 20t-11.5 44q0 34 20 63t60.5 46.5t98.5 17.5q64 0 102 -27t38 -75q0 -39 -18 -61.5t-38.5 -31.5t-26.5 -9z
M321.5 751.5q14.5 17.5 14.5 48.5q0 20 -9 31t-26 11q-23 0 -37.5 -17t-14.5 -48q0 -20 9 -31.5t26 -11.5q23 0 37.5 17.5zM294 555q18 21 18 65q0 26 -10.5 39t-28.5 13q-25 0 -43 -21t-18 -65q0 -26 10.5 -39t28.5 -13q25 0 43 21z" />
    <glyph glyph-name="uni2079" unicode="&#x2079;" horiz-adv-x="457" 
d="M296.5 636.5q-9.5 -6.5 -27 -11.5t-42.5 -5q-55 0 -84 32.5t-29 83.5q0 45 21.5 85t64.5 65t103 25q75 0 112 -45t37 -124q0 -86 -26.5 -148t-77 -95t-120.5 -33q-71 0 -101.5 28t-30.5 67q0 6 1 10.5t1 5.5l108 12q0 -1 -1 -5.5t-1 -10.5q0 -10 7.5 -20.5t26.5 -10.5
q25 0 40.5 13.5t24.5 37t17 60.5h-2q-12 -10 -21.5 -16.5zM319 717q17 23 17 65q0 26 -10 41t-28 15q-28 0 -45 -23t-17 -65q0 -26 10 -41t28 -15q28 0 45 23z" />
    <glyph glyph-name="uni207A" unicode="&#x207a;" horiz-adv-x="457" 
d="M300 526h-99l20 112h-107l18 101h107l19 111h99l-19 -111h107l-18 -101h-107z" />
    <glyph glyph-name="uni207B" unicode="&#x207b;" horiz-adv-x="457" 
d="M132 739h313l-18 -101h-313z" />
    <glyph glyph-name="uni207C" unicode="&#x207c;" horiz-adv-x="457" 
d="M145 810h313l-17 -96h-313zM119 661h313l-17 -96h-313z" />
    <glyph glyph-name="uni207D" unicode="&#x207d;" horiz-adv-x="350" 
d="M169 501.5q-26 64.5 -26 133.5q0 73 28.5 140t74 120t98.5 88l59 -59q-47 -44 -90.5 -115t-43.5 -174q0 -65 17 -111t34 -72l-82 -62q-43 47 -69 111.5z" />
    <glyph glyph-name="uni207E" unicode="&#x207e;" horiz-adv-x="350" 
d="M90.5 512q27.5 34 53.5 94t26 135q0 65 -17 111t-34 72l81 59q29 -24 52 -62.5t36 -85.5t13 -97q0 -104 -55 -191t-150 -157l-60 62q27 26 54.5 60z" />
    <glyph glyph-name="uni2080" unicode="&#x2080;" horiz-adv-x="457" 
d="M76.5 -174.5q-37.5 47.5 -37.5 125.5q0 77 26 138.5t76.5 97.5t119.5 36q48 0 81 -22t49.5 -61t16.5 -90q0 -77 -26 -138.5t-76.5 -97.5t-119.5 -36q-72 0 -109.5 47.5zM242.5 -106q17.5 27 26.5 70t9 91q0 41 -7.5 60t-25.5 19q-23 0 -40.5 -27t-27 -71t-9.5 -91
q0 -40 8 -59t26 -19q23 0 40.5 27z" />
    <glyph glyph-name="uni2081" unicode="&#x2081;" horiz-adv-x="350" 
d="M150 82h-2q-13 -11 -33.5 -22t-33.5 -15l-27 81q32 8 72 33.5t58 51.5h116l-74 -419h-127z" />
    <glyph glyph-name="uni2082" unicode="&#x2082;" horiz-adv-x="457" 
d="M83.5 -83.5q44.5 50.5 108.5 89.5l23 14q29 18 44 30.5t21 24.5t6 28q0 19 -10 30.5t-30 11.5q-27 0 -41 -18.5t-14 -46.5q0 -11 1 -19.5t2 -10.5l-115 10q-1 2 -2 8.5t-1 16.5q0 46 25.5 77t67.5 46t93 15q72 0 111.5 -29.5t39.5 -80.5q0 -35 -17 -62.5t-39 -44.5
t-57 -39l-22 -14q-26 -17 -47 -33t-28 -31v-2h178l-16 -95h-336q10 74 54.5 124.5z" />
    <glyph glyph-name="uni2083" unicode="&#x2083;" horiz-adv-x="457" 
d="M340.5 4.5q15.5 -8.5 28 -28t12.5 -50.5q0 -42 -23 -75.5t-66.5 -53t-102.5 -19.5q-70 0 -106 27t-36 73q0 16 3.5 29t5.5 16l112 18q-2 -4 -6 -17t-4 -25q0 -43 38 -43q26 0 42 19t16 56q0 24 -11.5 36t-33.5 12h-27l13 71h27q27 0 46.5 14t19.5 43q0 18 -10 29.5
t-30 11.5q-24 0 -38 -15.5t-14 -42.5v-13l-101 11q0 2 -1 7t-1 13q0 32 18.5 58t56.5 41.5t93 15.5q70 0 106 -27.5t36 -72.5q0 -37 -18 -60t-38.5 -33.5t-32.5 -12.5v-2q11 -2 26.5 -10.5z" />
    <glyph glyph-name="uni2084" unicode="&#x2084;" horiz-adv-x="457" 
d="M222 -140h-206l18 97l227 253h149l-44 -257h55l-16 -93h-56l-11 -68h-128zM267 104q2 7 3 9h-2q-1 -3 -7.5 -13.5t-16.5 -21.5l-66 -74l-49 -53v-2h4q6 0 22.5 1t36.5 1h46l25 135q2 11 4 18z" />
    <glyph glyph-name="uni2085" unicode="&#x2085;" horiz-adv-x="457" 
d="M200 47h2q2 2 10.5 6.5t26.5 9t42 4.5q28 0 52.5 -11.5t40.5 -36.5t16 -64q0 -50 -23 -90t-67.5 -63.5t-107.5 -23.5q-67 0 -105 25.5t-38 69.5q0 13 2.5 22.5t3.5 11.5l117 19l-4 -12t-3 -20q0 -19 8.5 -29.5t26.5 -10.5q15 0 29 10t23 31.5t9 53.5q0 26 -9.5 39.5
t-26.5 13.5q-16 0 -29.5 -10t-20.5 -29l-104 18l65 228h282l-26 -81h-168z" />
    <glyph glyph-name="uni2086" unicode="&#x2086;" horiz-adv-x="457" 
d="M301 105.5q1 4.5 1 10.5q0 11 -6.5 21.5t-25.5 10.5q-36 0 -54 -27.5t-30 -82.5h2q12 10 21.5 16.5t27 11.5t42.5 5q55 0 84 -33t29 -85q0 -45 -21.5 -85t-64.5 -65t-103 -25q-75 0 -112 45t-37 124q0 86 26.5 148t77 95t120.5 33q71 0 101.5 -28t30.5 -67q0 -6 -1 -10.5
t-1 -5.5l-108 -12q0 1 1 5.5zM253 -120.5q17 24.5 17 66.5q0 26 -10 41t-29 15q-27 0 -44 -24.5t-17 -66.5q0 -26 10 -41t29 -15q27 0 44 24.5z" />
    <glyph glyph-name="uni2087" unicode="&#x2087;" horiz-adv-x="457" 
d="M147.5 -85q23.5 49 48.5 90q18 29 48.5 71.5t39.5 51.5v2q-6 0 -26 -1t-46 -1h-118l15 81h309l-15 -77q-23 -21 -51.5 -62.5t-53.5 -85.5q-46 -85 -79 -192h-117q22 74 45.5 123z" />
    <glyph glyph-name="uni2088" unicode="&#x2088;" horiz-adv-x="457" 
d="M323 17q20 -7 41.5 -26t21.5 -66q0 -42 -23.5 -75.5t-67.5 -52.5t-103 -19q-69 0 -106.5 31t-37.5 90q0 52 29 78.5t46 33.5t18 8q-20 10 -25 13t-16.5 20t-11.5 44q0 34 20 63t60.5 46.5t98.5 17.5q64 0 102 -27t38 -75q0 -39 -18 -61.5t-38.5 -31.5t-26.5 -9z
M276.5 63.5q14.5 17.5 14.5 48.5q0 20 -9 31t-26 11q-23 0 -37.5 -17t-14.5 -48q0 -20 9 -31.5t26 -11.5q23 0 37.5 17.5zM249 -133q18 21 18 65q0 26 -10.5 39t-28.5 13q-25 0 -43 -21t-18 -65q0 -26 10.5 -39t28.5 -13q25 0 43 21z" />
    <glyph glyph-name="uni2089" unicode="&#x2089;" horiz-adv-x="457" 
d="M250.5 -51.5q-9.5 -6.5 -27 -11.5t-42.5 -5q-55 0 -84 32.5t-29 83.5q0 45 21.5 85t64.5 65t103 25q75 0 112 -45t37 -124q0 -86 -26.5 -148t-77 -95t-120.5 -33q-71 0 -101.5 28t-30.5 67q0 6 1 10.5t1 5.5l108 12q0 -1 -1 -5.5t-1 -10.5q0 -10 7.5 -20.5t26.5 -10.5
q25 0 40.5 13.5t24.5 37t17 60.5h-2q-12 -10 -21.5 -16.5zM273 29q17 23 17 65q0 26 -10 41t-28 15q-28 0 -45 -23t-17 -65q0 -26 10 -41t28 -15q28 0 45 23z" />
    <glyph glyph-name="uni208A" unicode="&#x208a;" horiz-adv-x="457" 
d="M254 -162h-99l20 112h-107l18 101h107l19 111h99l-19 -111h107l-18 -101h-107z" />
    <glyph glyph-name="uni208B" unicode="&#x208b;" horiz-adv-x="457" 
d="M86 51h313l-18 -101h-313z" />
    <glyph glyph-name="uni208C" unicode="&#x208c;" horiz-adv-x="457" 
d="M99 122h313l-17 -96h-313zM73 -27h313l-17 -96h-313z" />
    <glyph glyph-name="uni208D" unicode="&#x208d;" horiz-adv-x="350" 
d="M123 -186.5q-26 64.5 -26 133.5q0 73 28.5 140t74 120t98.5 88l59 -59q-47 -44 -90.5 -115t-43.5 -174q0 -65 17 -111t34 -72l-82 -62q-43 47 -69 111.5z" />
    <glyph glyph-name="uni208E" unicode="&#x208e;" horiz-adv-x="350" 
d="M44.5 -176q27.5 34 53.5 94t26 135q0 65 -17 111t-34 72l81 59q29 -24 52 -62.5t36 -85.5t13 -97q0 -104 -55 -191t-150 -157l-60 62q27 26 54.5 60z" />
    <glyph glyph-name="Euro" unicode="&#x20ac;" 
d="M504 102q-26 -53 -81 -85t-137 -32q-115 0 -155 65.5t-40 164.5h-57l19 100h48q0 5 5 32t7 36h-49l19 100h60q31 109 97 164t166 55q64 0 104.5 -22t59 -57.5t18.5 -77.5q0 -16 -2.5 -29.5t-5.5 -21.5t-4 -10l-130 -18l4.5 18t3.5 31q0 31 -11.5 51.5t-44.5 20.5
q-39 0 -60.5 -26t-34.5 -79h101l-18 -99h-113q-3 -12 -7 -34t-5 -34h113l-18 -99h-103q-1 -3 -2 -12t-1 -23q0 -33 12 -54t47 -21q36 0 57 22.5t28.5 53t7.5 58.5l128 -20q0 -65 -26 -118z" />
    <glyph glyph-name="uni20B9" unicode="&#x20b9;" 
d="M180 190q-10 28 -18.5 41t-20 17t-33.5 4h-36l19 100h85q42 0 67.5 6t40.5 20.5t23 41.5h-205l19 100h202q0 28 -11.5 43t-34 20t-60.5 5h-85l19 100h449l-19 -100h-116v-2q8 -11 13 -29t5 -37h87l-19 -100h-81q-12 -52 -42.5 -86t-63.5 -50t-54 -16v-2q1 -1 4 -4.5
t8 -12t10 -21.5l90 -228h-174z" />
    <glyph glyph-name="uni20BA" unicode="&#x20ba;" 
d="M103 206l-67 -36l19 109l67 36l12 65l-67 -36l19 109l67 36l35 199h166l-20 -110l93 50l-19 -109l-92 -50l-12 -64l92 49l-19 -109l-92 -50l-32 -175q86 0 130.5 50t44.5 134q0 30 -2.5 52t-3.5 28l136 -14q1 -6 3.5 -28t2.5 -52q0 -95 -41.5 -160t-115 -97.5
t-171.5 -32.5h-170z" />
    <glyph glyph-name="afii61289" unicode="&#x2113;" horiz-adv-x="510" 
d="M402 23q-53 -33 -116 -33q-85 0 -128.5 46t-50.5 120q0 7 -1 11q-42 -34 -51 -41l-32 67q7 6 14 11.5t13 10.5q34 27 55 47v254q0 86 23.5 143t64 84t90.5 27q46 0 77 -23t46 -63t15 -91q0 -85 -50 -170.5t-146 -178.5l1 -43q0 -36 12 -61t32 -38t45 -13q37 0 70 26.5
t56 65.5l51 -52q-37 -73 -90 -106zM311 483q32 62 32 114q0 41 -13 62.5t-42 21.5q-26 0 -44.5 -38t-18.5 -125v-159q54 62 86 124z" />
    <glyph glyph-name="uni2117" unicode="&#x2117;" horiz-adv-x="744" 
d="M704 344.5q-44 -74.5 -118.5 -118.5t-163.5 -44t-163.5 44t-118.5 118.5t-44 163.5t44 163.5t118.5 118.5t163.5 44t163.5 -44t118.5 -118.5t44 -163.5t-44 -163.5zM554 279.5q60 35.5 95 96t35 132.5t-35 132.5t-95 96t-132 35.5t-132 -35.5t-95 -96t-35 -132.5
t35 -132.5t95 -96t132 -35.5t132 35.5zM327 688h155q49 0 79.5 -23t30.5 -79q0 -60 -39 -92t-109 -32h-61l-23 -134h-96zM482 545q14 13 14 37q0 20 -11 28t-31 8h-45l-15 -86h46q28 0 42 13z" />
    <glyph glyph-name="trademark" unicode="&#x2122;" horiz-adv-x="808" 
d="M182 612h-88l14 76h280l-30 -76h-80l-49 -284h-96zM690 559l10 51h-2q-1 -5 -5.5 -19t-10.5 -29l-88 -234h-98l-6 234l1 48h-2q0 -5 -2 -19.5t-5 -31.5l-41 -231h-89l64 360h154v-194q0 -20 -1 -34.5t-1 -18.5h2q1 5 5 21t10 32l69 194h154l-64 -360h-95z" />
    <glyph glyph-name="uni2126" unicode="&#x2126;" 
d="M290 110q29 20 62 66t56.5 115.5t23.5 152.5q0 76 -21 113.5t-61 37.5t-76.5 -32t-59 -97.5t-22.5 -159.5q0 -50 7.5 -90t19 -67t23.5 -39l-20 -110h-232l22 120h100v2q-8 8 -21 34.5t-23.5 71t-10.5 102.5q0 114 39.5 203t110 138.5t161.5 49.5q68 0 114.5 -32.5
t69 -90.5t22.5 -135q0 -136 -49.5 -219.5t-92.5 -121.5v-2h94l-22 -120h-234z" />
    <glyph glyph-name="estimated" unicode="&#x212e;" horiz-adv-x="878" 
d="M618.5 25q-84.5 -38 -180.5 -38q-110 0 -202.5 48.5t-147 132t-54.5 182.5t54.5 182.5t147 132.5t202.5 49t203 -49t147.5 -132.5t54.5 -182.5v-10h-655q-5 0 -5 -4v-199q0 -12 8 -22q49 -51 113 -79.5t135 -28.5q76 0 144 32t117 89h58q-55 -65 -139.5 -103zM684 589
q-49 48 -112 75.5t-133 27.5t-134 -28.5t-113 -78.5q-9 -9 -9 -24v-195q0 -2 1.5 -4.5t3.5 -2.5h502q2 0 3 2.5t1 4.5v199q0 14 -10 24z" />
    <glyph glyph-name="onethird" unicode="&#x2153;" horiz-adv-x="903" 
d="M631 688h108l-499 -688h-108zM194 560h-2q-13 -11 -33.5 -22t-33.5 -15l-27 81q32 8 72 33.5t58 51.5h116l-74 -419h-127zM808.5 212.5q15.5 -8.5 28 -28t12.5 -50.5q0 -42 -23 -75.5t-66.5 -53t-102.5 -19.5q-70 0 -106 27t-36 73q0 16 3.5 29t5.5 16l112 18
q-2 -4 -6 -16.5t-4 -25.5q0 -43 38 -43q26 0 42 19t16 56q0 24 -11.5 36t-33.5 12h-27l13 71h27q27 0 46.5 14t19.5 43q0 18 -10 29.5t-30 11.5q-24 0 -38 -15.5t-14 -42.5v-13l-101 11q0 2 -1 7t-1 13q0 32 18.5 58t56.5 41.5t93 15.5q70 0 106 -27.5t36 -72.5
q0 -37 -18 -60t-38.5 -33.5t-32.5 -12.5v-2q11 -2 26.5 -10.5z" />
    <glyph glyph-name="twothirds" unicode="&#x2154;" horiz-adv-x="903" 
d="M94.5 395.5q44.5 50.5 108.5 89.5l23 14q29 18 44 30.5t21 24.5t6 28q0 19 -10 30.5t-30 11.5q-27 0 -41 -18.5t-14 -46.5q0 -11 1 -19.5t2 -10.5l-115 10q-1 2 -2 8.5t-1 16.5q0 46 25.5 77t67.5 46t93 15q72 0 111.5 -29.5t39.5 -80.5q0 -35 -17 -62.5t-39 -44.5
t-57 -39l-22 -14q-26 -17 -47 -33t-28 -31v-2h138l-16 -95h-296q10 74 54.5 124.5zM667 688h108l-499 -688h-108zM824.5 212.5q15.5 -8.5 28 -28t12.5 -50.5q0 -42 -23 -75.5t-66.5 -53t-102.5 -19.5q-70 0 -106 27t-36 73q0 16 3.5 29t5.5 16l112 18q-2 -4 -6 -16.5
t-4 -25.5q0 -43 38 -43q26 0 42 19t16 56q0 24 -11.5 36t-33.5 12h-27l13 71h27q27 0 46.5 14t19.5 43q0 18 -10 29.5t-30 11.5q-24 0 -38 -15.5t-14 -42.5v-13l-101 11q0 2 -1 7t-1 13q0 32 18.5 58t56.5 41.5t93 15.5q70 0 106 -27.5t36 -72.5q0 -37 -18 -60t-38.5 -33.5
t-32.5 -12.5v-2q11 -2 26.5 -10.5z" />
    <glyph glyph-name="oneeighth" unicode="&#x215b;" horiz-adv-x="903" 
d="M631 688h108l-499 -688h-108zM194 560h-2q-13 -11 -33.5 -22t-33.5 -15l-27 81q32 8 72 33.5t58 51.5h116l-74 -419h-127zM791 225q20 -7 41.5 -26t21.5 -66q0 -42 -23.5 -75.5t-67.5 -52.5t-103 -19q-69 0 -106.5 31t-37.5 90q0 52 29 78.5t46 33.5t18 8q-20 10 -25 13
t-16.5 20t-11.5 44q0 34 20 63t60.5 46.5t98.5 17.5q64 0 102 -27t38 -75q0 -39 -18 -61.5t-38.5 -31.5t-26.5 -9zM744.5 271.5q14.5 17.5 14.5 48.5q0 20 -9 31t-26 11q-23 0 -37.5 -17t-14.5 -48q0 -20 9 -31.5t26 -11.5q23 0 37.5 17.5zM717 75q18 21 18 65
q0 26 -10.5 39t-28.5 13q-25 0 -43 -21t-18 -65q0 -26 10.5 -39t28.5 -13q25 0 43 21z" />
    <glyph glyph-name="threeeighths" unicode="&#x215c;" horiz-adv-x="903" 
d="M669 688h108l-499 -688h-108zM343.5 483.5q15.5 -8.5 28 -28t12.5 -50.5q0 -42 -23 -75.5t-66.5 -53t-102.5 -19.5q-70 0 -106 27t-36 73q0 16 3.5 29t5.5 16l112 18q-2 -4 -6 -16.5t-4 -25.5q0 -43 38 -43q26 0 42 19t16 56q0 24 -11.5 36t-33.5 12h-27l13 71h27
q27 0 46.5 14t19.5 43q0 18 -10 29.5t-30 11.5q-24 0 -38 -15.5t-14 -42.5v-13l-101 11q0 2 -1 7t-1 13q0 32 18.5 58t56.5 41.5t93 15.5q70 0 106 -27.5t36 -72.5q0 -37 -18 -60t-38.5 -33.5t-32.5 -12.5v-2q11 -2 26.5 -10.5zM801 225q20 -7 41.5 -26t21.5 -66
q0 -42 -23.5 -75.5t-67.5 -52.5t-103 -19q-69 0 -106.5 31t-37.5 90q0 52 29 78.5t46 33.5t18 8q-20 10 -25 13t-16.5 20t-11.5 44q0 34 20 63t60.5 46.5t98.5 17.5q64 0 102 -27t38 -75q0 -39 -18 -61.5t-38.5 -31.5t-26.5 -9zM754.5 271.5q14.5 17.5 14.5 48.5q0 20 -9 31
t-26 11q-23 0 -37.5 -17t-14.5 -48q0 -20 9 -31.5t26 -11.5q23 0 37.5 17.5zM727 75q18 21 18 65q0 26 -10.5 39t-28.5 13q-25 0 -43 -21t-18 -65q0 -26 10.5 -39t28.5 -13q25 0 43 21z" />
    <glyph glyph-name="fiveeighths" unicode="&#x215d;" horiz-adv-x="903" 
d="M669 688h108l-499 -688h-108zM205 526h2q2 2 10.5 6.5t26.5 9t42 4.5q28 0 52.5 -11.5t40.5 -36.5t16 -64q0 -50 -23 -90t-67.5 -63.5t-107.5 -23.5q-67 0 -105 25.5t-38 69.5q0 13 2.5 22.5t3.5 11.5l117 19l-4 -12t-3 -20q0 -19 8.5 -29.5t26.5 -10.5q15 0 29 10
t23 31.5t9 53.5q0 26 -9.5 39.5t-26.5 13.5q-16 0 -29.5 -10t-20.5 -29l-104 18l65 228h282l-26 -81h-168zM801 225q20 -7 41.5 -26t21.5 -66q0 -42 -23.5 -75.5t-67.5 -52.5t-103 -19q-69 0 -106.5 31t-37.5 90q0 52 29 78.5t46 33.5t18 8q-20 10 -25 13t-16.5 20t-11.5 44
q0 34 20 63t60.5 46.5t98.5 17.5q64 0 102 -27t38 -75q0 -39 -18 -61.5t-38.5 -31.5t-26.5 -9zM754.5 271.5q14.5 17.5 14.5 48.5q0 20 -9 31t-26 11q-23 0 -37.5 -17t-14.5 -48q0 -20 9 -31.5t26 -11.5q23 0 37.5 17.5zM727 75q18 21 18 65q0 26 -10.5 39t-28.5 13
q-25 0 -43 -21t-18 -65q0 -26 10.5 -39t28.5 -13q25 0 43 21z" />
    <glyph glyph-name="seveneighths" unicode="&#x215e;" horiz-adv-x="903" 
d="M619 688h108l-499 -688h-108zM149.5 394q23.5 49 48.5 90q18 29 48.5 71.5t39.5 51.5v2q-6 0 -26 -1t-46 -1h-118l15 81h309l-15 -77q-23 -21 -51.5 -62.5t-53.5 -85.5q-46 -85 -79 -192h-117q22 74 45.5 123zM781 225q20 -7 41.5 -26t21.5 -66q0 -42 -23.5 -75.5
t-67.5 -52.5t-103 -19q-69 0 -106.5 31t-37.5 90q0 52 29 78.5t46 33.5t18 8q-20 10 -25 13t-16.5 20t-11.5 44q0 34 20 63t60.5 46.5t98.5 17.5q64 0 102 -27t38 -75q0 -39 -18 -61.5t-38.5 -31.5t-26.5 -9zM734.5 271.5q14.5 17.5 14.5 48.5q0 20 -9 31t-26 11
q-23 0 -37.5 -17t-14.5 -48q0 -20 9 -31.5t26 -11.5q23 0 37.5 17.5zM707 75q18 21 18 65q0 26 -10.5 39t-28.5 13q-25 0 -43 -21t-18 -65q0 -26 10.5 -39t28.5 -13q25 0 43 21z" />
    <glyph glyph-name="partialdiff" unicode="&#x2202;" 
d="M397 501q0 78 -22 118t-71 40q-30 0 -56 -12t-42.5 -26t-20.5 -21h-2l-29 110q27 22 74 44.5t110 22.5q85 0 139.5 -61.5t54.5 -210.5q0 -163 -45.5 -280.5t-118.5 -178t-156 -60.5q-80 0 -120 53t-40 144q0 83 30.5 155.5t85 116t122.5 43.5q45 0 67.5 -16.5t31.5 -31.5
h2q6 32 6 51zM343.5 359q-14.5 22 -45.5 22q-32 0 -58 -29.5t-41 -74.5t-15 -88q0 -39 10 -60.5t37 -21.5q22 0 46 20.5t46 67t37 119.5q-2 23 -16.5 45z" />
    <glyph glyph-name="uni2206" unicode="&#x2206;" horiz-adv-x="562" 
d="M13 78l285 624h146l60 -624l-13 -78h-491zM342 542l-180 -420h212l-30 420h-2z" />
    <glyph glyph-name="product" unicode="&#x220f;" 
d="M390 560h-109l-133 -750h-138l133 750h-74l24 128h533l-24 -128h-74l-134 -750h-138z" />
    <glyph glyph-name="summation" unicode="&#x2211;" 
d="M10 -55l250 335l-133 306l19 102h436l-23 -118h-263v-2l128 -288l-244 -323v-2h285l-23 -131h-454z" />
    <glyph glyph-name="minus" unicode="&#x2212;" 
d="M61 363h482l-18 -106h-482z" />
    <glyph glyph-name="uni2215" unicode="&#x2215;" horiz-adv-x="201" 
d="M318 688h108l-499 -688h-108z" />
    <glyph glyph-name="uni2219" unicode="&#x2219;" horiz-adv-x="282" 
d="M80 338h158l-30 -164h-158z" />
    <glyph glyph-name="radical" unicode="&#x221a;" 
d="M130 266l-76 -18l-24 102l208 50l16 -176q4 -40 5 -91t1 -67h2q4 16 20 67t32 95l180 488l102 -38l-306 -826h-122z" />
    <glyph glyph-name="infinity" unicode="&#x221e;" 
d="M360.5 438.5q34.5 26.5 83.5 26.5q55 0 84.5 -37.5t29.5 -99.5q0 -52 -20.5 -91.5t-57.5 -61t-84 -21.5q-41 0 -66 18t-36 38t-13 29h-2q-21 -32 -55 -58.5t-84 -26.5q-55 0 -84.5 37.5t-29.5 99.5q0 52 20.5 91.5t57.5 61t84 21.5q41 0 66 -18t36 -38t13 -29h2
q21 32 55.5 58.5zM240 326q-6 18 -18 32.5t-38 14.5q-30 0 -47 -20.5t-17 -54.5q0 -24 11 -38t34 -14q21 0 41.5 17t34.5 40l5 8zM362 260.5q12 -14.5 38 -14.5q30 0 47 20.5t17 54.5q0 24 -11 38t-34 14q-21 0 -41.5 -17t-34.5 -40l-5 -8l6 -15q6 -18 18 -32.5z" />
    <glyph glyph-name="integral" unicode="&#x222b;" horiz-adv-x="414" 
d="M-1 -68q-1 -1 4 -4t13.5 -5.5t19.5 -2.5q15 0 25 9.5t18.5 34t16.5 70.5l66 368q23 129 53 194t67 85.5t94 20.5q22 0 39.5 -4.5t27.5 -9t12 -6.5l-42 -114h-2q-1 3 -11.5 7.5t-25.5 4.5t-25 -9.5t-18.5 -34t-16.5 -70.5l-66 -368q-23 -129 -53 -194t-67 -85.5t-94 -20.5
q-20 0 -37.5 4.5t-27.5 9t-13 6.5l41 114h2z" />
    <glyph glyph-name="approxequal" unicode="&#x2248;" 
d="M494 363q-42 -31 -106 -31q-35 0 -58.5 11.5t-47.5 31.5q-16 14 -29 21.5t-29 7.5q-24 0 -43.5 -14.5t-32 -32t-12.5 -19.5l-70 60q30 48 72 79t106 31q35 0 58.5 -11.5t47.5 -31.5q16 -14 29 -21.5t29 -7.5q24 0 43.5 14.5t32 32t12.5 19.5l70 -60q-30 -48 -72 -79z
M452 133q-42 -31 -106 -31q-35 0 -58.5 11.5t-47.5 31.5q-16 14 -29 21.5t-29 7.5q-24 0 -43.5 -14.5t-32 -32t-12.5 -19.5l-70 60q30 48 72 79t106 31q35 0 58.5 -11.5t47.5 -31.5q16 -14 29 -21.5t29 -7.5q24 0 43.5 14.5t32 32t12.5 19.5l70 -60q-30 -48 -72 -79z" />
    <glyph glyph-name="notequal" unicode="&#x2260;" 
d="M181 46h-124l62 94h-97l18 106h148l85 128h-209l18 106h261l61 94h124l-61 -94h98l-19 -106h-150l-84 -128h210l-18 -106h-262z" />
    <glyph glyph-name="lessequal" unicode="&#x2264;" 
d="M70 413l512 173l-19 -110l-368 -119v-2l326 -117l-19 -106l-450 173zM17 106h482l-18 -106h-482z" />
    <glyph glyph-name="greaterequal" unicode="&#x2265;" 
d="M48 242l367 117v2l-325 119l18 106l451 -173l-18 -108l-513 -173zM24 106h482l-18 -106h-482z" />
    <glyph glyph-name="lozenge" unicode="&#x25ca;" 
d="M58 344l248 359h100l122 -359l-248 -360h-102zM336 569h-2l-151 -231l66 -219h2l152 230z" />
    <glyph glyph-name="uniF6C3" unicode="&#xf6c3;" horiz-adv-x="0" 
d="M-401 -261q18 22 23 51l3 17h-51l24 139h135l-24 -142q-9 -53 -37.5 -89.5t-73.5 -57.5l-40 50q23 10 41 32z" />
    <glyph glyph-name="uniF8FF" unicode="&#xf8ff;" horiz-adv-x="500" 
d="M12 665h475v-665h-475v665zM88 618l162 -243l161 243h-323zM60 91q25 37 80.5 120.5t80.5 121.5l-161 242v-484zM278 333l162 -243v485zM88 48h323l-161 242z" />
    <glyph glyph-name="uniFEFF" unicode="&#xfeff;" horiz-adv-x="0" 
 />
    <glyph glyph-name="zero.sc.pnum" horiz-adv-x="570" 
d="M89.5 42q-55.5 57 -55.5 166q0 96 36.5 167.5t104 111t159.5 39.5q103 0 158.5 -57t55.5 -166q0 -96 -36.5 -167.5t-104 -111t-159.5 -39.5q-103 0 -158.5 57zM325 132q25 29 38 75.5t13 96.5q0 52 -13.5 79t-46.5 27q-34 0 -59 -29t-38 -75.5t-13 -96.5q0 -52 13.5 -79
t46.5 -27q34 0 59 29z" />
    <glyph glyph-name="one.sc.pnum" horiz-adv-x="384" 
d="M169 316h-2q-8 -10 -38.5 -26.5t-60.5 -24.5l-36 117q63 20 114.5 56t76.5 74h147l-89 -512h-167z" />
    <glyph glyph-name="two.sc.pnum" horiz-adv-x="536" 
d="M44 104.5q24 45.5 68.5 85t114.5 78.5l26 15q37 21 56 35.5t26.5 27t7.5 26.5q0 21 -15 33.5t-40 12.5q-28 0 -48 -19.5t-20 -58.5q0 -11 1 -17.5t1 -8.5l-148 12q0 2 -1 8.5t-1 17.5q0 56 31 95.5t84 59t119 19.5q98 0 152 -38t54 -108q0 -43 -21.5 -74.5t-46.5 -48.5
t-68 -41l-28 -16l-23 -13q-34 -20 -50.5 -31.5t-27.5 -26.5v-2h233l-22 -127h-447q9 59 33 104.5z" />
    <glyph glyph-name="three.sc.pnum" horiz-adv-x="528" 
d="M334 260q29 -1 59 -15.5t50.5 -48.5t20.5 -88q0 -82 -36 -141.5t-99 -91t-143 -31.5q-63 0 -106 18.5t-64.5 51.5t-21.5 78q0 18 3.5 33t7.5 24t5 11l148 24q-1 -2 -5 -11t-7.5 -24t-3.5 -33q0 -31 14 -45.5t46 -14.5q43 0 66.5 36.5t23.5 95.5q0 44 -22 64t-52 20
q-15 0 -26 -2.5t-17 -5.5t-7 -4l-38 82l176 145v2h-221l21 123h403l-20 -119l-155 -131v-2z" />
    <glyph glyph-name="four.sc.pnum" horiz-adv-x="573" 
d="M281 0h-285l24 136l305 376h214l-68 -387h71l-21 -125h-71l-24 -133h-169zM347 362.5q5 22.5 7 29.5h-2q-4 -6 -17.5 -26.5t-28.5 -39.5l-120 -149q-13 -16 -27 -31.5t-19 -20.5v-2q5 0 20.5 1t35.5 1h108l32 183q6 32 11 54.5z" />
    <glyph glyph-name="five.sc.pnum" horiz-adv-x="557" 
d="M232 259h2q3 4 17 12.5t38.5 15.5t58.5 7q42 0 77 -18.5t56 -58t21 -97.5q0 -92 -40 -154.5t-104.5 -92t-139.5 -29.5q-68 0 -113 19t-66 51.5t-21 73.5q0 16 4 29.5t6 16.5l158 28q-2 -3 -6 -16.5t-4 -29.5q0 -30 14 -45.5t44 -15.5q26 0 48 17.5t35 51.5t13 80
q0 41 -16 61.5t-44 20.5q-26 0 -43.5 -15t-28.5 -45l-144 28l101 358h390l-47 -124h-228z" />
    <glyph glyph-name="six.sc.pnum" 
d="M408.5 490.5q1.5 7.5 1.5 15.5q0 54 -52 54q-97 0 -127 -181h2q6 9 23 22t46.5 24t69.5 11q52 0 88.5 -22t55 -60.5t18.5 -89.5q0 -76 -33.5 -139.5t-97 -101.5t-149.5 -38q-109 0 -158.5 68.5t-49.5 190.5q0 127 40.5 223.5t115 149.5t172.5 53q72 0 114.5 -22.5t59 -54
t16.5 -61.5q0 -12 -2.5 -22t-3.5 -12l-152 -18q1 3 2.5 10.5zM317.5 118.5q20.5 17.5 31.5 49t11 71.5q0 37 -15.5 61t-46.5 24q-27 0 -47.5 -17.5t-31.5 -49t-11 -71.5q0 -37 15.5 -61t46.5 -24q27 0 47.5 17.5z" />
    <glyph glyph-name="seven.sc.pnum" horiz-adv-x="515" 
d="M98 10q29 71 66 140q70 128 156 235v2h-274l21 125h450l-21 -123q-36 -36 -81.5 -104t-80.5 -131q-32 -60 -63 -136t-56 -160h-170q24 81 53 152z" />
    <glyph glyph-name="eight.sc.pnum" horiz-adv-x="562" 
d="M462 334q21 -14 39 -44.5t18 -78.5q0 -72 -35.5 -123t-98.5 -77t-143 -26q-65 0 -113 20t-74 59t-26 94q0 67 29 110.5t63 63t56 24.5v2q0 -3 -20.5 11t-37 40.5t-16.5 67.5q0 61 31 104.5t87.5 66t132.5 22.5q61 0 106.5 -18t70 -52t24.5 -80q0 -59 -27 -96t-52.5 -51
t-45.5 -21v-2q11 -2 32 -16zM372 431.5q21 26.5 21 71.5q0 31 -13 48t-39 17q-35 0 -55.5 -26.5t-20.5 -71.5q0 -65 51 -65q35 0 56 26.5zM326 128.5q22 36.5 22 91.5q0 37 -14 58.5t-44 21.5q-45 0 -67.5 -37t-22.5 -91q0 -37 14.5 -58.5t44.5 -21.5q45 0 67 36.5z" />
    <glyph glyph-name="nine.sc.pnum" 
d="M327.5 120.5q-14.5 -14.5 -48 -28t-71.5 -13.5q-52 0 -89.5 21.5t-56.5 60.5t-19 91q0 75 33.5 137.5t96.5 99t149 36.5q108 0 158.5 -69t50.5 -191q0 -102 -29.5 -187t-77.5 -138q-43 -47 -97.5 -72t-124.5 -25q-65 0 -107.5 19.5t-62.5 51.5t-20 70q0 11 3 20l4 12
l152 20q-1 -2 -3 -10t-2 -15q0 -57 52 -57q53 0 82 47.5t45 134.5h-2zM326.5 211q20.5 17 31.5 47.5t11 70.5q0 37 -15.5 60t-46.5 23q-27 0 -47.5 -17t-31.5 -48t-11 -71q0 -37 15.5 -59.5t46.5 -22.5q27 0 47.5 17z" />
    <glyph glyph-name="zero.pnum" 
d="M92 57q-48 72 -48 191q0 136 38 239t107.5 159t162.5 56q112 0 160 -72t48 -191q0 -136 -38 -239t-107.5 -159t-162.5 -56q-112 0 -160 72zM335.5 162.5q28.5 52.5 42.5 133t14 163.5q0 57 -11.5 87.5t-42.5 30.5q-41 0 -69.5 -52.5t-42.5 -133t-14 -163.5
q0 -57 11.5 -87.5t42.5 -30.5q41 0 69.5 52.5z" />
    <glyph glyph-name="one.pnum" horiz-adv-x="388" 
d="M202 490h-2q-12 -12 -40.5 -27t-57.5 -24l-37 118q63 19 116 56t78 77h147l-121 -690h-168z" />
    <glyph glyph-name="two.pnum" 
d="M36 92q15 40 35 73q25 42 61.5 78t105.5 93l63 51q44 35 66.5 64.5t22.5 67.5q0 63 -60 63q-35 0 -57 -29.5t-22 -88.5q0 -14 1 -24.5t1 -13.5l-155 20q0 3 -1 13.5t-1 24.5q0 70 34.5 119.5t92.5 74t129 24.5q67 0 114.5 -22t71.5 -60.5t24 -89.5q0 -67 -38 -120
t-100 -102l-55 -43q-28 -21 -52 -41t-41 -40t-33 -47v-2h261l-23 -135h-467q7 52 22 92z" />
    <glyph glyph-name="three.pnum" 
d="M484.5 328q30.5 -32 30.5 -102q0 -74 -34 -128.5t-95.5 -83.5t-142.5 -29q-73 0 -119.5 23t-68 60t-21.5 80q0 20 4 37t8.5 27t5.5 12l156 20q-1 -2 -5.5 -12t-8.5 -27t-4 -37q0 -69 63 -69q25 0 46 15t33.5 44.5t12.5 71.5q0 82 -75 82h-40l21 111h41q47 0 71.5 28.5
t24.5 75.5q0 29 -14.5 47.5t-43.5 18.5q-37 0 -56.5 -25.5t-19.5 -72.5q0 -7 1 -11.5t1 -6.5l-149 18q0 2 -1 6.5t-1 11.5q0 57 28.5 100t83 66t129.5 23q69 0 116 -20t70.5 -55.5t23.5 -82.5q0 -57 -25 -94.5t-55.5 -56t-50.5 -22.5v-2q29 -9 59.5 -41z" />
    <glyph glyph-name="four.pnum" 
d="M292 132h-280l24 138l341 418h181l-75 -425h74l-22 -131h-75l-23 -132h-168zM360.5 506q4.5 20 6.5 27h-2q-3 -6 -15 -25t-26 -37l-120 -153q-15 -18 -29 -34t-19 -22v-2q5 0 20.5 1t37.5 1h102l35 199q5 25 9.5 45z" />
    <glyph glyph-name="five.pnum" 
d="M258 424h2q-2 0 13.5 9.5t40 17.5t56.5 8q40 0 76.5 -17.5t60 -58t23.5 -105.5q0 -91 -38 -157t-104 -101t-148 -35q-70 0 -113.5 22t-63 57.5t-19.5 76.5q0 15 2.5 27t4.5 18t3 8l158 24q-1 -2 -3 -8t-4.5 -18t-2.5 -27q0 -63 50 -63q28 0 52.5 18.5t39 55t14.5 88.5
q0 26 -8 45.5t-21.5 30t-30.5 10.5q-29 0 -49 -16t-29 -46l-140 28l106 372h390l-48 -129h-230z" />
    <glyph glyph-name="six.pnum" 
d="M420.5 518.5q1.5 7.5 1.5 15.5q0 56 -52 56q-33 0 -52 -15t-36 -43q-13 -22 -22 -50t-18 -76h2q18 23 55.5 40t84.5 17q39 0 75 -17t60.5 -57t24.5 -106q0 -79 -31 -147t-94 -109t-153 -41q-109 0 -160.5 70.5t-51.5 196.5q0 136 40.5 237.5t116 156.5t179.5 55
q110 0 148 -47t38 -101q0 -8 -1.5 -15.5t-2.5 -10.5l-154 -20q1 3 2.5 10.5zM331.5 129.5q21.5 25.5 31 62.5t9.5 73q0 38 -15 62t-47 24q-34 0 -55.5 -25.5t-31 -62.5t-9.5 -73q0 -38 15 -62t47 -24q34 0 55.5 25.5z" />
    <glyph glyph-name="seven.pnum" horiz-adv-x="500" 
d="M187 306q74 143 163 250v2h-296l24 130h470l-22 -126q-36 -35 -84 -106t-80 -132q-33 -62 -66.5 -147.5t-57.5 -176.5h-172q47 163 121 306z" />
    <glyph glyph-name="eight.pnum" 
d="M474 350.5q20 -14.5 38 -48t18 -84.5q0 -76 -36.5 -128.5t-100 -78.5t-145.5 -26q-66 0 -115.5 20.5t-76 60.5t-26.5 98q0 72 30 117.5t63.5 65t56.5 24.5v2q0 -3 -21 13.5t-38 45.5t-17 72q0 67 33.5 111.5t91 65.5t133.5 21q66 0 113 -19.5t71 -55t24 -83.5
q0 -75 -40 -114.5t-88 -58.5v-2q12 -4 32 -18.5zM366.5 437.5q18.5 14.5 28 39.5t9.5 55t-14 47.5t-40 17.5q-24 0 -42.5 -14.5t-28 -39.5t-9.5 -55t14 -47.5t40 -17.5q24 0 42.5 14.5zM319 115q22 22 31.5 55t9.5 66q0 37 -15.5 59.5t-46.5 22.5q-34 0 -55.5 -22.5
t-31 -55.5t-9.5 -66q0 -37 15 -59t46 -22q34 0 56 22z" />
    <glyph glyph-name="nine.pnum" 
d="M308.5 248q-37.5 -17 -84.5 -17q-39 0 -75 16.5t-60.5 56t-24.5 105.5q0 79 31 146t94 107t153 40q109 0 160.5 -70.5t51.5 -196.5q0 -136 -40 -237.5t-115 -156.5t-179 -55q-77 0 -118.5 25.5t-55.5 59t-14 65.5q0 8 1.5 15.5t2.5 10.5l154 20q-1 -3 -2.5 -10.5
t-1.5 -15.5q0 -58 52 -58q32 0 51.5 16t36.5 44q13 22 22 51t18 79h-2q-18 -23 -55.5 -40zM353.5 367q21.5 24 31 59.5t9.5 71.5q0 38 -15 62t-47 24q-34 0 -55.5 -24.5t-31 -60.5t-9.5 -72q0 -38 15 -61t47 -23q34 0 55.5 24z" />
    <glyph glyph-name="zero.sc" horiz-adv-x="567" 
d="M88.5 42q-55.5 57 -55.5 166q0 96 36.5 167.5t104 111t159.5 39.5q103 0 158.5 -57t55.5 -166q0 -96 -36.5 -167.5t-104 -111t-159.5 -39.5q-103 0 -158.5 57zM324 132q25 29 38 75.5t13 96.5q0 52 -13.5 79t-46.5 27q-34 0 -59 -29t-38 -75.5t-13 -96.5q0 -52 13.5 -79
t46.5 -27q34 0 59 29z" />
    <glyph glyph-name="one.sc" horiz-adv-x="567" 
d="M105 122h110l36 204h-2q-8 -10 -38.5 -26.5t-60.5 -24.5l-36 117q66 21 115.5 52.5t73.5 67.5h147l-68 -390h109l-21 -122h-386z" />
    <glyph glyph-name="two.sc" horiz-adv-x="567" 
d="M63 104.5q24 45.5 68.5 85t114.5 78.5l26 15q37 21 56 35.5t26.5 27t7.5 26.5q0 21 -15 33.5t-40 12.5q-28 0 -48 -19.5t-20 -58.5q0 -11 1 -17.5t1 -8.5l-148 12q0 2 -1 8.5t-1 17.5q0 56 31 95.5t84 59t119 19.5q98 0 152 -38t54 -108q0 -43 -21.5 -74.5t-46.5 -48.5
t-68 -41l-28 -16l-23 -13q-34 -20 -50.5 -31.5t-27.5 -26.5v-2h233l-22 -127h-447q9 59 33 104.5z" />
    <glyph glyph-name="three.sc" horiz-adv-x="567" 
d="M350 260q29 -1 59 -15.5t50.5 -48.5t20.5 -88q0 -82 -36 -141.5t-99 -91t-143 -31.5q-63 0 -106 18.5t-64.5 51.5t-21.5 78q0 18 3.5 33t7.5 24t5 11l148 24q-1 -2 -5 -11t-7.5 -24t-3.5 -33q0 -31 14 -45.5t46 -14.5q43 0 66.5 36.5t23.5 95.5q0 44 -22 64t-52 20
q-15 0 -26 -2.5t-17 -5.5t-7 -4l-38 82l176 145v2h-221l21 123h403l-20 -119l-155 -131v-2z" />
    <glyph glyph-name="four.sc" horiz-adv-x="567" 
d="M276 0h-285l24 136l305 376h214l-68 -387h71l-21 -125h-71l-24 -133h-169zM342 362.5q5 22.5 7 29.5h-2q-4 -6 -17.5 -26.5t-28.5 -39.5l-120 -149q-13 -16 -27 -31.5t-19 -20.5v-2q5 0 20.5 1t35.5 1h108l32 183q6 32 11 54.5z" />
    <glyph glyph-name="five.sc" horiz-adv-x="567" 
d="M236 259h2q3 4 17 12.5t38.5 15.5t58.5 7q42 0 77 -18.5t56 -58t21 -97.5q0 -92 -40 -154.5t-104.5 -92t-139.5 -29.5q-68 0 -113 19t-66 51.5t-21 73.5q0 16 4 29.5t6 16.5l158 28q-2 -3 -6 -16.5t-4 -29.5q0 -30 14 -45.5t44 -15.5q26 0 48 17.5t35 51.5t13 80
q0 41 -16 61.5t-44 20.5q-26 0 -43.5 -15t-28.5 -45l-144 28l101 358h390l-47 -124h-228z" />
    <glyph glyph-name="six.sc" horiz-adv-x="567" 
d="M410.5 490.5q1.5 7.5 1.5 15.5q0 54 -52 54q-97 0 -127 -181h2q6 9 23 22t46.5 24t69.5 11q52 0 88.5 -22t55 -60.5t18.5 -89.5q0 -76 -33.5 -139.5t-97 -101.5t-149.5 -38q-109 0 -158.5 68.5t-49.5 190.5q0 127 40.5 223.5t115 149.5t172.5 53q72 0 114.5 -22.5t59 -54
t16.5 -61.5q0 -12 -2.5 -22t-3.5 -12l-152 -18q1 3 2.5 10.5zM319.5 118.5q20.5 17.5 31.5 49t11 71.5q0 37 -15.5 61t-46.5 24q-27 0 -47.5 -17.5t-31.5 -49t-11 -71.5q0 -37 15.5 -61t46.5 -24q27 0 47.5 17.5z" />
    <glyph glyph-name="seven.sc" horiz-adv-x="567" 
d="M121 10q29 71 66 140q70 128 156 235v2h-274l21 125h450l-21 -123q-36 -36 -81.5 -104t-80.5 -131q-32 -60 -63 -136t-56 -160h-170q24 81 53 152z" />
    <glyph glyph-name="eight.sc" horiz-adv-x="567" 
d="M469 334q21 -14 39 -44.5t18 -78.5q0 -72 -35.5 -123t-98.5 -77t-143 -26q-65 0 -113 20t-74 59t-26 94q0 67 29 110.5t63 63t56 24.5v2q0 -3 -20.5 11t-37 40.5t-16.5 67.5q0 61 31 104.5t87.5 66t132.5 22.5q61 0 106.5 -18t70 -52t24.5 -80q0 -59 -27 -96t-52.5 -51
t-45.5 -21v-2q11 -2 32 -16zM379 431.5q21 26.5 21 71.5q0 31 -13 48t-39 17q-35 0 -55.5 -26.5t-20.5 -71.5q0 -65 51 -65q35 0 56 26.5zM333 128.5q22 36.5 22 91.5q0 37 -14 58.5t-44 21.5q-45 0 -67.5 -37t-22.5 -91q0 -37 14.5 -58.5t44.5 -21.5q45 0 67 36.5z" />
    <glyph glyph-name="nine.sc" horiz-adv-x="567" 
d="M327.5 120.5q-14.5 -14.5 -48 -28t-71.5 -13.5q-52 0 -89.5 21.5t-56.5 60.5t-19 91q0 75 33.5 137.5t96.5 99t149 36.5q108 0 158.5 -69t50.5 -191q0 -102 -29.5 -187t-77.5 -138q-43 -47 -97.5 -72t-124.5 -25q-65 0 -107.5 19.5t-62.5 51.5t-20 70q0 11 3 20l4 12
l152 20q-1 -2 -3 -10t-2 -15q0 -57 52 -57q53 0 82 47.5t45 134.5h-2zM326.5 211q20.5 17 31.5 47.5t11 70.5q0 37 -15.5 60t-46.5 23q-27 0 -47.5 -17t-31.5 -48t-11 -71q0 -37 15.5 -59.5t46.5 -22.5q27 0 47.5 17z" />
    <glyph glyph-name="zero.dnom" horiz-adv-x="457" 
d="M76.5 33.5q-37.5 47.5 -37.5 125.5q0 77 26 138.5t76.5 97.5t119.5 36q48 0 81 -22t49.5 -61t16.5 -90q0 -77 -26 -138.5t-76.5 -97.5t-119.5 -36q-72 0 -109.5 47.5zM242.5 102q17.5 27 26.5 70t9 91q0 41 -7.5 60t-25.5 19q-23 0 -40.5 -27t-27 -71t-9.5 -91
q0 -40 8 -59t26 -19q23 0 40.5 27z" />
    <glyph glyph-name="one.dnom" horiz-adv-x="350" 
d="M150 290h-2q-13 -11 -33.5 -22t-33.5 -15l-27 81q32 8 72 33.5t58 51.5h116l-74 -419h-127z" />
    <glyph glyph-name="two.dnom" horiz-adv-x="457" 
d="M83.5 124.5q44.5 50.5 108.5 89.5l23 14q29 18 44 30.5t21 24.5t6 28q0 19 -10 30.5t-30 11.5q-27 0 -41 -18.5t-14 -46.5q0 -11 1 -19.5t2 -10.5l-115 10q-1 2 -2 8.5t-1 16.5q0 46 25.5 77t67.5 46t93 15q72 0 111.5 -29.5t39.5 -80.5q0 -35 -17 -62.5t-39 -44.5
t-57 -39l-22 -14q-26 -17 -47 -33t-28 -31v-2h178l-16 -95h-336q10 74 54.5 124.5z" />
    <glyph glyph-name="three.dnom" horiz-adv-x="457" 
d="M340.5 212.5q15.5 -8.5 28 -28t12.5 -50.5q0 -42 -23 -75.5t-66.5 -53t-102.5 -19.5q-70 0 -106 27t-36 73q0 16 3.5 29t5.5 16l112 18q-2 -4 -6 -16.5t-4 -25.5q0 -43 38 -43q26 0 42 19t16 56q0 24 -11.5 36t-33.5 12h-27l13 71h27q27 0 46.5 14t19.5 43q0 18 -10 29.5
t-30 11.5q-24 0 -38 -15.5t-14 -42.5v-13l-101 11q0 2 -1 7t-1 13q0 32 18.5 58t56.5 41.5t93 15.5q70 0 106 -27.5t36 -72.5q0 -37 -18 -60t-38.5 -33.5t-32.5 -12.5v-2q11 -2 26.5 -10.5z" />
    <glyph glyph-name="four.dnom" horiz-adv-x="457" 
d="M222 68h-206l18 97l227 253h149l-44 -257h55l-16 -93h-56l-11 -68h-128zM267 312q2 7 3 9h-2q-1 -3 -7.5 -13.5t-16.5 -21.5l-66 -74l-49 -53v-2h4q6 0 22.5 1t36.5 1h46l25 135q2 11 4 18z" />
    <glyph glyph-name="five.dnom" horiz-adv-x="457" 
d="M200 255h2q2 2 10.5 6.5t26.5 9t42 4.5q28 0 52.5 -11.5t40.5 -36.5t16 -64q0 -50 -23 -90t-67.5 -63.5t-107.5 -23.5q-67 0 -105 25.5t-38 69.5q0 13 2.5 22.5t3.5 11.5l117 19l-4 -12t-3 -20q0 -19 8.5 -29.5t26.5 -10.5q15 0 29 10t23 31.5t9 53.5q0 26 -9.5 39.5
t-26.5 13.5q-16 0 -29.5 -10t-20.5 -29l-104 18l65 228h282l-26 -81h-168z" />
    <glyph glyph-name="six.dnom" horiz-adv-x="457" 
d="M301 313.5q1 4.5 1 10.5q0 11 -6.5 21.5t-25.5 10.5q-36 0 -54 -27.5t-30 -82.5h2q12 10 21.5 16.5t27 11.5t42.5 5q55 0 84 -33t29 -85q0 -45 -21.5 -85t-64.5 -65t-103 -25q-75 0 -112 45t-37 124q0 86 26.5 148t77 95t120.5 33q71 0 101.5 -28t30.5 -67q0 -6 -1 -10.5
t-1 -5.5l-108 -12q0 1 1 5.5zM253 87.5q17 24.5 17 66.5q0 26 -10 41t-29 15q-27 0 -44 -24.5t-17 -66.5q0 -26 10 -41t29 -15q27 0 44 24.5z" />
    <glyph glyph-name="seven.dnom" horiz-adv-x="457" 
d="M147.5 123q23.5 49 48.5 90q18 29 48.5 71.5t39.5 51.5v2q-6 0 -26 -1t-46 -1h-118l15 81h309l-15 -77q-23 -21 -51.5 -62.5t-53.5 -85.5q-46 -85 -79 -192h-117q22 74 45.5 123z" />
    <glyph glyph-name="eight.dnom" horiz-adv-x="457" 
d="M323 225q20 -7 41.5 -26t21.5 -66q0 -42 -23.5 -75.5t-67.5 -52.5t-103 -19q-69 0 -106.5 31t-37.5 90q0 52 29 78.5t46 33.5t18 8q-20 10 -25 13t-16.5 20t-11.5 44q0 34 20 63t60.5 46.5t98.5 17.5q64 0 102 -27t38 -75q0 -39 -18 -61.5t-38.5 -31.5t-26.5 -9z
M276.5 271.5q14.5 17.5 14.5 48.5q0 20 -9 31t-26 11q-23 0 -37.5 -17t-14.5 -48q0 -20 9 -31.5t26 -11.5q23 0 37.5 17.5zM249 75q18 21 18 65q0 26 -10.5 39t-28.5 13q-25 0 -43 -21t-18 -65q0 -26 10.5 -39t28.5 -13q25 0 43 21z" />
    <glyph glyph-name="nine.dnom" horiz-adv-x="457" 
d="M250.5 156.5q-9.5 -6.5 -27 -11.5t-42.5 -5q-55 0 -84 32.5t-29 83.5q0 45 21.5 85t64.5 65t103 25q75 0 112 -45t37 -124q0 -86 -26.5 -148t-77 -95t-120.5 -33q-71 0 -101.5 28t-30.5 67q0 6 1 10.5t1 5.5l108 12q0 -1 -1 -5.5t-1 -10.5q0 -10 7.5 -20.5t26.5 -10.5
q25 0 40.5 13.5t24.5 37t17 60.5h-2q-12 -10 -21.5 -16.5zM273 237q17 23 17 65q0 26 -10 41t-28 15q-28 0 -45 -23t-17 -65q0 -26 10 -41t28 -15q28 0 45 23z" />
    <glyph glyph-name="plus.dnom" horiz-adv-x="457" 
d="M254 46h-99l20 112h-107l18 101h107l19 111h99l-19 -111h107l-18 -101h-107z" />
    <glyph glyph-name="minus.dnom" horiz-adv-x="457" 
d="M86 259h313l-18 -101h-313z" />
    <glyph glyph-name="equal.dnom" horiz-adv-x="457" 
d="M99 330h313l-17 -96h-313zM73 181h313l-17 -96h-313z" />
    <glyph glyph-name="parenleft.dnom" horiz-adv-x="350" 
d="M123 21.5q-26 64.5 -26 133.5q0 73 28.5 140t74 120t98.5 88l59 -59q-47 -44 -90.5 -115t-43.5 -174q0 -65 17 -111t34 -72l-82 -62q-43 47 -69 111.5z" />
    <glyph glyph-name="parenright.dnom" horiz-adv-x="350" 
d="M44.5 32q27.5 34 53.5 94t26 135q0 65 -17 111t-34 72l81 59q29 -24 52 -62.5t36 -85.5t13 -97q0 -104 -55 -191t-150 -157l-60 62q27 26 54.5 60z" />
    <glyph glyph-name="zero.frac" horiz-adv-x="457" 
d="M125.5 304.5q-37.5 47.5 -37.5 125.5q0 77 26 138.5t76.5 97.5t119.5 36q48 0 81 -22t49.5 -61t16.5 -90q0 -77 -26 -138.5t-76.5 -97.5t-119.5 -36q-72 0 -109.5 47.5zM291.5 373q17.5 27 26.5 70t9 91q0 41 -7.5 60t-25.5 19q-23 0 -40.5 -27t-27 -71t-9.5 -91
q0 -40 8 -59t26 -19q23 0 40.5 27z" />
    <glyph glyph-name="one.frac" horiz-adv-x="350" 
d="M194 560h-2q-13 -11 -33.5 -22t-33.5 -15l-27 81q32 8 72 33.5t58 51.5h116l-74 -419h-127z" />
    <glyph glyph-name="two.frac" horiz-adv-x="457" 
d="M127.5 395.5q44.5 50.5 108.5 89.5l23 14q29 18 44 30.5t21 24.5t6 28q0 19 -10 30.5t-30 11.5q-27 0 -41 -18.5t-14 -46.5q0 -11 1 -19.5t2 -10.5l-115 10q-1 2 -2 8.5t-1 16.5q0 46 25.5 77t67.5 46t93 15q72 0 111.5 -29.5t39.5 -80.5q0 -35 -17 -62.5t-39 -44.5
t-57 -39l-22 -14q-26 -17 -47 -33t-28 -31v-2h178l-16 -95h-336q10 74 54.5 124.5z" />
    <glyph glyph-name="three.frac" horiz-adv-x="457" 
d="M384.5 483.5q15.5 -8.5 28 -28t12.5 -50.5q0 -42 -23 -75.5t-66.5 -53t-102.5 -19.5q-70 0 -106 27t-36 73q0 16 3.5 29t5.5 16l112 18q-2 -4 -6 -16.5t-4 -25.5q0 -43 38 -43q26 0 42 19t16 56q0 24 -11.5 36t-33.5 12h-27l13 71h27q27 0 46.5 14t19.5 43q0 18 -10 29.5
t-30 11.5q-24 0 -38 -15.5t-14 -42.5v-13l-101 11q0 2 -1 7t-1 13q0 32 18.5 58t56.5 41.5t93 15.5q70 0 106 -27.5t36 -72.5q0 -37 -18 -60t-38.5 -33.5t-32.5 -12.5v-2q11 -2 26.5 -10.5z" />
    <glyph glyph-name="four.frac" horiz-adv-x="457" 
d="M266 339h-206l18 97l227 253h149l-44 -257h55l-16 -93h-56l-11 -68h-128zM311 583q2 7 3 9h-2q-1 -3 -7.5 -13.5t-16.5 -21.5l-66 -74l-49 -53v-2h4q6 0 22.5 1t36.5 1h46l25 135q2 11 4 18z" />
    <glyph glyph-name="five.frac" horiz-adv-x="457" 
d="M245 526h2q2 2 10.5 6.5t26.5 9t42 4.5q28 0 52.5 -11.5t40.5 -36.5t16 -64q0 -50 -23 -90t-67.5 -63.5t-107.5 -23.5q-67 0 -105 25.5t-38 69.5q0 13 2.5 22.5t3.5 11.5l117 19l-4 -12t-3 -20q0 -19 8.5 -29.5t26.5 -10.5q15 0 29 10t23 31.5t9 53.5q0 26 -9.5 39.5
t-26.5 13.5q-16 0 -29.5 -10t-20.5 -29l-104 18l65 228h282l-26 -81h-168z" />
    <glyph glyph-name="six.frac" horiz-adv-x="457" 
d="M348 584.5q1 4.5 1 10.5q0 11 -6.5 21.5t-25.5 10.5q-36 0 -54 -27.5t-30 -82.5h2q12 10 21.5 16.5t27 11.5t42.5 5q55 0 84 -33t29 -85q0 -45 -21.5 -85t-64.5 -65t-103 -25q-75 0 -112 45t-37 124q0 86 26.5 148t77 95t120.5 33q71 0 101.5 -28t30.5 -67q0 -6 -1 -10.5
t-1 -5.5l-108 -12q0 1 1 5.5zM300 358.5q17 24.5 17 66.5q0 26 -10 41t-29 15q-27 0 -44 -24.5t-17 -66.5q0 -26 10 -41t29 -15q27 0 44 24.5z" />
    <glyph glyph-name="seven.frac" horiz-adv-x="457" 
d="M190.5 394q23.5 49 48.5 90q18 29 48.5 71.5t39.5 51.5v2q-6 0 -26 -1t-46 -1h-118l15 81h309l-15 -77q-23 -21 -51.5 -62.5t-53.5 -85.5q-46 -85 -79 -192h-117q22 74 45.5 123z" />
    <glyph glyph-name="eight.frac" horiz-adv-x="457" 
d="M368 496q20 -7 41.5 -26t21.5 -66q0 -42 -23.5 -75.5t-67.5 -52.5t-103 -19q-69 0 -106.5 31t-37.5 90q0 52 29 78.5t46 33.5t18 8q-20 10 -25 13t-16.5 20t-11.5 44q0 34 20 63t60.5 46.5t98.5 17.5q64 0 102 -27t38 -75q0 -39 -18 -61.5t-38.5 -31.5t-26.5 -9z
M321.5 542.5q14.5 17.5 14.5 48.5q0 20 -9 31t-26 11q-23 0 -37.5 -17t-14.5 -48q0 -20 9 -31.5t26 -11.5q23 0 37.5 17.5zM294 346q18 21 18 65q0 26 -10.5 39t-28.5 13q-25 0 -43 -21t-18 -65q0 -26 10.5 -39t28.5 -13q25 0 43 21z" />
    <glyph glyph-name="nine.frac" horiz-adv-x="457" 
d="M296.5 427.5q-9.5 -6.5 -27 -11.5t-42.5 -5q-55 0 -84 32.5t-29 83.5q0 45 21.5 85t64.5 65t103 25q75 0 112 -45t37 -124q0 -86 -26.5 -148t-77 -95t-120.5 -33q-71 0 -101.5 28t-30.5 67q0 6 1 10.5t1 5.5l108 12q0 -1 -1 -5.5t-1 -10.5q0 -10 7.5 -20.5t26.5 -10.5
q25 0 40.5 13.5t24.5 37t17 60.5h-2q-12 -10 -21.5 -16.5zM319 508q17 23 17 65q0 26 -10 41t-28 15q-28 0 -45 -23t-17 -65q0 -26 10 -41t28 -15q28 0 45 23z" />
    <glyph glyph-name="plus.numr" horiz-adv-x="457" 
d="M300 317h-99l20 112h-107l18 101h107l19 111h99l-19 -111h107l-18 -101h-107z" />
    <glyph glyph-name="minus.numr" horiz-adv-x="457" 
d="M132 530h313l-18 -101h-313z" />
    <glyph glyph-name="equal.numr" horiz-adv-x="457" 
d="M145 601h313l-17 -96h-313zM119 452h313l-17 -96h-313z" />
    <glyph glyph-name="parenleft.numr" horiz-adv-x="350" 
d="M169 292.5q-26 64.5 -26 133.5q0 73 28.5 140t74 120t98.5 88l59 -59q-47 -44 -90.5 -115t-43.5 -174q0 -65 17 -111t34 -72l-82 -62q-43 47 -69 111.5z" />
    <glyph glyph-name="parenright.numr" horiz-adv-x="350" 
d="M90.5 303q27.5 34 53.5 94t26 135q0 65 -17 111t-34 72l81 59q29 -24 52 -62.5t36 -85.5t13 -97q0 -104 -55 -191t-150 -157l-60 62q27 26 54.5 60z" />
    <glyph glyph-name="glyph485" 
d="M301 886h161l-114 -140h-128z" />
    <glyph glyph-name="glyph486" 
d="M244 886h158l38 -140h-124z" />
    <glyph glyph-name="glyph487" 
d="M340 810h-2l-51 -64h-99l82 140h162l36 -140h-99z" />
    <glyph glyph-name="glyph488" 
d="M472.5 767q-28.5 -22 -68.5 -22q-22 0 -38.5 5.5t-25.5 11.5t-13 10l-6 5q-1 1 -8 7t-16 10.5t-18 4.5q-26 0 -34 -33l-3 -12l-76 17l8 27q15 50 43.5 72t68.5 22q22 0 38.5 -5.5t25.5 -11.5t13 -10l6 -5q1 -1 8 -7t16 -10.5t18 -4.5q26 0 34 33l3 12l76 -17l-8 -27
q-15 -50 -43.5 -72z" />
    <glyph glyph-name="glyph489" 
d="M216 886h114l-25 -140h-114zM382 886h114l-25 -140h-114z" />
    <glyph glyph-name="glyph490" 
d="M296 886h112l-22 -140h-112z" />
    <glyph glyph-name="glyph491" 
d="M248 744q-32 18 -32 58q0 36 19.5 60.5t51.5 36t70 11.5q48 0 80 -18t32 -58q0 -37 -19.5 -61t-52 -35.5t-70.5 -11.5q-47 0 -79 18zM371.5 848.5q-8.5 8.5 -23.5 8.5q-19 0 -31.5 -13.5t-12.5 -33.5q0 -14 8.5 -22.5t23.5 -8.5q19 0 31.5 13.5t12.5 33.5q0 14 -8.5 22.5
z" />
    <glyph glyph-name="glyph492" 
d="M441 775q-43 -31 -113 -31q-69 0 -102 31t-36 95l92 20q1 -28 15 -42t46 -14q33 0 50.5 13.5t27.5 42.5l87 -20q-24 -64 -67 -95z" />
    <glyph glyph-name="glyph493" 
d="M188 864h322l-16 -94h-322z" />
    <glyph glyph-name="glyph494" 
d="M212 886h99l29 -64h2l51 64h99l-82 -140h-162z" />
    <glyph glyph-name="glyph495" 
d="M201 886h161l-114 -140h-128zM401 886h161l-114 -140h-128z" />
    <glyph glyph-name="caron.salt" horiz-adv-x="387" 
d="M371 692h152l-90 -161h-112z" />
    <glyph glyph-name="uniF6C3.salt" horiz-adv-x="0" 
d="M-194 759q-18 -22 -23 -51l-3 -17h51l-24 -139h-135l24 142q9 53 37.5 89.5t73.5 57.5l40 -50q-23 -10 -41 -32z" />
    <glyph glyph-name="a.salt" horiz-adv-x="548" 
d="M472.5 1q-30.5 -10 -67.5 -10q-44 0 -68 8t-34 21.5t-13 35.5h-2q-21 -33 -52.5 -51.5t-85.5 -18.5q-62 0 -100 36t-38 108q0 54 21.5 88t48.5 50t58 26q50 17 134 30l59 10l1 6q4 20 4 28q0 20 -10 30.5t-40 10.5q-23 0 -36 -5.5t-22 -18.5t-16 -39l-144 24
q19 67 73.5 102t160.5 35q105 0 153 -36t48 -97q0 -10 -5 -40l-24 -134q-1 -4 -2 -10t-2 -13q-8 -42 -8 -53q0 -16 18 -16q6 0 12 2.5t8 3.5h2l14 -94q-15 -9 -45.5 -19zM318 248l-46 -12q-3 -1 -22.5 -5.5t-33.5 -12.5q-17 -9 -26.5 -22.5t-9.5 -37.5q0 -32 15 -44t41 -12
q24 0 44 18t26 52l14 76h-2z" />
    <glyph glyph-name="adieresis.salt" horiz-adv-x="548" 
d="M472.5 1q-30.5 -10 -67.5 -10q-44 0 -68 8t-34 21.5t-13 35.5h-2q-21 -33 -52.5 -51.5t-85.5 -18.5q-62 0 -100 36t-38 108q0 54 21.5 88t48.5 50t58 26q50 17 134 30l59 10l1 6q4 20 4 28q0 20 -10 30.5t-40 10.5q-23 0 -36 -5.5t-22 -18.5t-16 -39l-144 24
q19 67 73.5 102t160.5 35q105 0 153 -36t48 -97q0 -10 -5 -40l-24 -134q-1 -4 -2 -10t-2 -13q-8 -42 -8 -53q0 -16 18 -16q6 0 12 2.5t8 3.5h2l14 -94q-15 -9 -45.5 -19zM318 248l-46 -12q-3 -1 -22.5 -5.5t-33.5 -12.5q-17 -9 -26.5 -22.5t-9.5 -37.5q0 -32 15 -44t41 -12
q24 0 44 18t26 52l14 76h-2zM203 692h114l-25 -140h-114zM369 692h114l-25 -140h-114z" />
    <glyph glyph-name="aring.salt" horiz-adv-x="548" 
d="M472.5 1q-30.5 -10 -67.5 -10q-44 0 -68 8t-34 21.5t-13 35.5h-2q-21 -33 -52.5 -51.5t-85.5 -18.5q-62 0 -100 36t-38 108q0 54 21.5 88t48.5 50t58 26q50 17 134 30l59 10l1 6q4 20 4 28q0 20 -10 30.5t-40 10.5q-23 0 -36 -5.5t-22 -18.5t-16 -39l-144 24
q19 67 73.5 102t160.5 35q105 0 153 -36t48 -97q0 -10 -5 -40l-24 -134q-1 -4 -2 -10t-2 -13q-8 -42 -8 -53q0 -16 18 -16q6 0 12 2.5t8 3.5h2l14 -94q-15 -9 -45.5 -19zM318 248l-46 -12q-3 -1 -22.5 -5.5t-33.5 -12.5q-17 -9 -26.5 -22.5t-9.5 -37.5q0 -32 15 -44t41 -12
q24 0 44 18t26 52l14 76h-2zM436 579q-21 -23 -53 -33t-69 -10q-48 0 -81 18t-33 56q0 36 20.5 59t53 33t68.5 10q49 0 82 -18t33 -56q0 -36 -21 -59zM358.5 652q-8.5 8 -24.5 8q-19 0 -32 -12t-13 -30q0 -14 8.5 -22t24.5 -8q19 0 32 12t13 30q0 14 -8.5 22z" />
    <glyph glyph-name="aacute.salt" horiz-adv-x="548" 
d="M472.5 1q-30.5 -10 -67.5 -10q-44 0 -68 8t-34 21.5t-13 35.5h-2q-21 -33 -52.5 -51.5t-85.5 -18.5q-62 0 -100 36t-38 108q0 54 21.5 88t48.5 50t58 26q50 17 134 30l59 10l1 6q4 20 4 28q0 20 -10 30.5t-40 10.5q-23 0 -36 -5.5t-22 -18.5t-16 -39l-144 24
q19 67 73.5 102t160.5 35q105 0 153 -36t48 -97q0 -10 -5 -40l-24 -134q-1 -4 -2 -10t-2 -13q-8 -42 -8 -53q0 -16 18 -16q6 0 12 2.5t8 3.5h2l14 -94q-15 -9 -45.5 -19zM318 248l-46 -12q-3 -1 -22.5 -5.5t-33.5 -12.5q-17 -9 -26.5 -22.5t-9.5 -37.5q0 -32 15 -44t41 -12
q24 0 44 18t26 52l14 76h-2zM328 692h161l-114 -140h-128z" />
    <glyph glyph-name="agrave.salt" horiz-adv-x="548" 
d="M472.5 1q-30.5 -10 -67.5 -10q-44 0 -68 8t-34 21.5t-13 35.5h-2q-21 -33 -52.5 -51.5t-85.5 -18.5q-62 0 -100 36t-38 108q0 54 21.5 88t48.5 50t58 26q50 17 134 30l59 10l1 6q4 20 4 28q0 20 -10 30.5t-40 10.5q-23 0 -36 -5.5t-22 -18.5t-16 -39l-144 24
q19 67 73.5 102t160.5 35q105 0 153 -36t48 -97q0 -10 -5 -40l-24 -134q-1 -4 -2 -10t-2 -13q-8 -42 -8 -53q0 -16 18 -16q6 0 12 2.5t8 3.5h2l14 -94q-15 -9 -45.5 -19zM318 248l-46 -12q-3 -1 -22.5 -5.5t-33.5 -12.5q-17 -9 -26.5 -22.5t-9.5 -37.5q0 -32 15 -44t41 -12
q24 0 44 18t26 52l14 76h-2zM188 692h158l38 -140h-124z" />
    <glyph glyph-name="acircumflex.salt" horiz-adv-x="548" 
d="M472.5 1q-30.5 -10 -67.5 -10q-44 0 -68 8t-34 21.5t-13 35.5h-2q-21 -33 -52.5 -51.5t-85.5 -18.5q-62 0 -100 36t-38 108q0 54 21.5 88t48.5 50t58 26q50 17 134 30l59 10l1 6q4 20 4 28q0 20 -10 30.5t-40 10.5q-23 0 -36 -5.5t-22 -18.5t-16 -39l-144 24
q19 67 73.5 102t160.5 35q105 0 153 -36t48 -97q0 -10 -5 -40l-24 -134q-1 -4 -2 -10t-2 -13q-8 -42 -8 -53q0 -16 18 -16q6 0 12 2.5t8 3.5h2l14 -94q-15 -9 -45.5 -19zM318 248l-46 -12q-3 -1 -22.5 -5.5t-33.5 -12.5q-17 -9 -26.5 -22.5t-9.5 -37.5q0 -32 15 -44t41 -12
q24 0 44 18t26 52l14 76h-2zM328 616h-2l-51 -64h-99l82 140h162l36 -140h-99z" />
    <glyph glyph-name="atilde.salt" horiz-adv-x="548" 
d="M472.5 1q-30.5 -10 -67.5 -10q-44 0 -68 8t-34 21.5t-13 35.5h-2q-21 -33 -52.5 -51.5t-85.5 -18.5q-62 0 -100 36t-38 108q0 54 21.5 88t48.5 50t58 26q50 17 134 30l59 10l1 6q4 20 4 28q0 20 -10 30.5t-40 10.5q-23 0 -36 -5.5t-22 -18.5t-16 -39l-144 24
q19 67 73.5 102t160.5 35q105 0 153 -36t48 -97q0 -10 -5 -40l-24 -134q-1 -4 -2 -10t-2 -13q-8 -42 -8 -53q0 -16 18 -16q6 0 12 2.5t8 3.5h2l14 -94q-15 -9 -45.5 -19zM318 248l-46 -12q-3 -1 -22.5 -5.5t-33.5 -12.5q-17 -9 -26.5 -22.5t-9.5 -37.5q0 -32 15 -44t41 -12
q24 0 44 18t26 52l14 76h-2zM460.5 573q-28.5 -22 -68.5 -22q-22 0 -38.5 5.5t-25.5 11.5t-13 10l-6 5q-1 1 -8 7t-16 10.5t-18 4.5q-26 0 -34 -33l-3 -12l-76 17l8 27q15 50 43.5 72t68.5 22q22 0 38.5 -5.5t25.5 -11.5t13 -10l6 -5q1 -1 8 -7t16 -10.5t18 -4.5q26 0 34 33
l3 12l76 -17l-8 -27q-15 -50 -43.5 -72z" />
    <glyph glyph-name="amacron.salt" horiz-adv-x="548" 
d="M472.5 1q-30.5 -10 -67.5 -10q-44 0 -68 8t-34 21.5t-13 35.5h-2q-21 -33 -52.5 -51.5t-85.5 -18.5q-62 0 -100 36t-38 108q0 54 21.5 88t48.5 50t58 26q50 17 134 30l59 10l1 6q4 20 4 28q0 20 -10 30.5t-40 10.5q-23 0 -36 -5.5t-22 -18.5t-16 -39l-144 24
q19 67 73.5 102t160.5 35q105 0 153 -36t48 -97q0 -10 -5 -40l-24 -134q-1 -4 -2 -10t-2 -13q-8 -42 -8 -53q0 -16 18 -16q6 0 12 2.5t8 3.5h2l14 -94q-15 -9 -45.5 -19zM318 248l-46 -12q-3 -1 -22.5 -5.5t-33.5 -12.5q-17 -9 -26.5 -22.5t-9.5 -37.5q0 -32 15 -44t41 -12
q24 0 44 18t26 52l14 76h-2zM184 670h322l-16 -94h-322z" />
    <glyph glyph-name="abreve.salt" horiz-adv-x="548" 
d="M472.5 1q-30.5 -10 -67.5 -10q-44 0 -68 8t-34 21.5t-13 35.5h-2q-21 -33 -52.5 -51.5t-85.5 -18.5q-62 0 -100 36t-38 108q0 54 21.5 88t48.5 50t58 26q50 17 134 30l59 10l1 6q4 20 4 28q0 20 -10 30.5t-40 10.5q-23 0 -36 -5.5t-22 -18.5t-16 -39l-144 24
q19 67 73.5 102t160.5 35q105 0 153 -36t48 -97q0 -10 -5 -40l-24 -134q-1 -4 -2 -10t-2 -13q-8 -42 -8 -53q0 -16 18 -16q6 0 12 2.5t8 3.5h2l14 -94q-15 -9 -45.5 -19zM318 248l-46 -12q-3 -1 -22.5 -5.5t-33.5 -12.5q-17 -9 -26.5 -22.5t-9.5 -37.5q0 -32 15 -44t41 -12
q24 0 44 18t26 52l14 76h-2zM438 581q-43 -31 -113 -31q-69 0 -102 31t-36 95l92 20q1 -28 15 -42t46 -14q33 0 50.5 13.5t27.5 42.5l87 -20q-24 -64 -67 -95z" />
    <glyph glyph-name="aogonek.salt" horiz-adv-x="548" 
d="M427.5 -205q-13.5 -7 -38.5 -13t-59 -6q-33 0 -58 13.5t-38.5 37.5t-13.5 54q0 37 17 64t38.5 42t38.5 21v2q-19 14 -24 46h-2q-6 -12 -25.5 -28.5t-49 -29t-63.5 -12.5q-62 0 -100 36t-38 108q0 54 21.5 88t48.5 50t58 26q50 17 134 30l59 10l1 6q0 2 2 12t2 16
q0 20 -10 30.5t-40 10.5q-23 0 -36 -5.5t-22 -18.5t-16 -39l-144 24q19 67 73.5 102t160.5 35q105 0 153 -36t48 -97q0 -10 -5 -40l-24 -134q-1 -4 -2 -10t-2 -13q-8 -42 -8 -53q0 -16 18 -16q6 0 12 2.5t8 3.5h2l14 -94q-9 -6 -36 -15.5t-56 -12.5q-24 -6 -41.5 -13
t-30 -23t-12.5 -44q0 -20 11 -31t31 -11q13 0 24.5 3t17.5 6.5t8 4.5h2l8 -80q-3 -2 -16.5 -9zM318 248l-46 -12q-3 -1 -22.5 -5.5t-33.5 -12.5q-17 -9 -26.5 -22.5t-9.5 -37.5q0 -32 15 -44t41 -12q24 0 44 18t26 52l14 76h-2z" />
    <glyph glyph-name="ae.salt" horiz-adv-x="816" 
d="M483.5 194.5q-1.5 -12.5 -1.5 -28.5q0 -25 15 -45.5t51 -20.5t55 16t33 44l140 -34q-16 -31 -45 -62.5t-79 -54.5t-120 -23q-73 0 -118.5 24t-67.5 62h-2q-23 -35 -69.5 -60.5t-120.5 -25.5q-66 0 -105 36t-39 108q0 54 21.5 88t48.5 50t58 26q50 17 134 30l59 10l1 6
q0 2 2 12t2 16q0 20 -10 30.5t-40 10.5q-23 0 -36 -5.5t-22 -18.5t-16 -39l-144 24q19 67 73.5 102t160.5 35q56 0 90.5 -9.5t57.5 -25.5h2q29 18 63 27t77 9q79 0 125 -31t63.5 -77t17.5 -98q0 -18 -3 -44.5t-9 -47.5h-300q-1 -3 -2.5 -15.5zM638 338q0 68 -56 68
q-33 0 -53.5 -25.5t-28.5 -70.5h135l1 6q2 12 2 22zM316 248l-46 -12q-3 -1 -22.5 -5.5t-33.5 -12.5q-17 -9 -26.5 -22.5t-9.5 -37.5q0 -32 15 -44t41 -12q24 0 44 18t26 52l14 76h-2z" />
    <glyph glyph-name="e.salt" horiz-adv-x="534" 
d="M199.5 194.5q-1.5 -12.5 -1.5 -28.5q0 -25 15 -45.5t51 -20.5t55 16t33 44l140 -34q-16 -31 -45 -62.5t-79 -54.5t-120 -23q-110 0 -163 56.5t-53 155.5q0 95 33.5 165t96 107.5t146.5 37.5q79 0 125 -31t63.5 -77t17.5 -98q0 -18 -3 -44.5t-9 -47.5h-300
q-1 -3 -2.5 -15.5zM354 338q0 68 -56 68q-33 0 -53.5 -25.5t-28.5 -70.5h135l1 6q2 12 2 22z" />
    <glyph glyph-name="eacute.salt" horiz-adv-x="534" 
d="M199.5 194.5q-1.5 -12.5 -1.5 -28.5q0 -25 15 -45.5t51 -20.5t55 16t33 44l140 -34q-16 -31 -45 -62.5t-79 -54.5t-120 -23q-110 0 -163 56.5t-53 155.5q0 95 33.5 165t96 107.5t146.5 37.5q79 0 125 -31t63.5 -77t17.5 -98q0 -18 -3 -44.5t-9 -47.5h-300
q-1 -3 -2.5 -15.5zM354 338q0 68 -56 68q-33 0 -53.5 -25.5t-28.5 -70.5h135l1 6q2 12 2 22zM333 692h161l-114 -140h-128z" />
    <glyph glyph-name="egrave.salt" horiz-adv-x="534" 
d="M199.5 194.5q-1.5 -12.5 -1.5 -28.5q0 -25 15 -45.5t51 -20.5t55 16t33 44l140 -34q-16 -31 -45 -62.5t-79 -54.5t-120 -23q-110 0 -163 56.5t-53 155.5q0 95 33.5 165t96 107.5t146.5 37.5q79 0 125 -31t63.5 -77t17.5 -98q0 -18 -3 -44.5t-9 -47.5h-300
q-1 -3 -2.5 -15.5zM354 338q0 68 -56 68q-33 0 -53.5 -25.5t-28.5 -70.5h135l1 6q2 12 2 22zM188 692h158l38 -140h-124z" />
    <glyph glyph-name="ecircumflex.salt" horiz-adv-x="534" 
d="M199.5 194.5q-1.5 -12.5 -1.5 -28.5q0 -25 15 -45.5t51 -20.5t55 16t33 44l140 -34q-16 -31 -45 -62.5t-79 -54.5t-120 -23q-110 0 -163 56.5t-53 155.5q0 95 33.5 165t96 107.5t146.5 37.5q79 0 125 -31t63.5 -77t17.5 -98q0 -18 -3 -44.5t-9 -47.5h-300
q-1 -3 -2.5 -15.5zM354 338q0 68 -56 68q-33 0 -53.5 -25.5t-28.5 -70.5h135l1 6q2 12 2 22zM331 616h-2l-51 -64h-99l82 140h162l36 -140h-99z" />
    <glyph glyph-name="edieresis.salt" horiz-adv-x="534" 
d="M199.5 194.5q-1.5 -12.5 -1.5 -28.5q0 -25 15 -45.5t51 -20.5t55 16t33 44l140 -34q-16 -31 -45 -62.5t-79 -54.5t-120 -23q-110 0 -163 56.5t-53 155.5q0 95 33.5 165t96 107.5t146.5 37.5q79 0 125 -31t63.5 -77t17.5 -98q0 -18 -3 -44.5t-9 -47.5h-300
q-1 -3 -2.5 -15.5zM354 338q0 68 -56 68q-33 0 -53.5 -25.5t-28.5 -70.5h135l1 6q2 12 2 22zM205 692h114l-25 -140h-114zM371 692h114l-25 -140h-114z" />
    <glyph glyph-name="emacron.salt" horiz-adv-x="534" 
d="M199.5 194.5q-1.5 -12.5 -1.5 -28.5q0 -25 15 -45.5t51 -20.5t55 16t33 44l140 -34q-16 -31 -45 -62.5t-79 -54.5t-120 -23q-110 0 -163 56.5t-53 155.5q0 95 33.5 165t96 107.5t146.5 37.5q79 0 125 -31t63.5 -77t17.5 -98q0 -18 -3 -44.5t-9 -47.5h-300
q-1 -3 -2.5 -15.5zM354 338q0 68 -56 68q-33 0 -53.5 -25.5t-28.5 -70.5h135l1 6q2 12 2 22zM178 670h322l-16 -94h-322z" />
    <glyph glyph-name="ebreve.salt" horiz-adv-x="534" 
d="M199.5 194.5q-1.5 -12.5 -1.5 -28.5q0 -25 15 -45.5t51 -20.5t55 16t33 44l140 -34q-16 -31 -45 -62.5t-79 -54.5t-120 -23q-110 0 -163 56.5t-53 155.5q0 95 33.5 165t96 107.5t146.5 37.5q79 0 125 -31t63.5 -77t17.5 -98q0 -18 -3 -44.5t-9 -47.5h-300
q-1 -3 -2.5 -15.5zM354 338q0 68 -56 68q-33 0 -53.5 -25.5t-28.5 -70.5h135l1 6q2 12 2 22zM432 581q-43 -31 -113 -31q-69 0 -102 31t-36 95l92 20q1 -28 15 -42t46 -14q33 0 50.5 13.5t27.5 42.5l87 -20q-24 -64 -67 -95z" />
    <glyph glyph-name="edotaccent.salt" horiz-adv-x="534" 
d="M199.5 194.5q-1.5 -12.5 -1.5 -28.5q0 -25 15 -45.5t51 -20.5t55 16t33 44l140 -34q-16 -31 -45 -62.5t-79 -54.5t-120 -23q-110 0 -163 56.5t-53 155.5q0 95 33.5 165t96 107.5t146.5 37.5q79 0 125 -31t63.5 -77t17.5 -98q0 -18 -3 -44.5t-9 -47.5h-300
q-1 -3 -2.5 -15.5zM354 338q0 68 -56 68q-33 0 -53.5 -25.5t-28.5 -70.5h135l1 6q2 12 2 22zM285 692h112l-22 -140h-112z" />
    <glyph glyph-name="eogonek.salt" horiz-adv-x="534" 
d="M398.5 -205q-13.5 -7 -38.5 -13t-59 -6q-33 0 -58 13.5t-38.5 37.5t-13.5 54q0 31 12 54t27 37t15 12v2q-108 1 -160.5 57.5t-52.5 154.5q0 95 33.5 165t96 107.5t146.5 37.5q79 0 125 -31t63.5 -77t17.5 -98q0 -18 -3 -44.5t-9 -47.5h-300q-1 -3 -2.5 -15.5t-1.5 -28.5
q0 -25 15 -45.5t51 -20.5t55 16t33 44l140 -34q-14 -29 -40.5 -58.5t-66.5 -50.5q-22 -15 -36.5 -26.5t-25.5 -31.5t-11 -47q0 -20 11.5 -31t31.5 -11q13 0 24.5 3t17.5 6.5t8 4.5h2l8 -80q-3 -2 -16.5 -9zM354 338q0 68 -56 68q-33 0 -53.5 -25.5t-28.5 -70.5h135l1 6
q2 12 2 22z" />
    <glyph glyph-name="ecaron.salt" horiz-adv-x="534" 
d="M199.5 194.5q-1.5 -12.5 -1.5 -28.5q0 -25 15 -45.5t51 -20.5t55 16t33 44l140 -34q-16 -31 -45 -62.5t-79 -54.5t-120 -23q-110 0 -163 56.5t-53 155.5q0 95 33.5 165t96 107.5t146.5 37.5q79 0 125 -31t63.5 -77t17.5 -98q0 -18 -3 -44.5t-9 -47.5h-300
q-1 -3 -2.5 -15.5zM354 338q0 68 -56 68q-33 0 -53.5 -25.5t-28.5 -70.5h135l1 6q2 12 2 22zM202 692h99l29 -64h2l51 64h99l-82 -140h-162z" />
    <glyph glyph-name="f.salt" horiz-adv-x="350" 
d="M101 381h-73l20 113h73l11 62q14 78 57.5 114.5t126.5 36.5q42 0 74.5 -9t51.5 -20l-40 -102h-2q-2 1 -9 5t-19 7.5t-24 3.5q-22 0 -34.5 -11.5t-17.5 -40.5l-8 -46h100l-20 -113h-100l-66 -381h-167z" />
    <glyph glyph-name="uniFB01.salt" horiz-adv-x="635" 
d="M101 381h-73l20 113h73l11 62q14 78 57.5 114.5t126.5 36.5q42 0 74.5 -9t51.5 -20l-40 -102h-2q-2 1 -9 5t-19 7.5t-24 3.5q-22 0 -34.5 -11.5t-17.5 -40.5l-8 -46h100l-20 -113h-100l-66 -381h-167zM494 693h167l-24 -133h-167zM459 494h167l-87 -494h-167z" />
    <glyph glyph-name="uniFB02.salt" horiz-adv-x="639" 
d="M101 381h-73l20 113h73l11 62q14 78 57.5 114.5t126.5 36.5q42 0 74.5 -9t51.5 -20l-40 -102h-2q-2 1 -9 5t-19 7.5t-24 3.5q-22 0 -34.5 -11.5t-17.5 -40.5l-8 -46h100l-20 -113h-100l-66 -381h-167zM496 693h167l-122 -693h-167z" />
    <glyph glyph-name="uniFB00.salt" horiz-adv-x="685" 
d="M436 381h-168l-66 -381h-167l66 381h-73l20 113h73l11 62q14 78 57.5 114.5t126.5 36.5q42 0 74.5 -9t51.5 -20l-40 -102h-2q-2 1 -9 5t-19 7.5t-24 3.5q-22 0 -34.5 -11.5t-17.5 -40.5l-8 -46h168l11 62q14 78 57.5 114.5t126.5 36.5q42 0 74.5 -9t51.5 -20l-40 -102h-2
q-2 1 -9 5t-19 7.5t-24 3.5q-22 0 -34.5 -11.5t-17.5 -40.5l-8 -46h100l-20 -113h-100l-66 -381h-167z" />
    <glyph glyph-name="uniFB03.salt" horiz-adv-x="970" 
d="M436 381h-168l-66 -381h-167l66 381h-73l20 113h73l11 62q14 78 57.5 114.5t126.5 36.5q42 0 74.5 -9t51.5 -20l-40 -102h-2q-2 1 -9 5t-19 7.5t-24 3.5q-22 0 -34.5 -11.5t-17.5 -40.5l-8 -46h168l11 62q14 78 57.5 114.5t126.5 36.5q42 0 74.5 -9t51.5 -20l-40 -102h-2
q-2 1 -9 5t-19 7.5t-24 3.5q-22 0 -34.5 -11.5t-17.5 -40.5l-8 -46h100l-20 -113h-100l-66 -381h-167zM829 693h167l-24 -133h-167zM794 494h167l-87 -494h-167z" />
    <glyph glyph-name="uniFB04.salt" horiz-adv-x="974" 
d="M436 381h-168l-66 -381h-167l66 381h-73l20 113h73l11 62q14 78 57.5 114.5t126.5 36.5q42 0 74.5 -9t51.5 -20l-40 -102h-2q-2 1 -9 5t-19 7.5t-24 3.5q-22 0 -34.5 -11.5t-17.5 -40.5l-8 -46h168l11 62q14 78 57.5 114.5t126.5 36.5q42 0 74.5 -9t51.5 -20l-40 -102h-2
q-2 1 -9 5t-19 7.5t-24 3.5q-22 0 -34.5 -11.5t-17.5 -40.5l-8 -46h100l-20 -113h-100l-66 -381h-167zM831 693h167l-122 -693h-167z" />
    <glyph glyph-name="f_j.liga.salt" horiz-adv-x="635" 
d="M101 381h-73l20 113h73l11 62q14 78 57.5 114.5t126.5 36.5q42 0 74.5 -9t51.5 -20l-40 -102h-2q-2 1 -9 5t-19 7.5t-24 3.5q-22 0 -34.5 -11.5t-17.5 -40.5l-8 -46h100l-20 -113h-100l-66 -381h-167zM494 693h167l-24 -133h-167zM286 -66q5 -3 14 -5t17 -2q22 0 34 11
q13 13 19 50l89 506h167l-92 -524q-6 -36 -20.5 -65.5t-37.5 -50.5q-22 -20 -54 -30t-68 -10q-32 0 -62 7.5t-46 16.5l38 96h2z" />
    <glyph glyph-name="i.locl" horiz-adv-x="285" 
d="M144 693h167l-24 -133h-167zM109 494h167l-87 -494h-167z" />
    <glyph glyph-name="l.salt" horiz-adv-x="289" 
d="M146 693h167l-122 -693h-167z" />
    <glyph glyph-name="lslash.salt" horiz-adv-x="289" 
d="M58 193l-49 -33l24 137l49 33l64 363h167l-42 -240l54 36l-24 -137l-54 -35l-56 -317h-167z" />
    <glyph glyph-name="lacute.salt" horiz-adv-x="289" 
d="M146 693h167l-122 -693h-167zM239 892h161l-114 -140h-128z" />
    <glyph glyph-name="lcaron.salt" horiz-adv-x="289" 
d="M146 693h167l-122 -693h-167zM371 692h152l-90 -161h-112z" />
    <glyph glyph-name="ldot.salt" horiz-adv-x="438" 
d="M146 693h167l-122 -693h-167zM336 434h130l-26 -146h-130z" />
    <glyph glyph-name="lcommaaccent.salt" horiz-adv-x="289" 
d="M146 693h167l-122 -693h-167zM33 -260q18 22 23 51l3 17h-51l24 139h135l-24 -142q-9 -53 -37.5 -89.5t-73.5 -57.5l-40 50q23 10 41 32z" />
    <glyph glyph-name="oe.salt" horiz-adv-x="870" 
d="M537.5 194.5q-1.5 -12.5 -1.5 -28.5q0 -25 15 -45.5t51 -20.5t55 16t33 44l140 -34q-16 -31 -45 -62.5t-79 -54.5t-120 -23q-60 0 -99 16t-57 36h-2q-27 -22 -72 -37t-102 -15q-76 0 -126.5 29t-74 77.5t-23.5 107.5q0 88 33 157.5t99 110t160 40.5q52 0 91.5 -14.5
t64.5 -37.5h2q24 20 65 36t101 16q79 0 125 -31t63.5 -77t17.5 -98q0 -18 -3 -44.5t-9 -47.5h-300q-1 -3 -2.5 -15.5zM692 338q0 68 -56 68q-33 0 -53.5 -25.5t-28.5 -70.5h135l1 6q2 12 2 22zM329 132.5q24 28.5 34.5 70t10.5 81.5q0 51 -15 78.5t-51 27.5q-37 0 -61 -28
t-34.5 -69t-10.5 -81q0 -52 15 -80t51 -28q37 0 61 28.5z" />
    <glyph glyph-name="y.salt" horiz-adv-x="571" 
d="M324 88q-18 -26 -52.5 -51t-91.5 -25q-66 0 -100.5 36t-34.5 98q0 14 2 31t5 31l50 286h167l-45 -258q-5 -30 -5 -44q0 -20 8.5 -36t39.5 -16q36 0 55.5 25t27.5 71l45 258h167l-86 -494q-12 -68 -44.5 -109t-86 -59.5t-133.5 -18.5q-76 0 -121.5 20t-64 51t-18.5 67
l154 24q0 -29 14.5 -43t51.5 -14q26 0 42 8.5t25.5 27.5t15.5 51l15 83h-2z" />
    <glyph glyph-name="ygrave.salt" horiz-adv-x="571" 
d="M324 88q-18 -26 -52.5 -51t-91.5 -25q-66 0 -100.5 36t-34.5 98q0 14 2 31t5 31l50 286h167l-45 -258q-5 -30 -5 -44q0 -20 8.5 -36t39.5 -16q36 0 55.5 25t27.5 71l45 258h167l-86 -494q-12 -68 -44.5 -109t-86 -59.5t-133.5 -18.5q-76 0 -121.5 20t-64 51t-18.5 67
l154 24q0 -29 14.5 -43t51.5 -14q26 0 42 8.5t25.5 27.5t15.5 51l15 83h-2zM206 692h158l38 -140h-124z" />
    <glyph glyph-name="yacute.salt" horiz-adv-x="571" 
d="M324 88q-18 -26 -52.5 -51t-91.5 -25q-66 0 -100.5 36t-34.5 98q0 14 2 31t5 31l50 286h167l-45 -258q-5 -30 -5 -44q0 -20 8.5 -36t39.5 -16q36 0 55.5 25t27.5 71l45 258h167l-86 -494q-12 -68 -44.5 -109t-86 -59.5t-133.5 -18.5q-76 0 -121.5 20t-64 51t-18.5 67
l154 24q0 -29 14.5 -43t51.5 -14q26 0 42 8.5t25.5 27.5t15.5 51l15 83h-2zM355 692h161l-114 -140h-128z" />
    <glyph glyph-name="ydieresis.salt" horiz-adv-x="571" 
d="M324 88q-18 -26 -52.5 -51t-91.5 -25q-66 0 -100.5 36t-34.5 98q0 14 2 31t5 31l50 286h167l-45 -258q-5 -30 -5 -44q0 -20 8.5 -36t39.5 -16q36 0 55.5 25t27.5 71l45 258h167l-86 -494q-12 -68 -44.5 -109t-86 -59.5t-133.5 -18.5q-76 0 -121.5 20t-64 51t-18.5 67
l154 24q0 -29 14.5 -43t51.5 -14q26 0 42 8.5t25.5 27.5t15.5 51l15 83h-2zM223 692h114l-25 -140h-114zM389 692h114l-25 -140h-114z" />
    <glyph glyph-name="ycircumflex.salt" horiz-adv-x="571" 
d="M324 88q-18 -26 -52.5 -51t-91.5 -25q-66 0 -100.5 36t-34.5 98q0 14 2 31t5 31l50 286h167l-45 -258q-5 -30 -5 -44q0 -20 8.5 -36t39.5 -16q36 0 55.5 25t27.5 71l45 258h167l-86 -494q-12 -68 -44.5 -109t-86 -59.5t-133.5 -18.5q-76 0 -121.5 20t-64 51t-18.5 67
l154 24q0 -29 14.5 -43t51.5 -14q26 0 42 8.5t25.5 27.5t15.5 51l15 83h-2zM351 616h-2l-51 -64h-99l82 140h162l36 -140h-99z" />
    <glyph glyph-name="a.sc" horiz-adv-x="539" 
d="M326 99h-158l-42 -99h-170l250 512h224l73 -512h-169zM302 393.5q-1 13.5 -1 18.5h-2l-27 -64l-56 -134h100l-12 150q-1 16 -2 29.5z" />
    <glyph glyph-name="B.aalt" horiz-adv-x="563" 
d="M111 512h242q93 0 135.5 -27.5t42.5 -83.5q0 -58 -36.5 -88t-89.5 -38v-2q27 -2 53 -13.5t44 -36.5t18 -63q0 -47 -24 -83t-76 -56.5t-133 -20.5h-265zM339 334.5q16 13.5 16 41.5q0 21 -15.5 29t-44.5 8h-35l-16 -92h43q36 0 52 13.5zM327 120q21 18 21 56q0 28 -19 38
t-60 10h-42l-21 -122h47q53 0 74 18z" />
    <glyph glyph-name="C.aalt" horiz-adv-x="576" 
d="M408 332q0 15 -6.5 32t-23.5 30.5t-46 13.5q-42 0 -70.5 -27.5t-42 -71t-13.5 -91.5q0 -43 16 -77.5t62 -34.5t70 27t38 63l154 -22q-15 -51 -51 -93t-94 -68t-135 -26q-78 0 -131.5 29t-79.5 79t-26 113q0 101 38.5 172t109.5 108t167 37q87 0 135.5 -33.5t65.5 -74.5
t17 -71l-154 -26v12z" />
    <glyph glyph-name="D.aalt" horiz-adv-x="596" 
d="M111 512h230q115 0 174.5 -50t59.5 -162q0 -102 -41.5 -169t-113.5 -99t-166 -32h-232zM342 141q29 25 43 66.5t14 92.5q0 37 -10 58.5t-31 30.5t-56 9h-43l-49 -282h61q42 0 71 25z" />
    <glyph glyph-name="E.aalt" horiz-adv-x="480" 
d="M111 512h389l-41 -114h-200l-13 -74h186l-20 -114h-186l-16 -94h205l5 -116h-398z" />
    <glyph glyph-name="F.aalt" horiz-adv-x="450" 
d="M190 0h-168l89 512h379l-39 -114h-192l-16 -94h175l-20 -114h-175z" />
    <glyph glyph-name="G.aalt" horiz-adv-x="594" 
d="M434 16.5q-57 -29.5 -162 -29.5q-80 0 -134.5 28t-81.5 78t-27 115q0 98 38 170t108.5 110t166.5 38q81 0 130 -25t68.5 -52t23.5 -41l-148 -56q0 4 -7.5 19t-26 28.5t-50.5 13.5q-35 0 -64.5 -21t-47 -65t-17.5 -109q0 -60 22 -88t63 -28q23 0 40 5t25.5 10.5t10.5 7.5
l13 74h-86l19 109h250l-40 -231q-29 -31 -86 -60.5z" />
    <glyph glyph-name="H.aalt" horiz-adv-x="599" 
d="M366 214h-139l-37 -214h-168l89 512h168l-31 -177h139l31 177h168l-89 -512h-168z" />
    <glyph glyph-name="I.aalt" horiz-adv-x="296" 
d="M113 512h168l-89 -512h-168z" />
    <glyph glyph-name="J.aalt" horiz-adv-x="472" 
d="M460 512l-62 -358q-16 -93 -74 -130.5t-156 -37.5q-84 0 -126 29.5t-42 90.5q0 19 5 37.5t10 31t7 15.5l142 32q-2 -3 -7 -15.5t-10 -31t-5 -37.5q0 -23 6.5 -34t27.5 -11q23 0 35.5 12t16.5 39l64 368h168z" />
    <glyph glyph-name="K.aalt" horiz-adv-x="550" 
d="M270 203l-54 -51l-26 -152h-168l89 512h168l-31 -174h2l164 174h184l-208 -196l122 -316h-174z" />
    <glyph glyph-name="L.aalt" horiz-adv-x="436" 
d="M111 512h168l-69 -396h185l5 -116h-378z" />
    <glyph glyph-name="M.aalt" horiz-adv-x="771" 
d="M566 333l14 75h-2q-2 -6 -8.5 -26.5t-17.5 -49.5l-125 -332h-172l-9 332v37v39h-2q-1 -6 -4 -26t-8 -48l-58 -334h-150l89 512h257l6 -255q1 -23 -2.5 -63t-4.5 -53h2q3 13 14.5 53.5t19.5 62.5l94 255h257l-89 -512h-159z" />
    <glyph glyph-name="N.aalt" horiz-adv-x="599" 
d="M244 236q-7 26 -12 56.5t-6 39.5h-2q-1 -9 -4.5 -36t-8.5 -60l-41 -236h-148l89 512h199l58 -214q6 -24 12 -55t8 -41h2q1 10 4 41t7 54l37 215h148l-89 -512h-189z" />
    <glyph glyph-name="o.sc" horiz-adv-x="613" 
d="M553.5 134q-38.5 -72 -111 -110t-170.5 -38q-78 0 -132.5 28t-82.5 78t-28 116q0 98 38.5 170t110.5 110t170 38q78 0 133 -28t83 -78t28 -116q0 -98 -38.5 -170zM360 131.5q28 29.5 41.5 73.5t13.5 89q0 116 -83 116q-43 0 -71 -29.5t-41.5 -73.5t-13.5 -89
q0 -116 83 -116q43 0 71 29.5z" />
    <glyph glyph-name="P.aalt" horiz-adv-x="540" 
d="M111 512h243q90 0 137.5 -33t47.5 -101q0 -91 -61.5 -135.5t-178.5 -44.5h-75l-34 -198h-168zM342.5 314q19.5 15 19.5 52q0 24 -15 34.5t-46 10.5h-41l-19 -112h39q43 0 62.5 15z" />
    <glyph glyph-name="Q.aalt" horiz-adv-x="613" 
d="M385.5 -52.5q-21.5 27.5 -27.5 47.5q-3 -1 -13 -3t-29.5 -4t-43.5 -2q-78 0 -132.5 28t-82.5 78t-28 116q0 98 38.5 170t110.5 110t170 38q78 0 133 -28t83 -78t28 -116q0 -87 -29.5 -151.5t-83.5 -105.5q6 -17 23.5 -38t37.5 -33l-112 -68q-21 12 -42.5 39.5zM354 218
q10 -6 20.5 -20.5t14.5 -24.5q2 4 8 18.5t12 41.5t6 61q0 116 -83 116q-43 0 -71 -29.5t-41.5 -73.5t-13.5 -89q0 -116 83 -116q9 0 14 1t6 1q-6 13 -19 31t-28 27q43 25 92 56z" />
    <glyph glyph-name="R.aalt" horiz-adv-x="563" 
d="M270 204h-45l-35 -204h-168l89 512h239q190 0 190 -136q0 -68 -35.5 -103t-80.5 -47l88 -226h-174zM343 319.5q19 14.5 19 48.5q0 23 -15 33t-45 10h-43l-18 -106h43q40 0 59 14.5z" />
    <glyph glyph-name="S.aalt" horiz-adv-x="518" 
d="M341.5 401q-29.5 15 -59.5 15q-29 0 -45.5 -8t-16.5 -28q0 -18 15 -27.5t39 -16.5l54 -16q38 -11 68.5 -25t57 -46t26.5 -85q0 -56 -32 -96t-88 -60.5t-126 -20.5q-65 0 -114.5 20.5t-79 53t-40.5 69.5l142 40q6 -20 22 -36t37.5 -25t40.5 -9q31 0 53.5 11t22.5 31
t-15 32t-43 20l-54 16q-37 11 -66.5 24t-54.5 44t-25 82q0 54 29.5 91.5t80.5 56t116 18.5q58 0 103.5 -18.5t74 -44.5t38.5 -49l-118 -56q-13 28 -42.5 43z" />
    <glyph glyph-name="T.aalt" horiz-adv-x="460" 
d="M175 398h-146l20 114h474l-46 -114h-134l-69 -398h-168z" />
    <glyph glyph-name="U.aalt" horiz-adv-x="591" 
d="M582 512l-54 -312q-19 -109 -85 -161t-187 -52q-113 0 -158.5 43.5t-45.5 117.5q0 19 5 54l54 310h168l-53 -304q-1 -7 -4 -23.5t-3 -26.5q0 -19 10.5 -34.5t46.5 -15.5q28 0 44.5 11.5t25.5 32.5t15 56l53 304h168z" />
    <glyph glyph-name="V.aalt" horiz-adv-x="535" 
d="M50 512h171l23 -294q2 -28 3.5 -52.5t1.5 -33.5h2q3 9 13 34t21 52l128 294h168l-247 -512h-215z" />
    <glyph glyph-name="W.aalt" horiz-adv-x="776" 
d="M411 264v45v52h-2l-12 -36t-21 -61l-96 -264h-182l-42 512h167l6 -241q1 -35 0 -65.5t-1 -41.5h2q3 11 12.5 41.5t22.5 65.5l88 241h179l5 -241q1 -35 0 -65.5t-1 -41.5h2q3 11 12.5 41.5t22.5 65.5l89 241h154l-217 -512h-183z" />
    <glyph glyph-name="X.aalt" horiz-adv-x="545" 
d="M286 116q-8 26 -13 45.5t-6 25.5h-2q-3 -6 -15 -28t-26 -43l-74 -116h-188l202 267l-103 245h180l38 -108q8 -21 12.5 -42t5.5 -27h2q3 6 14 25t26 44l71 108h180l-193 -245l111 -267h-185z" />
    <glyph glyph-name="Y.aalt" horiz-adv-x="512" 
d="M168 206l-126 306h169l38 -116q8 -24 13 -50t6 -34h2l17 34t29 50l79 116h173l-233 -306l-35 -206h-168z" />
    <glyph glyph-name="Z.aalt" horiz-adv-x="498" 
d="M4 100l250 254q16 16 32 30.5t21 18.5v2q-6 0 -27 -1t-52 -1h-161l19 109h433l-18 -103l-247 -251q-15 -15 -30.5 -28.5t-20.5 -17.5v-2q6 0 27 1t52 1h178l-20 -112h-453z" />
    <glyph glyph-name="Agrave.aalt" horiz-adv-x="539" 
d="M326 99h-158l-42 -99h-170l250 512h224l73 -512h-169zM302 393.5q-1 13.5 -1 18.5h-2l-27 -64l-56 -134h100l-12 150q-1 16 -2 29.5zM201 695h158l38 -140h-124z" />
    <glyph glyph-name="Aacute.aalt" horiz-adv-x="539" 
d="M326 99h-158l-42 -99h-170l250 512h224l73 -512h-169zM302 393.5q-1 13.5 -1 18.5h-2l-27 -64l-56 -134h100l-12 150q-1 16 -2 29.5zM339 695h161l-114 -140h-128z" />
    <glyph glyph-name="Acircumflex.aalt" horiz-adv-x="539" 
d="M326 99h-158l-42 -99h-170l250 512h224l73 -512h-169zM302 393.5q-1 13.5 -1 18.5h-2l-27 -64l-56 -134h100l-12 150q-1 16 -2 29.5zM332 618h-2l-51 -64h-99l82 140h162l36 -140h-99z" />
    <glyph glyph-name="Atilde.aalt" horiz-adv-x="539" 
d="M326 99h-158l-42 -99h-170l250 512h224l73 -512h-169zM302 393.5q-1 13.5 -1 18.5h-2l-27 -64l-56 -134h100l-12 150q-1 16 -2 29.5zM465.5 575q-28.5 -22 -68.5 -22q-22 0 -38.5 5.5t-25.5 11.5t-13 10l-6 5q-1 1 -8 7t-16 10.5t-18 4.5q-26 0 -34 -33l-3 -12l-76 17
l8 27q15 50 43.5 72t68.5 22q22 0 38.5 -5.5t25.5 -11.5t13 -10l6 -5q1 -1 8 -7t16 -10.5t18 -4.5q26 0 34 33l3 12l76 -17l-8 -27q-15 -50 -43.5 -72z" />
    <glyph glyph-name="Adieresis.aalt" horiz-adv-x="539" 
d="M326 99h-158l-42 -99h-170l250 512h224l73 -512h-169zM302 393.5q-1 13.5 -1 18.5h-2l-27 -64l-56 -134h100l-12 150q-1 16 -2 29.5zM209 694h114l-25 -140h-114zM375 694h114l-25 -140h-114z" />
    <glyph glyph-name="Aring.aalt" horiz-adv-x="539" 
d="M326 99h-158l-42 -99h-170l250 512h224l73 -512h-169zM302 393.5q-1 13.5 -1 18.5h-2l-27 -64l-56 -134h100l-12 150q-1 16 -2 29.5zM444 581q-21 -23 -53 -33t-69 -10q-48 0 -81 18t-33 56q0 36 20.5 59t53 33t68.5 10q49 0 82 -18t33 -56q0 -36 -21 -59zM366.5 654
q-8.5 8 -24.5 8q-19 0 -32 -12t-13 -30q0 -14 8.5 -22t24.5 -8q19 0 32 12t13 30q0 14 -8.5 22z" />
    <glyph glyph-name="Amacron.aalt" horiz-adv-x="539" 
d="M326 99h-158l-42 -99h-170l250 512h224l73 -512h-169zM302 393.5q-1 13.5 -1 18.5h-2l-27 -64l-56 -134h100l-12 150q-1 16 -2 29.5zM183 672h322l-16 -94h-322z" />
    <glyph glyph-name="Abreve.aalt" horiz-adv-x="539" 
d="M326 99h-158l-42 -99h-170l250 512h224l73 -512h-169zM302 393.5q-1 13.5 -1 18.5h-2l-27 -64l-56 -134h100l-12 150q-1 16 -2 29.5zM437 584q-43 -31 -113 -31q-69 0 -102 31t-36 95l92 20q1 -28 15 -42t46 -14q33 0 50.5 13.5t27.5 42.5l87 -20q-24 -64 -67 -95z" />
    <glyph glyph-name="Aogonek.aalt" horiz-adv-x="539" 
d="M423.5 -203.5q-15.5 -7.5 -41 -14.5t-54.5 -7q-51 0 -83.5 27t-32.5 78t32.5 88.5t87.5 57.5l-6 73h-158l-42 -99h-170l250 512h224l73 -512q-168 0 -168 -84q0 -23 11 -35t31 -12q12 0 22 3.5t16.5 7t8.5 4.5h2l17 -77q-4 -3 -19.5 -10.5zM302 393.5q-1 13.5 -1 18.5h-2
l-27 -64l-56 -134h100l-12 150q-1 16 -2 29.5z" />
    <glyph glyph-name="AE.aalt" horiz-adv-x="776" 
d="M354 103h-169l-73 -103h-184l394 512h474l-41 -114h-182l-13 -74h168l-20 -114h-168l-16 -94h187l5 -116h-380zM410 420h-2q-3 -5 -14 -21t-26 -37l-100 -140h107l24 140z" />
    <glyph glyph-name="Ccedilla.aalt" horiz-adv-x="576" 
d="M188 -4q-78 19 -118.5 76t-40.5 136q0 101 38.5 172t109.5 108t167 37q87 0 135.5 -33.5t65.5 -74.5t17 -71l-154 -26v12q0 15 -6.5 32t-23.5 30.5t-46 13.5q-42 0 -70.5 -27.5t-42 -71t-13.5 -91.5q0 -43 16 -77.5t62 -34.5t70 27t38 63l154 -22q-13 -45 -43 -84
t-78 -66t-111 -34l-68 -132h-160z" />
    <glyph glyph-name="Cacute.aalt" horiz-adv-x="576" 
d="M408 332q0 15 -6.5 32t-23.5 30.5t-46 13.5q-42 0 -70.5 -27.5t-42 -71t-13.5 -91.5q0 -43 16 -77.5t62 -34.5t70 27t38 63l154 -22q-15 -51 -51 -93t-94 -68t-135 -26q-78 0 -131.5 29t-79.5 79t-26 113q0 101 38.5 172t109.5 108t167 37q87 0 135.5 -33.5t65.5 -74.5
t17 -71l-154 -26v12zM364 695h161l-114 -140h-128z" />
    <glyph glyph-name="Ccircumflex.aalt" horiz-adv-x="576" 
d="M408 332q0 15 -6.5 32t-23.5 30.5t-46 13.5q-42 0 -70.5 -27.5t-42 -71t-13.5 -91.5q0 -43 16 -77.5t62 -34.5t70 27t38 63l154 -22q-15 -51 -51 -93t-94 -68t-135 -26q-78 0 -131.5 29t-79.5 79t-26 113q0 101 38.5 172t109.5 108t167 37q87 0 135.5 -33.5t65.5 -74.5
t17 -71l-154 -26v12zM365 619h-2l-51 -64h-99l82 140h162l36 -140h-99z" />
    <glyph glyph-name="Cdotaccent.aalt" horiz-adv-x="576" 
d="M408 332q0 15 -6.5 32t-23.5 30.5t-46 13.5q-42 0 -70.5 -27.5t-42 -71t-13.5 -91.5q0 -43 16 -77.5t62 -34.5t70 27t38 63l154 -22q-15 -51 -51 -93t-94 -68t-135 -26q-78 0 -131.5 29t-79.5 79t-26 113q0 101 38.5 172t109.5 108t167 37q87 0 135.5 -33.5t65.5 -74.5
t17 -71l-154 -26v12zM321 695h112l-22 -140h-112z" />
    <glyph glyph-name="Ccaron.aalt" horiz-adv-x="576" 
d="M408 332q0 15 -6.5 32t-23.5 30.5t-46 13.5q-42 0 -70.5 -27.5t-42 -71t-13.5 -91.5q0 -43 16 -77.5t62 -34.5t70 27t38 63l154 -22q-15 -51 -51 -93t-94 -68t-135 -26q-78 0 -131.5 29t-79.5 79t-26 113q0 101 38.5 172t109.5 108t167 37q87 0 135.5 -33.5t65.5 -74.5
t17 -71l-154 -26v12zM238 695h99l29 -64h2l51 64h99l-82 -140h-162z" />
    <glyph glyph-name="Eth.aalt" horiz-adv-x="596" 
d="M59 214h-39l18 108h40l33 190h230q115 0 174.5 -50t59.5 -162q0 -102 -41.5 -169t-113.5 -99t-166 -32h-232zM342 141q29 25 43 66.5t14 92.5q0 37 -10 58.5t-31 30.5t-56 9h-43l-13 -76h80l-19 -108h-80l-17 -98h61q42 0 71 25z" />
    <glyph glyph-name="Dcroat.aalt" horiz-adv-x="596" 
d="M59 214h-39l18 108h40l33 190h230q115 0 174.5 -50t59.5 -162q0 -102 -41.5 -169t-113.5 -99t-166 -32h-232zM342 141q29 25 43 66.5t14 92.5q0 37 -10 58.5t-31 30.5t-56 9h-43l-13 -76h80l-19 -108h-80l-17 -98h61q42 0 71 25z" />
    <glyph glyph-name="Dcaron.aalt" horiz-adv-x="596" 
d="M111 512h230q115 0 174.5 -50t59.5 -162q0 -102 -41.5 -169t-113.5 -99t-166 -32h-232zM342 141q29 25 43 66.5t14 92.5q0 37 -10 58.5t-31 30.5t-56 9h-43l-49 -282h61q42 0 71 25zM229 695h99l29 -64h2l51 64h99l-82 -140h-162z" />
    <glyph glyph-name="Egrave.aalt" horiz-adv-x="480" 
d="M111 512h389l-41 -114h-200l-13 -74h186l-20 -114h-186l-16 -94h205l5 -116h-398zM190 695h158l38 -140h-124z" />
    <glyph glyph-name="Eacute.aalt" horiz-adv-x="480" 
d="M111 512h389l-41 -114h-200l-13 -74h186l-20 -114h-186l-16 -94h205l5 -116h-398zM318 695h161l-114 -140h-128z" />
    <glyph glyph-name="Ecircumflex.aalt" horiz-adv-x="480" 
d="M111 512h389l-41 -114h-200l-13 -74h186l-20 -114h-186l-16 -94h205l5 -116h-398zM328 619h-2l-51 -64h-99l82 140h162l36 -140h-99z" />
    <glyph glyph-name="Edieresis.aalt" horiz-adv-x="480" 
d="M111 512h389l-41 -114h-200l-13 -74h186l-20 -114h-186l-16 -94h205l5 -116h-398zM203 694h114l-25 -140h-114zM369 694h114l-25 -140h-114z" />
    <glyph glyph-name="Emacron.aalt" horiz-adv-x="480" 
d="M111 512h389l-41 -114h-200l-13 -74h186l-20 -114h-186l-16 -94h205l5 -116h-398zM173 671h322l-16 -94h-322z" />
    <glyph glyph-name="Ecaron.aalt" horiz-adv-x="480" 
d="M111 512h389l-41 -114h-200l-13 -74h186l-20 -114h-186l-16 -94h205l5 -116h-398zM200 695h99l29 -64h2l51 64h99l-82 -140h-162z" />
    <glyph glyph-name="Ebreve.aalt" horiz-adv-x="480" 
d="M111 512h389l-41 -114h-200l-13 -74h186l-20 -114h-186l-16 -94h205l5 -116h-398zM427 584q-43 -31 -113 -31q-69 0 -102 31t-36 95l92 20q1 -28 15 -42t46 -14q33 0 50.5 13.5t27.5 42.5l87 -20q-24 -64 -67 -95z" />
    <glyph glyph-name="Edotaccent.aalt" horiz-adv-x="480" 
d="M111 512h389l-41 -114h-200l-13 -74h186l-20 -114h-186l-16 -94h205l5 -116h-398zM281 695h112l-22 -140h-112z" />
    <glyph glyph-name="Eogonek.aalt" horiz-adv-x="480" 
d="M345.5 -204q-14.5 -7 -39.5 -13.5t-55 -6.5q-50 0 -81.5 27.5t-31.5 76.5q0 38 17.5 63.5t36 38t30.5 16.5v2h-200l89 512h389l-41 -114h-200l-13 -74h186l-20 -114h-186l-16 -94h205l5 -116q-79 0 -119 -23.5t-40 -62.5q0 -22 10.5 -33.5t29.5 -11.5q12 0 23 3.5t17.5 7
t8.5 4.5h2l12 -79q-4 -2 -18.5 -9z" />
    <glyph glyph-name="Gcircumflex.aalt" horiz-adv-x="594" 
d="M434 16.5q-57 -29.5 -162 -29.5q-80 0 -134.5 28t-81.5 78t-27 115q0 98 38 170t108.5 110t166.5 38q81 0 130 -25t68.5 -52t23.5 -41l-148 -56q0 4 -7.5 19t-26 28.5t-50.5 13.5q-35 0 -64.5 -21t-47 -65t-17.5 -109q0 -60 22 -88t63 -28q23 0 40 5t25.5 10.5t10.5 7.5
l13 74h-86l19 109h250l-40 -231q-29 -31 -86 -60.5zM368 619h-2l-51 -64h-99l82 140h162l36 -140h-99z" />
    <glyph glyph-name="Gbreve.aalt" horiz-adv-x="594" 
d="M434 16.5q-57 -29.5 -162 -29.5q-80 0 -134.5 28t-81.5 78t-27 115q0 98 38 170t108.5 110t166.5 38q81 0 130 -25t68.5 -52t23.5 -41l-148 -56q0 4 -7.5 19t-26 28.5t-50.5 13.5q-35 0 -64.5 -21t-47 -65t-17.5 -109q0 -60 22 -88t63 -28q23 0 40 5t25.5 10.5t10.5 7.5
l13 74h-86l19 109h250l-40 -231q-29 -31 -86 -60.5zM467 582q-43 -31 -113 -31q-69 0 -102 31t-36 95l92 20q1 -28 15 -42t46 -14q33 0 50.5 13.5t27.5 42.5l87 -20q-24 -64 -67 -95z" />
    <glyph glyph-name="Gdotaccent.aalt" horiz-adv-x="594" 
d="M434 16.5q-57 -29.5 -162 -29.5q-80 0 -134.5 28t-81.5 78t-27 115q0 98 38 170t108.5 110t166.5 38q81 0 130 -25t68.5 -52t23.5 -41l-148 -56q0 4 -7.5 19t-26 28.5t-50.5 13.5q-35 0 -64.5 -21t-47 -65t-17.5 -109q0 -60 22 -88t63 -28q23 0 40 5t25.5 10.5t10.5 7.5
l13 74h-86l19 109h250l-40 -231q-29 -31 -86 -60.5zM325 695h112l-22 -140h-112z" />
    <glyph glyph-name="Gcommaaccent.aalt" horiz-adv-x="594" 
d="M434 16.5q-57 -29.5 -162 -29.5q-80 0 -134.5 28t-81.5 78t-27 115q0 98 38 170t108.5 110t166.5 38q81 0 130 -25t68.5 -52t23.5 -41l-148 -56q0 4 -7.5 19t-26 28.5t-50.5 13.5q-35 0 -64.5 -21t-47 -65t-17.5 -109q0 -60 22 -88t63 -28q23 0 40 5t25.5 10.5t10.5 7.5
l13 74h-86l19 109h250l-40 -231q-29 -31 -86 -60.5zM189 -261q18 22 23 51l3 17h-51l24 139h135l-24 -142q-9 -53 -37.5 -89.5t-73.5 -57.5l-40 50q23 10 41 32z" />
    <glyph glyph-name="Hcircumflex.aalt" horiz-adv-x="599" 
d="M366 214h-139l-37 -214h-168l89 512h168l-31 -177h139l31 177h168l-89 -512h-168zM368 619h-2l-51 -64h-99l82 140h162l36 -140h-99z" />
    <glyph glyph-name="Hbar.aalt" horiz-adv-x="601" 
d="M366 214h-139l-37 -214h-168l65 372h-40l17 96h39l8 44h168l-8 -46h139l8 46h168l-8 -44h42l-17 -96h-41l-65 -372h-168zM254 374l-9 -49h141l9 49h-141z" />
    <glyph glyph-name="Igrave.aalt" horiz-adv-x="296" 
d="M113 512h168l-89 -512h-168zM82 695h158l38 -140h-124z" />
    <glyph glyph-name="Iacute.aalt" horiz-adv-x="296" 
d="M113 512h168l-89 -512h-168zM205 695h161l-114 -140h-128z" />
    <glyph glyph-name="Icircumflex.aalt" horiz-adv-x="296" 
d="M113 512h168l-89 -512h-168zM216 619h-2l-51 -64h-99l82 140h162l36 -140h-99z" />
    <glyph glyph-name="Idieresis.aalt" horiz-adv-x="296" 
d="M178 554h-114l25 140h114zM369 694l-25 -140h-114l25 140h114zM113 512h168l-89 -512h-168z" />
    <glyph glyph-name="Itilde.aalt" horiz-adv-x="296" 
d="M325.5 571.5q-29.5 -22.5 -63.5 -22.5q-23 0 -40 8t-25 16l-5 5q-2 2 -8.5 9t-13 11t-12.5 4q-10 0 -15.5 -7t-10.5 -23l-6 -20l-76 17l12 41q13 46 43 68t65 22q22 0 38.5 -8t24.5 -16l5 -5q2 -2 8.5 -9t13 -11t12.5 -4q10 0 15.5 7t10.5 23l6 20l76 -17l-12 -41
q-13 -45 -42.5 -67.5zM113 512h168l-89 -512h-168z" />
    <glyph glyph-name="Imacron.aalt" horiz-adv-x="296" 
d="M82 670h288l-16 -91h-288zM113 512h168l-89 -512h-168z" />
    <glyph glyph-name="Iogonek.aalt" horiz-adv-x="296" 
d="M153 -195l-18 -9t-39 -13.5t-55 -6.5q-51 0 -81.5 24.5t-30.5 79.5q0 36 15.5 66t38.5 49.5t45 28.5l85 488h168l-89 -512q-45 0 -77 -11.5t-48 -31t-16 -43.5q0 -22 10.5 -33.5t29.5 -11.5q12 0 23 3.5t18 7l9 4.5h2q6 -56 10 -79z" />
    <glyph glyph-name="Ibreve.aalt" horiz-adv-x="296" 
d="M304.5 583q-39.5 -32 -101.5 -32q-61 0 -88 31.5t-29 96.5l91 21q-2 -14 -2 -19q0 -23 12.5 -34.5t30.5 -11.5q23 0 41.5 17t25.5 48l81 -21q-22 -64 -61.5 -96zM113 512h168l-89 -512h-168z" />
    <glyph glyph-name="Idotaccent.aalt" horiz-adv-x="296" 
d="M113 512h168l-89 -512h-168zM171 695h112l-22 -140h-112z" />
    <glyph glyph-name="dotlessi.sc" horiz-adv-x="296" 
d="M113 512h168l-89 -512h-168z" />
    <glyph glyph-name="IJ.aalt" horiz-adv-x="768" 
d="M113 512h168l-89 -512h-168zM756 512l-62 -358q-16 -93 -74 -130.5t-156 -37.5q-84 0 -126 29.5t-42 90.5q0 19 5 37.5t10 31t7 15.5l142 32q-2 -3 -7 -15.5t-10 -31t-5 -37.5q0 -23 6.5 -34t27.5 -11q23 0 35.5 12t16.5 39l64 368h168z" />
    <glyph glyph-name="Jcircumflex.aalt" horiz-adv-x="472" 
d="M460 512l-62 -358q-16 -93 -74 -130.5t-156 -37.5q-84 0 -126 29.5t-42 90.5q0 19 5 37.5t10 31t7 15.5l142 32q-2 -3 -7 -15.5t-10 -31t-5 -37.5q0 -23 6.5 -34t27.5 -11q23 0 35.5 12t16.5 39l64 368h168zM394 619h-2l-51 -64h-99l82 140h162l36 -140h-99z" />
    <glyph glyph-name="uni0237.aalt" horiz-adv-x="472" 
d="M460 512l-62 -358q-16 -93 -74 -130.5t-156 -37.5q-84 0 -126 29.5t-42 90.5q0 19 5 37.5t10 31t7 15.5l142 32q-2 -3 -7 -15.5t-10 -31t-5 -37.5q0 -23 6.5 -34t27.5 -11q23 0 35.5 12t16.5 39l64 368h168z" />
    <glyph glyph-name="Kcommaaccent.aalt" horiz-adv-x="550" 
d="M270 203l-54 -51l-26 -152h-168l89 512h168l-31 -174h2l164 174h184l-208 -196l122 -316h-174zM190 -261q18 22 23 51l3 17h-51l24 139h135l-24 -142q-9 -53 -37.5 -89.5t-73.5 -57.5l-40 50q23 10 41 32z" />
    <glyph glyph-name="kgreenlandic.aalt" horiz-adv-x="550" 
d="M270 203l-54 -51l-26 -152h-168l89 512h168l-31 -174h2l164 174h184l-208 -196l122 -316h-174z" />
    <glyph glyph-name="Lacute.aalt" horiz-adv-x="436" 
d="M111 512h168l-69 -396h185l5 -116h-378zM204 696h161l-114 -140h-128z" />
    <glyph glyph-name="Lcommaaccent.aalt" horiz-adv-x="436" 
d="M111 512h168l-69 -396h185l5 -116h-378zM135 -261q18 22 23 51l3 17h-51l24 139h135l-24 -142q-9 -53 -37.5 -89.5t-73.5 -57.5l-40 50q23 10 41 32z" />
    <glyph glyph-name="Lcaron.aalt" horiz-adv-x="436" 
d="M111 512h168l-69 -396h185l5 -116h-378zM341 512h152l-90 -161h-112z" />
    <glyph glyph-name="Ldot.aalt" horiz-adv-x="436" 
d="M111 512h168l-69 -396h185l5 -116h-378zM332 381h113l-23 -134h-113z" />
    <glyph glyph-name="Lslash.aalt" horiz-adv-x="436" 
d="M47 145l-43 -30l22 132l44 30l41 235h168l-20 -115l92 63l-23 -132l-92 -63l-26 -149h185l5 -116h-378z" />
    </font>
</defs>
</svg>
